<svg viewBox="0 0 585.1666870117188 400" xmlns="http://www.w3.org/2000/svg"><g><g><g><g><g><line x1="51.41200256347656" y1="377.98199939727783" x2="46.41200256347656" y2="377.98199939727783" style="visibility: inherit;" fill="rgb(0, 0, 0)" stroke="rgb(204, 204, 204)" stroke-width="1px"></line><line x1="51.41200256347656" y1="340.18379945755004" x2="46.41200256347656" y2="340.18379945755004" style="visibility: inherit;" fill="rgb(0, 0, 0)" stroke="rgb(204, 204, 204)" stroke-width="1px"></line><line x1="51.41200256347656" y1="302.38559951782224" x2="46.41200256347656" y2="302.38559951782224" style="visibility: inherit;" fill="rgb(0, 0, 0)" stroke="rgb(204, 204, 204)" stroke-width="1px"></line><line x1="51.41200256347656" y1="264.58739957809445" x2="46.41200256347656" y2="264.58739957809445" style="visibility: inherit;" fill="rgb(0, 0, 0)" stroke="rgb(204, 204, 204)" stroke-width="1px"></line><line x1="51.41200256347656" y1="226.78919963836668" x2="46.41200256347656" y2="226.78919963836668" style="visibility: inherit;" fill="rgb(0, 0, 0)" stroke="rgb(204, 204, 204)" stroke-width="1px"></line><line x1="51.41200256347656" y1="188.99099969863892" x2="46.41200256347656" y2="188.99099969863892" style="visibility: inherit;" fill="rgb(0, 0, 0)" stroke="rgb(204, 204, 204)" stroke-width="1px"></line><line x1="51.41200256347656" y1="151.19279975891115" x2="46.41200256347656" y2="151.19279975891115" style="visibility: inherit;" fill="rgb(0, 0, 0)" stroke="rgb(204, 204, 204)" stroke-width="1px"></line><line x1="51.41200256347656" y1="113.39459981918338" x2="46.41200256347656" y2="113.39459981918338" style="visibility: inherit;" fill="rgb(0, 0, 0)" stroke="rgb(204, 204, 204)" stroke-width="1px"></line><line x1="51.41200256347656" y1="75.59639987945559" x2="46.41200256347656" y2="75.59639987945559" style="visibility: inherit;" fill="rgb(0, 0, 0)" stroke="rgb(204, 204, 204)" stroke-width="1px"></line><line x1="51.41200256347656" y1="37.798199939727795" x2="46.41200256347656" y2="37.798199939727795" style="visibility: inherit;" fill="rgb(0, 0, 0)" stroke="rgb(204, 204, 204)" stroke-width="1px"></line><line x1="51.41200256347656" y1="0" x2="46.41200256347656" y2="0" style="visibility: inherit;" fill="rgb(0, 0, 0)" stroke="rgb(204, 204, 204)" stroke-width="1px"></line></g><g transform="translate(41.41200256347656, 0)"><text style="text-anchor: end; visibility: hidden; font-family: &quot;Helvetica Neue&quot;, sans-serif; font-size: 12px; font-weight: 200;" x="0" y="377.98199939727783" dx="0em" dy="0.3em" fill="rgb(50, 49, 63)" stroke="none" stroke-width="1px">-0.1</text><text style="text-anchor: end; visibility: inherit; font-family: &quot;Helvetica Neue&quot;, sans-serif; font-size: 12px; font-weight: 200;" x="0" y="340.18379945755004" dx="0em" dy="0.3em" fill="rgb(50, 49, 63)" stroke="none" stroke-width="1px">0</text><text style="text-anchor: end; visibility: inherit; font-family: &quot;Helvetica Neue&quot;, sans-serif; font-size: 12px; font-weight: 200;" x="0" y="302.38559951782224" dx="0em" dy="0.3em" fill="rgb(50, 49, 63)" stroke="none" stroke-width="1px">0.1</text><text style="text-anchor: end; visibility: inherit; font-family: &quot;Helvetica Neue&quot;, sans-serif; font-size: 12px; font-weight: 200;" x="0" y="264.58739957809445" dx="0em" dy="0.3em" fill="rgb(50, 49, 63)" stroke="none" stroke-width="1px">0.2</text><text style="text-anchor: end; visibility: inherit; font-family: &quot;Helvetica Neue&quot;, sans-serif; font-size: 12px; font-weight: 200;" x="0" y="226.78919963836668" dx="0em" dy="0.3em" fill="rgb(50, 49, 63)" stroke="none" stroke-width="1px">0.3</text><text style="text-anchor: end; visibility: inherit; font-family: &quot;Helvetica Neue&quot;, sans-serif; font-size: 12px; font-weight: 200;" x="0" y="188.99099969863892" dx="0em" dy="0.3em" fill="rgb(50, 49, 63)" stroke="none" stroke-width="1px">0.4</text><text style="text-anchor: end; visibility: inherit; font-family: &quot;Helvetica Neue&quot;, sans-serif; font-size: 12px; font-weight: 200;" x="0" y="151.19279975891115" dx="0em" dy="0.3em" fill="rgb(50, 49, 63)" stroke="none" stroke-width="1px">0.5</text><text style="text-anchor: end; visibility: inherit; font-family: &quot;Helvetica Neue&quot;, sans-serif; font-size: 12px; font-weight: 200;" x="0" y="113.39459981918338" dx="0em" dy="0.3em" fill="rgb(50, 49, 63)" stroke="none" stroke-width="1px">0.6</text><text style="text-anchor: end; visibility: inherit; font-family: &quot;Helvetica Neue&quot;, sans-serif; font-size: 12px; font-weight: 200;" x="0" y="75.59639987945559" dx="0em" dy="0.3em" fill="rgb(50, 49, 63)" stroke="none" stroke-width="1px">0.7</text><text style="text-anchor: end; visibility: inherit; font-family: &quot;Helvetica Neue&quot;, sans-serif; font-size: 12px; font-weight: 200;" x="0" y="37.798199939727795" dx="0em" dy="0.3em" fill="rgb(50, 49, 63)" stroke="none" stroke-width="1px">0.8</text><text style="text-anchor: end; visibility: hidden; font-family: &quot;Helvetica Neue&quot;, sans-serif; font-size: 12px; font-weight: 200;" x="0" y="0" dx="0em" dy="0.3em" fill="rgb(50, 49, 63)" stroke="none" stroke-width="1px">0.9</text></g><line x1="51.41200256347656" y1="0" x2="51.41200256347656" y2="377.98199939727783" fill="rgb(0, 0, 0)" stroke="rgb(204, 204, 204)" stroke-width="1px"></line></g></g><g transform="translate(51, 0)" clip-path="url(#clip_0)"><clipPath id="clip_0"><rect width="533" height="377"></rect></clipPath><g><g><g><line x1="0" y1="0" x2="0" y2="377.98199939727783" fill="rgb(0, 0, 0)" stroke="rgb(60, 60, 60)" stroke-width="1px" opacity="0.25"></line><line x1="44.479583119710284" y1="0" x2="44.479583119710284" y2="377.98199939727783" fill="rgb(0, 0, 0)" stroke="rgb(60, 60, 60)" stroke-width="1px" opacity="0.25"></line><line x1="88.95916623942057" y1="0" x2="88.95916623942057" y2="377.98199939727783" fill="rgb(0, 0, 0)" stroke="rgb(60, 60, 60)" stroke-width="1px" opacity="0.25"></line><line x1="133.43874935913087" y1="0" x2="133.43874935913087" y2="377.98199939727783" fill="rgb(0, 0, 0)" stroke="rgb(60, 60, 60)" stroke-width="1px" opacity="0.25"></line><line x1="177.91833247884114" y1="0" x2="177.91833247884114" y2="377.98199939727783" fill="rgb(0, 0, 0)" stroke="rgb(60, 60, 60)" stroke-width="1px" opacity="0.25"></line><line x1="222.39791559855146" y1="0" x2="222.39791559855146" y2="377.98199939727783" fill="rgb(0, 0, 0)" stroke="rgb(60, 60, 60)" stroke-width="1px" opacity="0.25"></line><line x1="266.87749871826173" y1="0" x2="266.87749871826173" y2="377.98199939727783" fill="rgb(0, 0, 0)" stroke="rgb(60, 60, 60)" stroke-width="1px" opacity="0.25"></line><line x1="311.35708183797203" y1="0" x2="311.35708183797203" y2="377.98199939727783" fill="rgb(0, 0, 0)" stroke="rgb(60, 60, 60)" stroke-width="1px" opacity="0.25"></line><line x1="355.8366649576823" y1="0" x2="355.8366649576823" y2="377.98199939727783" fill="rgb(0, 0, 0)" stroke="rgb(60, 60, 60)" stroke-width="1px" opacity="0.25"></line><line x1="400.31624807739263" y1="0" x2="400.31624807739263" y2="377.98199939727783" fill="rgb(0, 0, 0)" stroke="rgb(60, 60, 60)" stroke-width="1px" opacity="0.25"></line><line x1="444.7958311971029" y1="0" x2="444.7958311971029" y2="377.98199939727783" fill="rgb(0, 0, 0)" stroke="rgb(60, 60, 60)" stroke-width="1px" opacity="0.25"></line><line x1="489.27541431681317" y1="0" x2="489.27541431681317" y2="377.98199939727783" fill="rgb(0, 0, 0)" stroke="rgb(60, 60, 60)" stroke-width="1px" opacity="0.25"></line><line x1="533.7549974365235" y1="0" x2="533.7549974365235" y2="377.98199939727783" fill="rgb(0, 0, 0)" stroke="rgb(60, 60, 60)" stroke-width="1px" opacity="0.25"></line></g><g><line x1="0" y1="377.98199939727783" x2="533.7549974365235" y2="377.98199939727783" fill="rgb(0, 0, 0)" stroke="rgb(60, 60, 60)" stroke-width="1px" opacity="0.25"></line><line x1="0" y1="340.18379945755004" x2="533.7549974365235" y2="340.18379945755004" fill="rgb(0, 0, 0)" stroke="rgb(60, 60, 60)" stroke-width="1px" opacity="0.25"></line><line x1="0" y1="302.38559951782224" x2="533.7549974365235" y2="302.38559951782224" fill="rgb(0, 0, 0)" stroke="rgb(60, 60, 60)" stroke-width="1px" opacity="0.25"></line><line x1="0" y1="264.58739957809445" x2="533.7549974365235" y2="264.58739957809445" fill="rgb(0, 0, 0)" stroke="rgb(60, 60, 60)" stroke-width="1px" opacity="0.25"></line><line x1="0" y1="226.78919963836668" x2="533.7549974365235" y2="226.78919963836668" fill="rgb(0, 0, 0)" stroke="rgb(60, 60, 60)" stroke-width="1px" opacity="0.25"></line><line x1="0" y1="188.99099969863892" x2="533.7549974365235" y2="188.99099969863892" fill="rgb(0, 0, 0)" stroke="rgb(60, 60, 60)" stroke-width="1px" opacity="0.25"></line><line x1="0" y1="151.19279975891115" x2="533.7549974365235" y2="151.19279975891115" fill="rgb(0, 0, 0)" stroke="rgb(60, 60, 60)" stroke-width="1px" opacity="0.25"></line><line x1="0" y1="113.39459981918338" x2="533.7549974365235" y2="113.39459981918338" fill="rgb(0, 0, 0)" stroke="rgb(60, 60, 60)" stroke-width="1px" opacity="0.25"></line><line x1="0" y1="75.59639987945559" x2="533.7549974365235" y2="75.59639987945559" fill="rgb(0, 0, 0)" stroke="rgb(60, 60, 60)" stroke-width="1px" opacity="0.25"></line><line x1="0" y1="37.798199939727795" x2="533.7549974365235" y2="37.798199939727795" fill="rgb(0, 0, 0)" stroke="rgb(60, 60, 60)" stroke-width="1px" opacity="0.25"></line><line x1="0" y1="0" x2="533.7549974365235" y2="0" fill="rgb(0, 0, 0)" stroke="rgb(60, 60, 60)" stroke-width="1px" opacity="0.25"></line></g></g></g><g><g><line x1="0" y1="340.18379945755004" x2="533.7549974365235" y2="340.18379945755004" fill="rgb(0, 0, 0)" stroke="rgb(153, 153, 153)" stroke-width="1.5px"></line></g></g><g><g><line x1="44.479583119710284" y1="0" x2="44.479583119710284" y2="377.98199939727783" fill="rgb(0, 0, 0)" stroke="rgb(153, 153, 153)" stroke-width="1.5px"></line></g></g><g><g><g><g><g><path style="fill: none;" stroke="rgb(0, 153, 136)" stroke-width="2px" d="M44.479583119710284,244.30236467922197L53.37549974365235,220.83598629072245L62.271416367594405,196.9389099977606L71.16733299153645,174.52623887549635L80.06324961547851,154.9519856146481L88.95916623942057,138.30847115916086L97.85508286336263,125.82640821370143L106.7509994873047,116.25798573524668L115.64691611124675,107.66801264852796L124.54283273518881,100.94723449667993L133.43874935913087,95.9798359270572L142.3346659830729,91.79877224620873L151.23058260701498,88.69040313283853L160.12649923095702,86.07142579305287L169.0224158548991,83.69460794803621L177.91833247884114,81.61388141748597L186.8142491027832,80.1642023123826L195.71016572672525,78.94173141211832L204.60608235066735,77.65391607426938L213.5019989746094,76.3772831515522L222.39791559855146,75.15775076118763L231.2938322224935,74.17404836105527L240.18974884643558,73.23105676798224L249.08566547037762,72.61486338053612L257.98158209431966,71.84196945797271L266.87749871826173,71.17664035472035L275.7734153422038,70.67665562169014L284.6693319661458,70.0742742054664L293.56524859008795,69.41046377464255L302.46116521402996,68.91138074432723L311.35708183797203,67.55357686029976L320.25299846191405,65.83174044189059L329.1489150858562,65.1514233607495L338.0448317097982,64.59204227531274L346.94074833374026,64.0548198186982L355.8366649576823,63.78288029829935L364.7325815816244,63.569322640403755L373.6284982055664,63.289997192739236L382.5244148295085,63.172795872056156L391.4203314534505,63.001678173606535L400.31624807739263,62.89900755468318L409.2121647013347,62.78701123621806L418.1080813252767,62.669419498019465L427.0039979492188,62.54846149618072L435.8999145731608,62.47588669509088L444.7958311971029,62.43234181444177L453.69174782104494,62.406214886054045L462.587664444987,62.39053872902201L471.483581068929,62.33073908766289L480.37949769287115,62.2948593028479" fill="none"></path></g><g><path style="fill: none;" stroke="rgb(238, 51, 119)" stroke-width="2px" d="M44.479583119710284,268.6220063942947L53.37549974365235,252.4451900172672L62.271416367594405,229.46428132095957L71.16733299153645,204.2994326333795L80.06324961547851,179.87555180935493L88.95916623942057,159.6367553196488L97.85508286336263,143.6263551599145L106.7509994873047,131.25475092701802L115.64691611124675,120.57063993938203L124.54283273518881,112.74458091737785L133.43874935913087,107.16027362984426L142.3346659830729,102.28953144916932L151.23058260701498,98.30593109997346L160.12649923095702,94.70076348021541L169.0224158548991,91.90354405296682L177.91833247884114,89.16997080110497L186.8142491027832,86.93768576017999L195.71016572672525,85.21067665134018L204.60608235066735,84.01297412356871L213.5019989746094,82.46482441857569L222.39791559855146,81.48210615305237L231.2938322224935,80.82784654803834L240.18974884643558,79.2071233832961L249.08566547037762,78.15928663389457L257.98158209431966,77.77837673005462L266.87749871826173,76.73105460823524L275.7734153422038,76.57669229371777L284.6693319661458,76.10700332674213L293.56524859008795,75.6635905973439L302.46116521402996,75.02048054488137L311.35708183797203,74.31141561298966L320.25299846191405,73.77824071869827L329.1489150858562,72.62879120097455L338.0448317097982,72.24077328529188L346.94074833374026,71.6739944959395L355.8366649576823,71.33392722856382L364.7325815816244,71.19451945105584L373.6284982055664,70.88464272972283L382.5244148295085,70.37551774840381L391.4203314534505,70.0269483655702L400.31624807739263,70.37801584426774L409.2121647013347,70.07154161811752L418.1080813252767,69.58599631946134L427.0039979492188,69.97339233947542L435.8999145731608,69.87185289829648L444.7958311971029,69.84325453552736L453.69174782104494,69.45980217460732L462.587664444987,69.48828811454001L471.483581068929,69.18218072995933L480.37949769287115,69.0092944037878" fill="none"></path></g></g></g></g><g opacity="0.2"><g><g><g><path style="fill: none;" stroke="rgb(0, 153, 136)" stroke-width="2px" d="M44.479583119710284,244.30236467922197L53.37549974365235,206.75615925762273L62.271416367594405,173.99771675651726L71.16733299153645,148.1689376357136L80.06324961547851,129.39584055728469L88.95916623942057,115.28449900201798L97.85508286336263,107.97685848868718L106.7509994873047,102.30713390480389L115.64691611124675,94.99947086199029L124.54283273518881,90.9676622075545L133.43874935913087,88.57379201204901L142.3346659830729,85.54992988885147L151.23058260701498,84.0379988272527L160.12649923095702,82.14809063262493L169.0224158548991,80.13217504066563L177.91833247884114,78.49425911121813L186.8142491027832,77.9902971103404L195.71016572672525,77.10833544695089L204.60608235066735,75.72238925320084L213.5019989746094,74.46245045678234L222.39791559855146,73.32851905769536L231.2938322224935,72.6985271300033L240.18974884643558,71.81658799609659L249.08566547037762,71.69058059876505L257.98158209431966,70.6826340675268L266.87749871826173,70.17864953716628L275.7734153422038,69.92667980146882L284.6693319661458,69.17070300592803L293.56524859008795,68.41474873987005L302.46116521402996,68.16275647468979L311.35708183797203,65.51687148452123L320.25299846191405,63.248986156864476L329.1489150858562,64.130947820254L338.0448317097982,63.752970687225L346.94074833374026,63.248986156864476L355.8366649576823,63.374971024713204L364.7325815816244,63.248986156864476L373.6284982055664,62.871009023835484L382.5244148295085,62.99699389168421L391.4203314534505,62.74500162650395L400.31624807739263,62.74500162650395L409.2121647013347,62.61901675865522L418.1080813252767,62.49303189080649L427.0039979492188,62.36702449347496L435.8999145731608,62.36702449347496L444.7958311971029,62.36702449347496L453.69174782104494,62.36702449347496L462.587664444987,62.36702449347496L471.483581068929,62.24103962562623L480.37949769287115,62.24103962562623" fill="none"></path></g><g><path style="fill: none;" stroke="rgb(238, 51, 119)" stroke-width="2px" d="M44.479583119710284,268.6220063942947L53.37549974365235,242.7391001910507L62.271416367594405,207.40260897250425L71.16733299153645,174.70557057678536L80.06324961547851,147.98773300550843L88.95916623942057,131.63921380764899L97.85508286336263,120.73122676509178L106.7509994873047,113.2168331880543L115.64691611124675,104.81365151433721L124.54283273518881,101.12379534992431L133.43874935913087,98.83446195463665L142.3346659830729,95.00992454201207L151.23058260701498,92.34353772249045L160.12649923095702,89.30007494925206L169.0224158548991,87.71100293852703L177.91833247884114,85.07153885095806L186.8142491027832,83.59020282700925L195.71016572672525,82.62060147550608L204.60608235066735,82.21660278983666L213.5019989746094,80.14274136810144L222.39791559855146,80.00808264937257L231.2938322224935,79.84647866920824L240.18974884643558,76.77607063453439L249.08566547037762,76.58754392241741L257.98158209431966,77.20701458163927L266.87749871826173,75.1600758918567L275.7734153422038,76.34514921691232L284.6693319661458,75.4024705973618L293.56524859008795,74.99847191169238L302.46116521402996,74.05581582162466L311.35708183797203,73.24781845028582L320.25299846191405,72.97847848334527L329.1489150858562,70.90461706161005L338.0448317097982,71.65874643956079L346.94074833374026,70.82382633626929L355.8366649576823,70.82382633626929L364.7325815816244,70.98540778695082L373.6284982055664,70.41982765059987L382.5244148295085,69.61183027926103L391.4203314534505,69.50409429248481L400.31624807739263,70.90461706161005L409.2121647013347,69.61183027926103L418.1080813252767,68.85767837182749L427.0039979492188,70.55448636932874L435.8999145731608,69.71954373655444L444.7958311971029,69.80035699137801L453.69174782104494,68.88462363326295L462.587664444987,69.53101702443746L471.483581068929,68.72301965309862L480.37949769287115,68.74996491453408" fill="none"></path></g></g></g></g></g></g><g transform="translate(51, 377)" clip-path="url(#clip_1)"><clipPath id="clip_1"><rect width="533" height="22"></rect></clipPath><g><g><line x1="0" y1="0" x2="0" y2="5" style="visibility: inherit;" fill="rgb(0, 0, 0)" stroke="rgb(204, 204, 204)" stroke-width="1px"></line><line x1="44.479583119710284" y1="0" x2="44.479583119710284" y2="5" style="visibility: inherit;" fill="rgb(0, 0, 0)" stroke="rgb(204, 204, 204)" stroke-width="1px"></line><line x1="88.95916623942057" y1="0" x2="88.95916623942057" y2="5" style="visibility: inherit;" fill="rgb(0, 0, 0)" stroke="rgb(204, 204, 204)" stroke-width="1px"></line><line x1="133.43874935913087" y1="0" x2="133.43874935913087" y2="5" style="visibility: inherit;" fill="rgb(0, 0, 0)" stroke="rgb(204, 204, 204)" stroke-width="1px"></line><line x1="177.91833247884114" y1="0" x2="177.91833247884114" y2="5" style="visibility: inherit;" fill="rgb(0, 0, 0)" stroke="rgb(204, 204, 204)" stroke-width="1px"></line><line x1="222.39791559855146" y1="0" x2="222.39791559855146" y2="5" style="visibility: inherit;" fill="rgb(0, 0, 0)" stroke="rgb(204, 204, 204)" stroke-width="1px"></line><line x1="266.87749871826173" y1="0" x2="266.87749871826173" y2="5" style="visibility: inherit;" fill="rgb(0, 0, 0)" stroke="rgb(204, 204, 204)" stroke-width="1px"></line><line x1="311.35708183797203" y1="0" x2="311.35708183797203" y2="5" style="visibility: inherit;" fill="rgb(0, 0, 0)" stroke="rgb(204, 204, 204)" stroke-width="1px"></line><line x1="355.8366649576823" y1="0" x2="355.8366649576823" y2="5" style="visibility: inherit;" fill="rgb(0, 0, 0)" stroke="rgb(204, 204, 204)" stroke-width="1px"></line><line x1="400.31624807739263" y1="0" x2="400.31624807739263" y2="5" style="visibility: inherit;" fill="rgb(0, 0, 0)" stroke="rgb(204, 204, 204)" stroke-width="1px"></line><line x1="444.7958311971029" y1="0" x2="444.7958311971029" y2="5" style="visibility: inherit;" fill="rgb(0, 0, 0)" stroke="rgb(204, 204, 204)" stroke-width="1px"></line><line x1="489.27541431681317" y1="0" x2="489.27541431681317" y2="5" style="visibility: inherit;" fill="rgb(0, 0, 0)" stroke="rgb(204, 204, 204)" stroke-width="1px"></line><line x1="533.7549974365235" y1="0" x2="533.7549974365235" y2="5" style="visibility: inherit;" fill="rgb(0, 0, 0)" stroke="rgb(204, 204, 204)" stroke-width="1px"></line></g><g transform="translate(0, 8)"><text style="text-anchor: middle; visibility: hidden; font-family: &quot;Helvetica Neue&quot;, sans-serif; font-size: 12px; font-weight: 200;" x="0" y="0" dx="0em" dy="0.95em" fill="rgb(50, 49, 63)" stroke="none" stroke-width="1px">-5</text><text style="text-anchor: middle; visibility: inherit; font-family: &quot;Helvetica Neue&quot;, sans-serif; font-size: 12px; font-weight: 200;" x="44.479583119710284" y="0" dx="0em" dy="0.95em" fill="rgb(50, 49, 63)" stroke="none" stroke-width="1px">0</text><text style="text-anchor: middle; visibility: inherit; font-family: &quot;Helvetica Neue&quot;, sans-serif; font-size: 12px; font-weight: 200;" x="88.95916623942057" y="0" dx="0em" dy="0.95em" fill="rgb(50, 49, 63)" stroke="none" stroke-width="1px">5</text><text style="text-anchor: middle; visibility: inherit; font-family: &quot;Helvetica Neue&quot;, sans-serif; font-size: 12px; font-weight: 200;" x="133.43874935913087" y="0" dx="0em" dy="0.95em" fill="rgb(50, 49, 63)" stroke="none" stroke-width="1px">10</text><text style="text-anchor: middle; visibility: inherit; font-family: &quot;Helvetica Neue&quot;, sans-serif; font-size: 12px; font-weight: 200;" x="177.91833247884114" y="0" dx="0em" dy="0.95em" fill="rgb(50, 49, 63)" stroke="none" stroke-width="1px">15</text><text style="text-anchor: middle; visibility: inherit; font-family: &quot;Helvetica Neue&quot;, sans-serif; font-size: 12px; font-weight: 200;" x="222.39791559855146" y="0" dx="0em" dy="0.95em" fill="rgb(50, 49, 63)" stroke="none" stroke-width="1px">20</text><text style="text-anchor: middle; visibility: inherit; font-family: &quot;Helvetica Neue&quot;, sans-serif; font-size: 12px; font-weight: 200;" x="266.87749871826173" y="0" dx="0em" dy="0.95em" fill="rgb(50, 49, 63)" stroke="none" stroke-width="1px">25</text><text style="text-anchor: middle; visibility: inherit; font-family: &quot;Helvetica Neue&quot;, sans-serif; font-size: 12px; font-weight: 200;" x="311.35708183797203" y="0" dx="0em" dy="0.95em" fill="rgb(50, 49, 63)" stroke="none" stroke-width="1px">30</text><text style="text-anchor: middle; visibility: inherit; font-family: &quot;Helvetica Neue&quot;, sans-serif; font-size: 12px; font-weight: 200;" x="355.8366649576823" y="0" dx="0em" dy="0.95em" fill="rgb(50, 49, 63)" stroke="none" stroke-width="1px">35</text><text style="text-anchor: middle; visibility: inherit; font-family: &quot;Helvetica Neue&quot;, sans-serif; font-size: 12px; font-weight: 200;" x="400.31624807739263" y="0" dx="0em" dy="0.95em" fill="rgb(50, 49, 63)" stroke="none" stroke-width="1px">40</text><text style="text-anchor: middle; visibility: inherit; font-family: &quot;Helvetica Neue&quot;, sans-serif; font-size: 12px; font-weight: 200;" x="444.7958311971029" y="0" dx="0em" dy="0.95em" fill="rgb(50, 49, 63)" stroke="none" stroke-width="1px">45</text><text style="text-anchor: middle; visibility: inherit; font-family: &quot;Helvetica Neue&quot;, sans-serif; font-size: 12px; font-weight: 200;" x="489.27541431681317" y="0" dx="0em" dy="0.95em" fill="rgb(50, 49, 63)" stroke="none" stroke-width="1px">50</text><text style="text-anchor: middle; visibility: hidden; font-family: &quot;Helvetica Neue&quot;, sans-serif; font-size: 12px; font-weight: 200;" x="533.7549974365235" y="0" dx="0em" dy="0.95em" fill="rgb(50, 49, 63)" stroke="none" stroke-width="1px">55</text></g><line x1="0" y1="0" x2="533.7549974365235" y2="0" fill="rgb(0, 0, 0)" stroke="rgb(204, 204, 204)" stroke-width="1px"></line></g></g></g></g></svg>