<svg viewBox="0 0 585.1666870117188 400" xmlns="http://www.w3.org/2000/svg"><g><g><g><g><g><line x1="51.41200256347656" y1="377.98199939727783" x2="46.41200256347656" y2="377.98199939727783" style="visibility: inherit;" fill="rgb(0, 0, 0)" stroke="rgb(204, 204, 204)" stroke-width="1px"></line><line x1="51.41200256347656" y1="348.9064609821026" x2="46.41200256347656" y2="348.9064609821026" style="visibility: inherit;" fill="rgb(0, 0, 0)" stroke="rgb(204, 204, 204)" stroke-width="1px"></line><line x1="51.41200256347656" y1="319.83092256692737" x2="46.41200256347656" y2="319.83092256692737" style="visibility: inherit;" fill="rgb(0, 0, 0)" stroke="rgb(204, 204, 204)" stroke-width="1px"></line><line x1="51.41200256347656" y1="290.7553841517522" x2="46.41200256347656" y2="290.7553841517522" style="visibility: inherit;" fill="rgb(0, 0, 0)" stroke="rgb(204, 204, 204)" stroke-width="1px"></line><line x1="51.41200256347656" y1="261.67984573657697" x2="46.41200256347656" y2="261.67984573657697" style="visibility: inherit;" fill="rgb(0, 0, 0)" stroke="rgb(204, 204, 204)" stroke-width="1px"></line><line x1="51.41200256347656" y1="232.60430732140176" x2="46.41200256347656" y2="232.60430732140176" style="visibility: inherit;" fill="rgb(0, 0, 0)" stroke="rgb(204, 204, 204)" stroke-width="1px"></line><line x1="51.41200256347656" y1="203.52876890622653" x2="46.41200256347656" y2="203.52876890622653" style="visibility: inherit;" fill="rgb(0, 0, 0)" stroke="rgb(204, 204, 204)" stroke-width="1px"></line><line x1="51.41200256347656" y1="174.45323049105133" x2="46.41200256347656" y2="174.45323049105133" style="visibility: inherit;" fill="rgb(0, 0, 0)" stroke="rgb(204, 204, 204)" stroke-width="1px"></line><line x1="51.41200256347656" y1="145.37769207587613" x2="46.41200256347656" y2="145.37769207587613" style="visibility: inherit;" fill="rgb(0, 0, 0)" stroke="rgb(204, 204, 204)" stroke-width="1px"></line><line x1="51.41200256347656" y1="116.30215366070087" x2="46.41200256347656" y2="116.30215366070087" style="visibility: inherit;" fill="rgb(0, 0, 0)" stroke="rgb(204, 204, 204)" stroke-width="1px"></line><line x1="51.41200256347656" y1="87.2266152455257" x2="46.41200256347656" y2="87.2266152455257" style="visibility: inherit;" fill="rgb(0, 0, 0)" stroke="rgb(204, 204, 204)" stroke-width="1px"></line><line x1="51.41200256347656" y1="58.15107683035046" x2="46.41200256347656" y2="58.15107683035046" style="visibility: inherit;" fill="rgb(0, 0, 0)" stroke="rgb(204, 204, 204)" stroke-width="1px"></line><line x1="51.41200256347656" y1="29.075538415175174" x2="46.41200256347656" y2="29.075538415175174" style="visibility: inherit;" fill="rgb(0, 0, 0)" stroke="rgb(204, 204, 204)" stroke-width="1px"></line><line x1="51.41200256347656" y1="0" x2="46.41200256347656" y2="0" style="visibility: inherit;" fill="rgb(0, 0, 0)" stroke="rgb(204, 204, 204)" stroke-width="1px"></line></g><g transform="translate(41.41200256347656, 0)"><text style="text-anchor: end; visibility: hidden; font-family: &quot;Helvetica Neue&quot;, sans-serif; font-size: 12px; font-weight: 200;" x="0" y="377.98199939727783" dx="0em" dy="0.3em" fill="rgb(50, 49, 63)" stroke="none" stroke-width="1px">-0.1</text><text style="text-anchor: end; visibility: inherit; font-family: &quot;Helvetica Neue&quot;, sans-serif; font-size: 12px; font-weight: 200;" x="0" y="348.9064609821026" dx="0em" dy="0.3em" fill="rgb(50, 49, 63)" stroke="none" stroke-width="1px">0</text><text style="text-anchor: end; visibility: inherit; font-family: &quot;Helvetica Neue&quot;, sans-serif; font-size: 12px; font-weight: 200;" x="0" y="319.83092256692737" dx="0em" dy="0.3em" fill="rgb(50, 49, 63)" stroke="none" stroke-width="1px">0.1</text><text style="text-anchor: end; visibility: inherit; font-family: &quot;Helvetica Neue&quot;, sans-serif; font-size: 12px; font-weight: 200;" x="0" y="290.7553841517522" dx="0em" dy="0.3em" fill="rgb(50, 49, 63)" stroke="none" stroke-width="1px">0.2</text><text style="text-anchor: end; visibility: inherit; font-family: &quot;Helvetica Neue&quot;, sans-serif; font-size: 12px; font-weight: 200;" x="0" y="261.67984573657697" dx="0em" dy="0.3em" fill="rgb(50, 49, 63)" stroke="none" stroke-width="1px">0.3</text><text style="text-anchor: end; visibility: inherit; font-family: &quot;Helvetica Neue&quot;, sans-serif; font-size: 12px; font-weight: 200;" x="0" y="232.60430732140176" dx="0em" dy="0.3em" fill="rgb(50, 49, 63)" stroke="none" stroke-width="1px">0.4</text><text style="text-anchor: end; visibility: inherit; font-family: &quot;Helvetica Neue&quot;, sans-serif; font-size: 12px; font-weight: 200;" x="0" y="203.52876890622653" dx="0em" dy="0.3em" fill="rgb(50, 49, 63)" stroke="none" stroke-width="1px">0.5</text><text style="text-anchor: end; visibility: inherit; font-family: &quot;Helvetica Neue&quot;, sans-serif; font-size: 12px; font-weight: 200;" x="0" y="174.45323049105133" dx="0em" dy="0.3em" fill="rgb(50, 49, 63)" stroke="none" stroke-width="1px">0.6</text><text style="text-anchor: end; visibility: inherit; font-family: &quot;Helvetica Neue&quot;, sans-serif; font-size: 12px; font-weight: 200;" x="0" y="145.37769207587613" dx="0em" dy="0.3em" fill="rgb(50, 49, 63)" stroke="none" stroke-width="1px">0.7</text><text style="text-anchor: end; visibility: inherit; font-family: &quot;Helvetica Neue&quot;, sans-serif; font-size: 12px; font-weight: 200;" x="0" y="116.30215366070087" dx="0em" dy="0.3em" fill="rgb(50, 49, 63)" stroke="none" stroke-width="1px">0.8</text><text style="text-anchor: end; visibility: inherit; font-family: &quot;Helvetica Neue&quot;, sans-serif; font-size: 12px; font-weight: 200;" x="0" y="87.2266152455257" dx="0em" dy="0.3em" fill="rgb(50, 49, 63)" stroke="none" stroke-width="1px">0.9</text><text style="text-anchor: end; visibility: inherit; font-family: &quot;Helvetica Neue&quot;, sans-serif; font-size: 12px; font-weight: 200;" x="0" y="58.15107683035046" dx="0em" dy="0.3em" fill="rgb(50, 49, 63)" stroke="none" stroke-width="1px">1</text><text style="text-anchor: end; visibility: inherit; font-family: &quot;Helvetica Neue&quot;, sans-serif; font-size: 12px; font-weight: 200;" x="0" y="29.075538415175174" dx="0em" dy="0.3em" fill="rgb(50, 49, 63)" stroke="none" stroke-width="1px">1.1</text><text style="text-anchor: end; visibility: hidden; font-family: &quot;Helvetica Neue&quot;, sans-serif; font-size: 12px; font-weight: 200;" x="0" y="0" dx="0em" dy="0.3em" fill="rgb(50, 49, 63)" stroke="none" stroke-width="1px">1.2</text></g><line x1="51.41200256347656" y1="0" x2="51.41200256347656" y2="377.98199939727783" fill="rgb(0, 0, 0)" stroke="rgb(204, 204, 204)" stroke-width="1px"></line></g></g><g transform="translate(51, 0)" clip-path="url(#clip_0)"><clipPath id="clip_0"><rect width="533" height="377"></rect></clipPath><g><g><g><line x1="0" y1="0" x2="0" y2="377.98199939727783" fill="rgb(0, 0, 0)" stroke="rgb(60, 60, 60)" stroke-width="1px" opacity="0.25"></line><line x1="44.479583119710284" y1="0" x2="44.479583119710284" y2="377.98199939727783" fill="rgb(0, 0, 0)" stroke="rgb(60, 60, 60)" stroke-width="1px" opacity="0.25"></line><line x1="88.95916623942057" y1="0" x2="88.95916623942057" y2="377.98199939727783" fill="rgb(0, 0, 0)" stroke="rgb(60, 60, 60)" stroke-width="1px" opacity="0.25"></line><line x1="133.43874935913087" y1="0" x2="133.43874935913087" y2="377.98199939727783" fill="rgb(0, 0, 0)" stroke="rgb(60, 60, 60)" stroke-width="1px" opacity="0.25"></line><line x1="177.91833247884114" y1="0" x2="177.91833247884114" y2="377.98199939727783" fill="rgb(0, 0, 0)" stroke="rgb(60, 60, 60)" stroke-width="1px" opacity="0.25"></line><line x1="222.39791559855146" y1="0" x2="222.39791559855146" y2="377.98199939727783" fill="rgb(0, 0, 0)" stroke="rgb(60, 60, 60)" stroke-width="1px" opacity="0.25"></line><line x1="266.87749871826173" y1="0" x2="266.87749871826173" y2="377.98199939727783" fill="rgb(0, 0, 0)" stroke="rgb(60, 60, 60)" stroke-width="1px" opacity="0.25"></line><line x1="311.35708183797203" y1="0" x2="311.35708183797203" y2="377.98199939727783" fill="rgb(0, 0, 0)" stroke="rgb(60, 60, 60)" stroke-width="1px" opacity="0.25"></line><line x1="355.8366649576823" y1="0" x2="355.8366649576823" y2="377.98199939727783" fill="rgb(0, 0, 0)" stroke="rgb(60, 60, 60)" stroke-width="1px" opacity="0.25"></line><line x1="400.31624807739263" y1="0" x2="400.31624807739263" y2="377.98199939727783" fill="rgb(0, 0, 0)" stroke="rgb(60, 60, 60)" stroke-width="1px" opacity="0.25"></line><line x1="444.7958311971029" y1="0" x2="444.7958311971029" y2="377.98199939727783" fill="rgb(0, 0, 0)" stroke="rgb(60, 60, 60)" stroke-width="1px" opacity="0.25"></line><line x1="489.27541431681317" y1="0" x2="489.27541431681317" y2="377.98199939727783" fill="rgb(0, 0, 0)" stroke="rgb(60, 60, 60)" stroke-width="1px" opacity="0.25"></line><line x1="533.7549974365235" y1="0" x2="533.7549974365235" y2="377.98199939727783" fill="rgb(0, 0, 0)" stroke="rgb(60, 60, 60)" stroke-width="1px" opacity="0.25"></line></g><g><line x1="0" y1="377.98199939727783" x2="533.7549974365235" y2="377.98199939727783" fill="rgb(0, 0, 0)" stroke="rgb(60, 60, 60)" stroke-width="1px" opacity="0.25"></line><line x1="0" y1="348.9064609821026" x2="533.7549974365235" y2="348.9064609821026" fill="rgb(0, 0, 0)" stroke="rgb(60, 60, 60)" stroke-width="1px" opacity="0.25"></line><line x1="0" y1="319.83092256692737" x2="533.7549974365235" y2="319.83092256692737" fill="rgb(0, 0, 0)" stroke="rgb(60, 60, 60)" stroke-width="1px" opacity="0.25"></line><line x1="0" y1="290.7553841517522" x2="533.7549974365235" y2="290.7553841517522" fill="rgb(0, 0, 0)" stroke="rgb(60, 60, 60)" stroke-width="1px" opacity="0.25"></line><line x1="0" y1="261.67984573657697" x2="533.7549974365235" y2="261.67984573657697" fill="rgb(0, 0, 0)" stroke="rgb(60, 60, 60)" stroke-width="1px" opacity="0.25"></line><line x1="0" y1="232.60430732140176" x2="533.7549974365235" y2="232.60430732140176" fill="rgb(0, 0, 0)" stroke="rgb(60, 60, 60)" stroke-width="1px" opacity="0.25"></line><line x1="0" y1="203.52876890622653" x2="533.7549974365235" y2="203.52876890622653" fill="rgb(0, 0, 0)" stroke="rgb(60, 60, 60)" stroke-width="1px" opacity="0.25"></line><line x1="0" y1="174.45323049105133" x2="533.7549974365235" y2="174.45323049105133" fill="rgb(0, 0, 0)" stroke="rgb(60, 60, 60)" stroke-width="1px" opacity="0.25"></line><line x1="0" y1="145.37769207587613" x2="533.7549974365235" y2="145.37769207587613" fill="rgb(0, 0, 0)" stroke="rgb(60, 60, 60)" stroke-width="1px" opacity="0.25"></line><line x1="0" y1="116.30215366070087" x2="533.7549974365235" y2="116.30215366070087" fill="rgb(0, 0, 0)" stroke="rgb(60, 60, 60)" stroke-width="1px" opacity="0.25"></line><line x1="0" y1="87.2266152455257" x2="533.7549974365235" y2="87.2266152455257" fill="rgb(0, 0, 0)" stroke="rgb(60, 60, 60)" stroke-width="1px" opacity="0.25"></line><line x1="0" y1="58.15107683035046" x2="533.7549974365235" y2="58.15107683035046" fill="rgb(0, 0, 0)" stroke="rgb(60, 60, 60)" stroke-width="1px" opacity="0.25"></line><line x1="0" y1="29.075538415175174" x2="533.7549974365235" y2="29.075538415175174" fill="rgb(0, 0, 0)" stroke="rgb(60, 60, 60)" stroke-width="1px" opacity="0.25"></line><line x1="0" y1="0" x2="533.7549974365235" y2="0" fill="rgb(0, 0, 0)" stroke="rgb(60, 60, 60)" stroke-width="1px" opacity="0.25"></line></g></g></g><g><g><line x1="0" y1="348.9064609821026" x2="533.7549974365235" y2="348.9064609821026" fill="rgb(0, 0, 0)" stroke="rgb(153, 153, 153)" stroke-width="1.5px"></line></g></g><g><g><line x1="44.479583119710284" y1="0" x2="44.479583119710284" y2="377.98199939727783" fill="rgb(0, 0, 0)" stroke="rgb(153, 153, 153)" stroke-width="1.5px"></line></g></g><g><g><g><g><g><path style="fill: none;" stroke="rgb(0, 153, 136)" stroke-width="2px" d="M53.37549974365235,-17.18454584536414L62.271416367594405,27.050995021608344L71.16733299153645,65.58059302755862L80.06324961547851,97.84713333833798L88.95916623942057,124.71937064329671L97.85508286336263,146.63990053110817L106.7509994873047,164.62975015794555L115.64691611124675,179.51435828125818L124.54283273518881,191.78989694585385L133.43874935913087,201.8890098833244L142.3346659830729,210.47814469145285L151.23058260701498,217.32791853183323L160.12649923095702,223.24716087600964L169.0224158548991,228.3129853336029L177.91833247884114,232.65213993321814L186.8142491027832,236.18476361960802L195.71016572672525,239.3845233818904L204.60608235066735,242.07053924101243L213.5019989746094,244.64684718631625L222.39791559855146,246.89905282364194L231.2938322224935,249.09807432597128L240.18974884643558,250.94698505229644L249.08566547037762,252.40844576359677L257.98158209431966,254.02440474218474L266.87749871826173,255.33801337655976L275.7734153422038,256.46808143800524L284.6693319661458,257.64524000321956L293.56524859008795,258.7530795327333L302.46116521402996,259.5850904315752L311.35708183797203,261.3268049268486L320.25299846191405,263.1241900169894L329.1489150858562,264.6559869827803L338.0448317097982,265.87190665724364L346.94074833374026,266.80878514218944L355.8366649576823,267.5258908036301L364.7325815816244,268.0828981346607L373.6284982055664,268.51838122184563L382.5244148295085,268.8620180659967L391.4203314534505,269.1406133959055L400.31624807739263,269.37623249280205L409.2121647013347,269.5835980050997L418.1080813252767,269.76960945234833L427.0039979492188,269.9400148047216L435.8999145731608,270.0982281835701L444.7958311971029,270.24021163526675L453.69174782104494,270.3709424562165L462.587664444987,270.4971885112977L471.483581068929,270.6213710663029L480.37949769287115,270.73784089451215" fill="none"></path></g><g><path style="fill: none;" stroke="rgb(238, 51, 119)" stroke-width="2px" d="M71.16733299153645,-0.6840271209352409L80.06324961547851,43.55841347054371L88.95916623942057,80.26256822456713L97.85508286336263,109.36310128575741L106.7509994873047,133.13387016351496L115.64691611124675,153.00911753108616L124.54283273518881,168.528306597966L133.43874935913087,180.8905554019761L142.3346659830729,191.19785353392692L151.23058260701498,199.66175884238024L160.12649923095702,207.04886039549925L169.0224158548991,213.21269579133036L177.91833247884114,218.78376997708338L186.8142491027832,223.39163760996644L195.71016572672525,227.47292071626362L204.60608235066735,230.68900301435954L213.5019989746094,233.3947965450142L222.39791559855146,236.10836561421496L231.2938322224935,238.78798575157148L240.18974884643558,241.15429160749315L249.08566547037762,243.3796588940425L257.98158209431966,244.8324802180655L266.87749871826173,246.73232066801341L275.7734153422038,247.7119271626948L284.6693319661458,249.01101941438245L293.56524859008795,250.2742448182462L302.46116521402996,251.6421916400559L311.35708183797203,251.77582408717728L320.25299846191405,252.98744119279715L329.1489150858562,254.14046473109863L338.0448317097982,255.05652689889044L346.94074833374026,256.2302377993589L355.8366649576823,257.0128599955502L364.7325815816244,257.49349355118756L373.6284982055664,258.34658730254466L382.5244148295085,259.0389532340463L391.4203314534505,259.3382904981677L400.31624807739263,259.3385408427369L409.2121647013347,259.4928793637996L418.1080813252767,260.11782989271893L427.0039979492188,260.2421753110339L435.8999145731608,260.2046793216313L444.7958311971029,260.57175114646753L453.69174782104494,260.67542669731426L462.587664444987,260.9806038346976L471.483581068929,261.0962845741967L480.37949769287115,261.5537477618899" fill="none"></path></g></g></g></g><g opacity="0.2"><g><g><g><path style="fill: none;" stroke="rgb(0, 153, 136)" stroke-width="2px" d="M44.479583119710284,-66.15205177879972L53.37549974365235,12.195957714697215L62.271416367594405,69.51711425390181L71.16733299153645,110.89140028255616L80.06324961547851,139.9743283680916L88.95916623942057,161.89334884148434L97.85508286336263,177.98660899915672L106.7509994873047,190.85912361643085L115.64691611124675,201.46626407686247L124.54283273518881,210.0176412224003L133.43874935913087,216.94608107848202L142.3346659830729,223.31510521131588L151.23058260701498,227.58021359235187L160.12649923095702,232.11442798031464L169.0224158548991,235.90576733350665L177.91833247884114,239.15781152463325L186.8142491027832,241.48220426124067L195.71016572672525,244.18335060665697L204.60608235066735,246.09915384221404L213.5019989746094,248.51107361952108L222.39791559855146,250.27723776332067L231.2938322224935,252.39653421972616L240.18974884643558,253.7203146382671L249.08566547037762,254.60061951815183L257.98158209431966,256.44833172452195L266.87749871826173,257.3084207261815L275.7734153422038,258.163180638639L284.6693319661458,259.4109760438253L293.56524859008795,260.4148378065272L302.46116521402996,260.83310631999825L311.35708183797203,263.93937609218716L320.25299846191405,265.8202672945813L329.1489150858562,266.95368224860084L338.0448317097982,267.69578608184486L346.94074833374026,268.214102829344L355.8366649576823,268.60154927729985L364.7325815816244,268.91840912258874L373.6284982055664,269.17160584858055L382.5244148295085,269.3774733303093L391.4203314534505,269.5585063898377L400.31624807739263,269.72966113767444L409.2121647013347,269.89464627329676L418.1080813252767,270.0486266230871L427.0039979492188,270.1956228332077L435.8999145731608,270.3355482518017L444.7958311971029,270.4531868127895L453.69174782104494,270.56703868762884L462.587664444987,270.6865575939124L471.483581068929,270.80764489880664L480.37949769287115,270.91254563682367" fill="none"></path></g><g><path style="fill: none;" stroke="rgb(238, 51, 119)" stroke-width="2px" d="M53.37549974365235,-65.4550242415383L62.271416367594405,7.026411911617458L71.16733299153645,61.76620963244579L80.06324961547851,101.3213439067789L88.95916623942057,131.03762774509306L97.85508286336263,150.97732917178843L106.7509994873047,167.7918793866667L115.64691611124675,182.32124683020498L124.54283273518881,191.57249369391204L133.43874935913087,199.3218039212003L142.3346659830729,206.60270887058942L151.23058260701498,212.32998068570672L160.12649923095702,218.11504062422026L169.0224158548991,222.45120352795072L177.91833247884114,227.13645210256777L186.8142491027832,230.3014891641364L195.71016572672525,233.5938091383708L204.60608235066735,235.5126365237352L213.5019989746094,237.45323952074978L222.39791559855146,240.17857039943934L231.2938322224935,242.80732778356423L240.18974884643558,244.70370367279435L249.08566547037762,246.7176834622695L257.98158209431966,247.0117018780678L266.87749871826173,249.58207324098353L275.7734153422038,249.18133439817237L284.6693319661458,250.95965579750128L293.56524859008795,252.1690817604326L302.46116521402996,253.6941111167271L311.35708183797203,251.9762727135454L320.25299846191405,254.8048666101557L329.1489150858562,255.86999990090303L338.0448317097982,256.43062008496247L346.94074833374026,257.99080409961937L355.8366649576823,258.1867932696564L364.7325815816244,258.2144438772074L373.6284982055664,259.6262279216611L382.5244148295085,260.07750212744236L391.4203314534505,259.78729639334955L400.31624807739263,259.33891635959026L409.2121647013347,259.72438714520786L418.1080813252767,261.05525568564684L427.0039979492188,260.4286934384526L435.8999145731608,260.1484353375371L444.7958311971029,261.1223588836647L453.69174782104494,260.8309400235746L462.587664444987,261.4383695407555L471.483581068929,261.2698056834414L480.37949769287115,262.23994254342045" fill="none"></path></g></g></g></g></g></g><g transform="translate(51, 377)" clip-path="url(#clip_1)"><clipPath id="clip_1"><rect width="533" height="22"></rect></clipPath><g><g><line x1="0" y1="0" x2="0" y2="5" style="visibility: inherit;" fill="rgb(0, 0, 0)" stroke="rgb(204, 204, 204)" stroke-width="1px"></line><line x1="44.479583119710284" y1="0" x2="44.479583119710284" y2="5" style="visibility: inherit;" fill="rgb(0, 0, 0)" stroke="rgb(204, 204, 204)" stroke-width="1px"></line><line x1="88.95916623942057" y1="0" x2="88.95916623942057" y2="5" style="visibility: inherit;" fill="rgb(0, 0, 0)" stroke="rgb(204, 204, 204)" stroke-width="1px"></line><line x1="133.43874935913087" y1="0" x2="133.43874935913087" y2="5" style="visibility: inherit;" fill="rgb(0, 0, 0)" stroke="rgb(204, 204, 204)" stroke-width="1px"></line><line x1="177.91833247884114" y1="0" x2="177.91833247884114" y2="5" style="visibility: inherit;" fill="rgb(0, 0, 0)" stroke="rgb(204, 204, 204)" stroke-width="1px"></line><line x1="222.39791559855146" y1="0" x2="222.39791559855146" y2="5" style="visibility: inherit;" fill="rgb(0, 0, 0)" stroke="rgb(204, 204, 204)" stroke-width="1px"></line><line x1="266.87749871826173" y1="0" x2="266.87749871826173" y2="5" style="visibility: inherit;" fill="rgb(0, 0, 0)" stroke="rgb(204, 204, 204)" stroke-width="1px"></line><line x1="311.35708183797203" y1="0" x2="311.35708183797203" y2="5" style="visibility: inherit;" fill="rgb(0, 0, 0)" stroke="rgb(204, 204, 204)" stroke-width="1px"></line><line x1="355.8366649576823" y1="0" x2="355.8366649576823" y2="5" style="visibility: inherit;" fill="rgb(0, 0, 0)" stroke="rgb(204, 204, 204)" stroke-width="1px"></line><line x1="400.31624807739263" y1="0" x2="400.31624807739263" y2="5" style="visibility: inherit;" fill="rgb(0, 0, 0)" stroke="rgb(204, 204, 204)" stroke-width="1px"></line><line x1="444.7958311971029" y1="0" x2="444.7958311971029" y2="5" style="visibility: inherit;" fill="rgb(0, 0, 0)" stroke="rgb(204, 204, 204)" stroke-width="1px"></line><line x1="489.27541431681317" y1="0" x2="489.27541431681317" y2="5" style="visibility: inherit;" fill="rgb(0, 0, 0)" stroke="rgb(204, 204, 204)" stroke-width="1px"></line><line x1="533.7549974365235" y1="0" x2="533.7549974365235" y2="5" style="visibility: inherit;" fill="rgb(0, 0, 0)" stroke="rgb(204, 204, 204)" stroke-width="1px"></line></g><g transform="translate(0, 8)"><text style="text-anchor: middle; visibility: hidden; font-family: &quot;Helvetica Neue&quot;, sans-serif; font-size: 12px; font-weight: 200;" x="0" y="0" dx="0em" dy="0.95em" fill="rgb(50, 49, 63)" stroke="none" stroke-width="1px">-5</text><text style="text-anchor: middle; visibility: inherit; font-family: &quot;Helvetica Neue&quot;, sans-serif; font-size: 12px; font-weight: 200;" x="44.479583119710284" y="0" dx="0em" dy="0.95em" fill="rgb(50, 49, 63)" stroke="none" stroke-width="1px">0</text><text style="text-anchor: middle; visibility: inherit; font-family: &quot;Helvetica Neue&quot;, sans-serif; font-size: 12px; font-weight: 200;" x="88.95916623942057" y="0" dx="0em" dy="0.95em" fill="rgb(50, 49, 63)" stroke="none" stroke-width="1px">5</text><text style="text-anchor: middle; visibility: inherit; font-family: &quot;Helvetica Neue&quot;, sans-serif; font-size: 12px; font-weight: 200;" x="133.43874935913087" y="0" dx="0em" dy="0.95em" fill="rgb(50, 49, 63)" stroke="none" stroke-width="1px">10</text><text style="text-anchor: middle; visibility: inherit; font-family: &quot;Helvetica Neue&quot;, sans-serif; font-size: 12px; font-weight: 200;" x="177.91833247884114" y="0" dx="0em" dy="0.95em" fill="rgb(50, 49, 63)" stroke="none" stroke-width="1px">15</text><text style="text-anchor: middle; visibility: inherit; font-family: &quot;Helvetica Neue&quot;, sans-serif; font-size: 12px; font-weight: 200;" x="222.39791559855146" y="0" dx="0em" dy="0.95em" fill="rgb(50, 49, 63)" stroke="none" stroke-width="1px">20</text><text style="text-anchor: middle; visibility: inherit; font-family: &quot;Helvetica Neue&quot;, sans-serif; font-size: 12px; font-weight: 200;" x="266.87749871826173" y="0" dx="0em" dy="0.95em" fill="rgb(50, 49, 63)" stroke="none" stroke-width="1px">25</text><text style="text-anchor: middle; visibility: inherit; font-family: &quot;Helvetica Neue&quot;, sans-serif; font-size: 12px; font-weight: 200;" x="311.35708183797203" y="0" dx="0em" dy="0.95em" fill="rgb(50, 49, 63)" stroke="none" stroke-width="1px">30</text><text style="text-anchor: middle; visibility: inherit; font-family: &quot;Helvetica Neue&quot;, sans-serif; font-size: 12px; font-weight: 200;" x="355.8366649576823" y="0" dx="0em" dy="0.95em" fill="rgb(50, 49, 63)" stroke="none" stroke-width="1px">35</text><text style="text-anchor: middle; visibility: inherit; font-family: &quot;Helvetica Neue&quot;, sans-serif; font-size: 12px; font-weight: 200;" x="400.31624807739263" y="0" dx="0em" dy="0.95em" fill="rgb(50, 49, 63)" stroke="none" stroke-width="1px">40</text><text style="text-anchor: middle; visibility: inherit; font-family: &quot;Helvetica Neue&quot;, sans-serif; font-size: 12px; font-weight: 200;" x="444.7958311971029" y="0" dx="0em" dy="0.95em" fill="rgb(50, 49, 63)" stroke="none" stroke-width="1px">45</text><text style="text-anchor: middle; visibility: inherit; font-family: &quot;Helvetica Neue&quot;, sans-serif; font-size: 12px; font-weight: 200;" x="489.27541431681317" y="0" dx="0em" dy="0.95em" fill="rgb(50, 49, 63)" stroke="none" stroke-width="1px">50</text><text style="text-anchor: middle; visibility: hidden; font-family: &quot;Helvetica Neue&quot;, sans-serif; font-size: 12px; font-weight: 200;" x="533.7549974365235" y="0" dx="0em" dy="0.95em" fill="rgb(50, 49, 63)" stroke="none" stroke-width="1px">55</text></g><line x1="0" y1="0" x2="533.7549974365235" y2="0" fill="rgb(0, 0, 0)" stroke="rgb(204, 204, 204)" stroke-width="1px"></line></g></g></g></g></svg>