<svg viewBox="0 0 848.36669921875 400" xmlns="http://www.w3.org/2000/svg"><g><g><g><g><g><line x1="51.41200256347656" y1="377.98199939727783" x2="46.41200256347656" y2="377.98199939727783" style="visibility: inherit;" fill="rgb(0, 0, 0)" stroke="rgb(204, 204, 204)" stroke-width="1px"></line><line x1="51.41200256347656" y1="335.98399946424695" x2="46.41200256347656" y2="335.98399946424695" style="visibility: inherit;" fill="rgb(0, 0, 0)" stroke="rgb(204, 204, 204)" stroke-width="1px"></line><line x1="51.41200256347656" y1="293.98599953121607" x2="46.41200256347656" y2="293.98599953121607" style="visibility: inherit;" fill="rgb(0, 0, 0)" stroke="rgb(204, 204, 204)" stroke-width="1px"></line><line x1="51.41200256347656" y1="251.9879995981852" x2="46.41200256347656" y2="251.9879995981852" style="visibility: inherit;" fill="rgb(0, 0, 0)" stroke="rgb(204, 204, 204)" stroke-width="1px"></line><line x1="51.41200256347656" y1="209.98999966515433" x2="46.41200256347656" y2="209.98999966515433" style="visibility: inherit;" fill="rgb(0, 0, 0)" stroke="rgb(204, 204, 204)" stroke-width="1px"></line><line x1="51.41200256347656" y1="167.99199973212347" x2="46.41200256347656" y2="167.99199973212347" style="visibility: inherit;" fill="rgb(0, 0, 0)" stroke="rgb(204, 204, 204)" stroke-width="1px"></line><line x1="51.41200256347656" y1="125.99399979909262" x2="46.41200256347656" y2="125.99399979909262" style="visibility: inherit;" fill="rgb(0, 0, 0)" stroke="rgb(204, 204, 204)" stroke-width="1px"></line><line x1="51.41200256347656" y1="83.99599986606177" x2="46.41200256347656" y2="83.99599986606177" style="visibility: inherit;" fill="rgb(0, 0, 0)" stroke="rgb(204, 204, 204)" stroke-width="1px"></line><line x1="51.41200256347656" y1="41.99799993303088" x2="46.41200256347656" y2="41.99799993303088" style="visibility: inherit;" fill="rgb(0, 0, 0)" stroke="rgb(204, 204, 204)" stroke-width="1px"></line><line x1="51.41200256347656" y1="0" x2="46.41200256347656" y2="0" style="visibility: inherit;" fill="rgb(0, 0, 0)" stroke="rgb(204, 204, 204)" stroke-width="1px"></line></g><g transform="translate(41.41200256347656, 0)"><text style="text-anchor: end; visibility: hidden; font-family: &quot;Helvetica Neue&quot;, sans-serif; font-size: 12px; font-weight: 200;" x="0" y="377.98199939727783" dx="0em" dy="0.3em" fill="rgb(50, 49, 63)" stroke="none" stroke-width="1px">-0.1</text><text style="text-anchor: end; visibility: inherit; font-family: &quot;Helvetica Neue&quot;, sans-serif; font-size: 12px; font-weight: 200;" x="0" y="335.98399946424695" dx="0em" dy="0.3em" fill="rgb(50, 49, 63)" stroke="none" stroke-width="1px">0</text><text style="text-anchor: end; visibility: inherit; font-family: &quot;Helvetica Neue&quot;, sans-serif; font-size: 12px; font-weight: 200;" x="0" y="293.98599953121607" dx="0em" dy="0.3em" fill="rgb(50, 49, 63)" stroke="none" stroke-width="1px">0.1</text><text style="text-anchor: end; visibility: inherit; font-family: &quot;Helvetica Neue&quot;, sans-serif; font-size: 12px; font-weight: 200;" x="0" y="251.9879995981852" dx="0em" dy="0.3em" fill="rgb(50, 49, 63)" stroke="none" stroke-width="1px">0.2</text><text style="text-anchor: end; visibility: inherit; font-family: &quot;Helvetica Neue&quot;, sans-serif; font-size: 12px; font-weight: 200;" x="0" y="209.98999966515433" dx="0em" dy="0.3em" fill="rgb(50, 49, 63)" stroke="none" stroke-width="1px">0.3</text><text style="text-anchor: end; visibility: inherit; font-family: &quot;Helvetica Neue&quot;, sans-serif; font-size: 12px; font-weight: 200;" x="0" y="167.99199973212347" dx="0em" dy="0.3em" fill="rgb(50, 49, 63)" stroke="none" stroke-width="1px">0.4</text><text style="text-anchor: end; visibility: inherit; font-family: &quot;Helvetica Neue&quot;, sans-serif; font-size: 12px; font-weight: 200;" x="0" y="125.99399979909262" dx="0em" dy="0.3em" fill="rgb(50, 49, 63)" stroke="none" stroke-width="1px">0.5</text><text style="text-anchor: end; visibility: inherit; font-family: &quot;Helvetica Neue&quot;, sans-serif; font-size: 12px; font-weight: 200;" x="0" y="83.99599986606177" dx="0em" dy="0.3em" fill="rgb(50, 49, 63)" stroke="none" stroke-width="1px">0.6</text><text style="text-anchor: end; visibility: inherit; font-family: &quot;Helvetica Neue&quot;, sans-serif; font-size: 12px; font-weight: 200;" x="0" y="41.99799993303088" dx="0em" dy="0.3em" fill="rgb(50, 49, 63)" stroke="none" stroke-width="1px">0.7</text><text style="text-anchor: end; visibility: hidden; font-family: &quot;Helvetica Neue&quot;, sans-serif; font-size: 12px; font-weight: 200;" x="0" y="0" dx="0em" dy="0.3em" fill="rgb(50, 49, 63)" stroke="none" stroke-width="1px">0.8</text></g><line x1="51.41200256347656" y1="0" x2="51.41200256347656" y2="377.98199939727783" fill="rgb(0, 0, 0)" stroke="rgb(204, 204, 204)" stroke-width="1px"></line></g></g><g transform="translate(51, 0)" clip-path="url(#clip_0)"><clipPath id="clip_0"><rect width="796" height="377"></rect></clipPath><g><g><g><line x1="0" y1="0" x2="0" y2="377.98199939727783" fill="rgb(0, 0, 0)" stroke="rgb(60, 60, 60)" stroke-width="1px" opacity="0.25"></line><line x1="56.92535695975167" y1="0" x2="56.92535695975167" y2="377.98199939727783" fill="rgb(0, 0, 0)" stroke="rgb(60, 60, 60)" stroke-width="1px" opacity="0.25"></line><line x1="113.85071391950333" y1="0" x2="113.85071391950333" y2="377.98199939727783" fill="rgb(0, 0, 0)" stroke="rgb(60, 60, 60)" stroke-width="1px" opacity="0.25"></line><line x1="170.776070879255" y1="0" x2="170.776070879255" y2="377.98199939727783" fill="rgb(0, 0, 0)" stroke="rgb(60, 60, 60)" stroke-width="1px" opacity="0.25"></line><line x1="227.70142783900667" y1="0" x2="227.70142783900667" y2="377.98199939727783" fill="rgb(0, 0, 0)" stroke="rgb(60, 60, 60)" stroke-width="1px" opacity="0.25"></line><line x1="284.62678479875837" y1="0" x2="284.62678479875837" y2="377.98199939727783" fill="rgb(0, 0, 0)" stroke="rgb(60, 60, 60)" stroke-width="1px" opacity="0.25"></line><line x1="341.55214175851" y1="0" x2="341.55214175851" y2="377.98199939727783" fill="rgb(0, 0, 0)" stroke="rgb(60, 60, 60)" stroke-width="1px" opacity="0.25"></line><line x1="398.4774987182617" y1="0" x2="398.4774987182617" y2="377.98199939727783" fill="rgb(0, 0, 0)" stroke="rgb(60, 60, 60)" stroke-width="1px" opacity="0.25"></line><line x1="455.40285567801334" y1="0" x2="455.40285567801334" y2="377.98199939727783" fill="rgb(0, 0, 0)" stroke="rgb(60, 60, 60)" stroke-width="1px" opacity="0.25"></line><line x1="512.3282126377651" y1="0" x2="512.3282126377651" y2="377.98199939727783" fill="rgb(0, 0, 0)" stroke="rgb(60, 60, 60)" stroke-width="1px" opacity="0.25"></line><line x1="569.2535695975167" y1="0" x2="569.2535695975167" y2="377.98199939727783" fill="rgb(0, 0, 0)" stroke="rgb(60, 60, 60)" stroke-width="1px" opacity="0.25"></line><line x1="626.1789265572684" y1="0" x2="626.1789265572684" y2="377.98199939727783" fill="rgb(0, 0, 0)" stroke="rgb(60, 60, 60)" stroke-width="1px" opacity="0.25"></line><line x1="683.10428351702" y1="0" x2="683.10428351702" y2="377.98199939727783" fill="rgb(0, 0, 0)" stroke="rgb(60, 60, 60)" stroke-width="1px" opacity="0.25"></line><line x1="740.0296404767718" y1="0" x2="740.0296404767718" y2="377.98199939727783" fill="rgb(0, 0, 0)" stroke="rgb(60, 60, 60)" stroke-width="1px" opacity="0.25"></line><line x1="796.9549974365234" y1="0" x2="796.9549974365234" y2="377.98199939727783" fill="rgb(0, 0, 0)" stroke="rgb(60, 60, 60)" stroke-width="1px" opacity="0.25"></line></g><g><line x1="0" y1="377.98199939727783" x2="796.9549974365234" y2="377.98199939727783" fill="rgb(0, 0, 0)" stroke="rgb(60, 60, 60)" stroke-width="1px" opacity="0.25"></line><line x1="0" y1="335.98399946424695" x2="796.9549974365234" y2="335.98399946424695" fill="rgb(0, 0, 0)" stroke="rgb(60, 60, 60)" stroke-width="1px" opacity="0.25"></line><line x1="0" y1="293.98599953121607" x2="796.9549974365234" y2="293.98599953121607" fill="rgb(0, 0, 0)" stroke="rgb(60, 60, 60)" stroke-width="1px" opacity="0.25"></line><line x1="0" y1="251.9879995981852" x2="796.9549974365234" y2="251.9879995981852" fill="rgb(0, 0, 0)" stroke="rgb(60, 60, 60)" stroke-width="1px" opacity="0.25"></line><line x1="0" y1="209.98999966515433" x2="796.9549974365234" y2="209.98999966515433" fill="rgb(0, 0, 0)" stroke="rgb(60, 60, 60)" stroke-width="1px" opacity="0.25"></line><line x1="0" y1="167.99199973212347" x2="796.9549974365234" y2="167.99199973212347" fill="rgb(0, 0, 0)" stroke="rgb(60, 60, 60)" stroke-width="1px" opacity="0.25"></line><line x1="0" y1="125.99399979909262" x2="796.9549974365234" y2="125.99399979909262" fill="rgb(0, 0, 0)" stroke="rgb(60, 60, 60)" stroke-width="1px" opacity="0.25"></line><line x1="0" y1="83.99599986606177" x2="796.9549974365234" y2="83.99599986606177" fill="rgb(0, 0, 0)" stroke="rgb(60, 60, 60)" stroke-width="1px" opacity="0.25"></line><line x1="0" y1="41.99799993303088" x2="796.9549974365234" y2="41.99799993303088" fill="rgb(0, 0, 0)" stroke="rgb(60, 60, 60)" stroke-width="1px" opacity="0.25"></line><line x1="0" y1="0" x2="796.9549974365234" y2="0" fill="rgb(0, 0, 0)" stroke="rgb(60, 60, 60)" stroke-width="1px" opacity="0.25"></line></g></g></g><g><g><line x1="0" y1="335.98399946424695" x2="796.9549974365234" y2="335.98399946424695" fill="rgb(0, 0, 0)" stroke="rgb(153, 153, 153)" stroke-width="1.5px"></line></g></g><g><g><line x1="56.92535695975167" y1="0" x2="56.92535695975167" y2="377.98199939727783" fill="rgb(0, 0, 0)" stroke="rgb(153, 153, 153)" stroke-width="1.5px"></line></g></g><g><g><g><g><g><path style="fill: none;" stroke="rgb(0, 119, 187)" stroke-width="2px" d="M56.92535695975167,241.20851071244755L68.310428351702,214.95976231885066L79.69549974365235,190.13951308835095L91.08057113560267,167.48040504065557L102.465642527553,147.54364557007068L113.85071391950333,129.22136470007624L125.23578531145367,114.1820536698279L136.620856703404,102.18612907341486L148.00592809535436,92.62988051139371L159.3909994873047,85.04264772697059L170.776070879255,78.88993818188737L182.16114227120534,74.20248169693974L193.54621366315567,70.05085033834314L204.931285055106,66.94689538050511L216.31635644705634,64.3577647754118L227.70142783900667,62.02088861433094L239.086499230957,59.27501867065615L250.47157062290734,57.179772459285175L261.8566420148577,55.58675076634148L273.241713406808,53.959005949263656L284.62678479875837,52.42241206535408L296.0118561907087,51.05249517600714L307.39692758265903,49.39059075130467L318.7819989746094,48.281459403254985L330.1670703665597,47.1680064482278L341.55214175851,46.10795307102643L352.93721315046037,44.96794216236407L364.32228454241067,44.003949792770584L375.70735593436103,42.80958844991869L387.09242732631134,42.03697863887459L398.4774987182617,41.293426425219764L409.862570110212,40.679295296773034L421.24764150216237,40.310816650986055L432.6327128941127,39.80974306754899L444.01778428606303,39.285115811323124L455.40285567801334,38.802339611621505L466.7879270699637,38.400687345095605L478.172998461914,37.9916961361418L489.5580698538644,37.74630141174151L500.9431412458147,37.655067865229L512.3282126377651,37.37633461261521L523.7132840297154,36.985111549581006L535.0983554216657,36.69437442416188L546.483426813616,36.351942312033316L557.8684982055663,35.922489920166186L569.2535695975167,35.66481848507442L580.638640989467,35.34222578712155L592.0237123814175,34.86868376914725L603.4087837733676,34.696555120673224L614.7938551653181,34.425288094687176L626.1789265572684,34.150531316794115L637.5639979492188,33.9856772500591L648.9490693411691,33.83076152231541L660.3341407331194,33.681818811069945L671.7192121250697,33.64844645892208L683.10428351702,33.51643649843453L694.4893549089704,33.381227234439166L705.8744263009207,33.13211183914012L717.259497692871,32.926649327361304L728.6445690848213,32.91535836949288" fill="none"></path></g><g><path style="fill: none;" stroke="rgb(255, 112, 67)" stroke-width="2px" d="M56.92535695975167,283.5837580735921L68.310428351702,259.5682290176228L79.69549974365235,234.36787618510394L91.08057113560267,208.78222608234097L102.465642527553,186.73704205764483L113.85071391950333,167.06424913033547L125.23578531145367,149.436429025976L136.620856703404,135.24848033071626L148.00592809535436,123.62487551570919L159.3909994873047,113.71534645511747L170.776070879255,105.33324116834183L182.16114227120534,99.26779637634746L193.54621366315567,93.87504662374567L204.931285055106,89.9969951674662L216.31635644705634,86.46253930916123L227.70142783900667,82.94200167766354L239.086499230957,79.13023267035453L250.47157062290734,76.43656031137652L261.8566420148577,73.98255439038871L273.241713406808,71.4687856282568L284.62678479875837,70.14014210336762L296.0118561907087,67.76286609107223L307.39692758265903,65.18735761460215L318.7819989746094,64.44407888181519L330.1670703665597,62.89683960638877L341.55214175851,61.381950280838964L352.93721315046037,59.706915008827025L364.32228454241067,58.84554301340705L375.70735593436103,58.11324810174739L387.09242732631134,56.84792027898038L398.4774987182617,55.729613773896915L409.862570110212,54.99877162848014L421.24764150216237,54.16524942773532L432.6327128941127,52.67159592567384L444.01778428606303,52.2183034520865L455.40285567801334,51.35978039185602L466.7879270699637,50.89254922247079L478.172998461914,50.25310057853949L489.5580698538644,49.64199376099566L500.9431412458147,49.15563303231045L512.3282126377651,49.03139589530946L523.7132840297154,48.74139165261994L535.0983554216657,47.909017540705975L546.483426813616,47.19412110012166L557.8684982055663,46.60956959482024L569.2535695975167,45.70820811877246L580.638640989467,45.26315655476213L592.0237123814175,44.75671231241415L603.4087837733676,44.28526646735088L614.7938551653181,44.14603692958286L626.1789265572684,43.88294423551338L637.5639979492188,43.62932329749333L648.9490693411691,43.548974725866L660.3341407331194,42.66283904528069L671.7192121250697,42.86135319431423L683.10428351702,42.62135174091679L694.4893549089704,42.9202504615256L705.8744263009207,42.070142526228324L717.259497692871,41.65584308662892L728.6445690848213,41.41922908151486" fill="none"></path></g></g></g></g><g opacity="0.2"><g><g><g><path style="fill: none;" stroke="rgb(0, 119, 187)" stroke-width="2px" d="M56.92535695975167,241.20851071244755L68.310428351702,199.21051328269255L79.69549974365235,166.3120738270712L91.08057113560267,140.83329397656584L102.465642527553,121.51421240527503L113.85071391950333,103.87505423576073L125.23578531145367,92.67559826759623L136.620856703404,84.69595585096857L148.00592809535436,78.53627008813328L159.3909994873047,73.7764912885599L170.776070879255,69.71667848699678L182.16114227120534,67.19680590071152L193.54621366315567,63.83695909715868L204.931285055106,62.29704391463952L216.31635644705634,60.47711229360584L227.70142783900667,58.51722251883223L239.086499230957,55.15737571527944L250.47157062290734,54.037435125014724L261.8566420148577,53.19746090774714L273.241713406808,51.51753750597072L284.62678479875837,50.11760550995018L296.0118561907087,48.99766491968546L307.39692758265903,46.897766925654594L318.7819989746094,46.61777551989877L330.1670703665597,45.49783492963405L341.55214175851,44.5178775258679L352.93721315046037,43.25792871634593L364.32228454241067,42.55796271833566L375.70735593436103,41.01804753581649L387.09242732631134,40.878064349317924L398.4774987182617,40.17809835130765L409.862570110212,39.75809872629452L421.24764150216237,39.75809872629452L432.6327128941127,39.05813272828425L444.01778428606303,38.49817494953123L455.40285567801334,38.0781753245181L466.7879270699637,37.798208951520905L478.172998461914,37.37820932650783L489.5580698538644,37.37820932650783L500.9431412458147,37.51821754576508L512.3282126377651,36.95823473425338L523.7132840297154,36.398276955500364L535.0983554216657,36.25826873624311L546.483426813616,35.83829414398866L557.8684982055663,35.27831133247696L569.2535695975167,35.27831133247696L580.638640989467,34.85833674022251L592.0237123814175,34.15837074221224L603.4087837733676,34.43836214796812L614.7938551653181,34.01838755571367L626.1789265572684,33.738396149957794L637.5639979492188,33.738396149957794L648.9490693411691,33.59838793070054L660.3341407331194,33.45840474420197L671.7192121250697,33.59838793070054L683.10428351702,33.3184215577034L694.4893549089704,33.17841333844615L705.8744263009207,32.7584387461917L717.259497692871,32.618455559693075L728.6445690848213,32.89842193269027" fill="none"></path></g><g><path style="fill: none;" stroke="rgb(255, 112, 67)" stroke-width="2px" d="M56.92535695975167,283.5837580735921L68.310428351702,245.15891158404128L79.69549974365235,210.1755374658858L91.08057113560267,178.6935015614918L102.465642527553,157.95484979500162L113.85071391950333,139.8496943064128L125.23578531145367,124.22836423162036L136.620856703404,114.56231492872007L148.00592809535436,106.4823161825729L159.3909994873047,99.00085069629375L170.776070879255,92.83610831620655L182.16114227120534,90.20263707106386L193.54621366315567,85.80353025844892L204.931285055106,84.1875154895643L216.31635644705634,81.1650101418868L227.70142783900667,77.663678186315L239.086499230957,73.4141921722877L250.47157062290734,72.39673569602962L261.8566420148577,70.3019193520094L273.241713406808,67.69836225348075L284.62678479875837,68.14724968200233L296.0118561907087,64.19703029790895L307.39692758265903,61.32414574881915L318.7819989746094,63.329169587479896L330.1670703665597,60.575991690363594L341.55214175851,59.10962275282532L352.93721315046037,57.19436638676541L364.32228454241067,57.55348634268614L375.70735593436103,57.01480640880504L387.09242732631134,54.94992924415749L398.4774987182617,54.05215438711434L409.862570110212,53.90250855576801L421.24764150216237,52.91496622612402L432.6327128941127,50.431115779568984L444.01778428606303,51.538364761186585L455.40285567801334,50.07199582364825L466.7879270699637,50.19170247562181L478.172998461914,49.293927618578664L489.5580698538644,48.72533353808353L500.9431412458147,48.426091940908236L512.3282126377651,48.84504019005709L523.7132840297154,48.30638528893468L535.0983554216657,46.66045637343598L546.483426813616,46.12177643955488L557.8684982055663,45.73274233702011L569.2535695975167,44.356165904841305L580.638640989467,44.59557920878842L592.0237123814175,43.99704594892057L603.4087837733676,43.57809769977172L614.7938551653181,43.937192622933765L626.1789265572684,43.48830519441219L637.5639979492188,43.24889189046502L648.9490693411691,43.428451868425384L660.3341407331194,41.33363552440517L671.7192121250697,43.15912441786418L683.10428351702,42.26134956082103L694.4893549089704,43.36859854243863L705.8744263009207,40.7949806232827L717.259497692871,41.03439392722987L728.6445690848213,41.064308073843904" fill="none"></path></g></g></g></g></g></g><g transform="translate(51, 377)" clip-path="url(#clip_1)"><clipPath id="clip_1"><rect width="796" height="22"></rect></clipPath><g><g><line x1="0" y1="0" x2="0" y2="5" style="visibility: inherit;" fill="rgb(0, 0, 0)" stroke="rgb(204, 204, 204)" stroke-width="1px"></line><line x1="56.92535695975167" y1="0" x2="56.92535695975167" y2="5" style="visibility: inherit;" fill="rgb(0, 0, 0)" stroke="rgb(204, 204, 204)" stroke-width="1px"></line><line x1="113.85071391950333" y1="0" x2="113.85071391950333" y2="5" style="visibility: inherit;" fill="rgb(0, 0, 0)" stroke="rgb(204, 204, 204)" stroke-width="1px"></line><line x1="170.776070879255" y1="0" x2="170.776070879255" y2="5" style="visibility: inherit;" fill="rgb(0, 0, 0)" stroke="rgb(204, 204, 204)" stroke-width="1px"></line><line x1="227.70142783900667" y1="0" x2="227.70142783900667" y2="5" style="visibility: inherit;" fill="rgb(0, 0, 0)" stroke="rgb(204, 204, 204)" stroke-width="1px"></line><line x1="284.62678479875837" y1="0" x2="284.62678479875837" y2="5" style="visibility: inherit;" fill="rgb(0, 0, 0)" stroke="rgb(204, 204, 204)" stroke-width="1px"></line><line x1="341.55214175851" y1="0" x2="341.55214175851" y2="5" style="visibility: inherit;" fill="rgb(0, 0, 0)" stroke="rgb(204, 204, 204)" stroke-width="1px"></line><line x1="398.4774987182617" y1="0" x2="398.4774987182617" y2="5" style="visibility: inherit;" fill="rgb(0, 0, 0)" stroke="rgb(204, 204, 204)" stroke-width="1px"></line><line x1="455.40285567801334" y1="0" x2="455.40285567801334" y2="5" style="visibility: inherit;" fill="rgb(0, 0, 0)" stroke="rgb(204, 204, 204)" stroke-width="1px"></line><line x1="512.3282126377651" y1="0" x2="512.3282126377651" y2="5" style="visibility: inherit;" fill="rgb(0, 0, 0)" stroke="rgb(204, 204, 204)" stroke-width="1px"></line><line x1="569.2535695975167" y1="0" x2="569.2535695975167" y2="5" style="visibility: inherit;" fill="rgb(0, 0, 0)" stroke="rgb(204, 204, 204)" stroke-width="1px"></line><line x1="626.1789265572684" y1="0" x2="626.1789265572684" y2="5" style="visibility: inherit;" fill="rgb(0, 0, 0)" stroke="rgb(204, 204, 204)" stroke-width="1px"></line><line x1="683.10428351702" y1="0" x2="683.10428351702" y2="5" style="visibility: inherit;" fill="rgb(0, 0, 0)" stroke="rgb(204, 204, 204)" stroke-width="1px"></line><line x1="740.0296404767718" y1="0" x2="740.0296404767718" y2="5" style="visibility: inherit;" fill="rgb(0, 0, 0)" stroke="rgb(204, 204, 204)" stroke-width="1px"></line><line x1="796.9549974365234" y1="0" x2="796.9549974365234" y2="5" style="visibility: inherit;" fill="rgb(0, 0, 0)" stroke="rgb(204, 204, 204)" stroke-width="1px"></line></g><g transform="translate(0, 8)"><text style="text-anchor: middle; visibility: hidden; font-family: &quot;Helvetica Neue&quot;, sans-serif; font-size: 12px; font-weight: 200;" x="0" y="0" dx="0em" dy="0.95em" fill="rgb(50, 49, 63)" stroke="none" stroke-width="1px">-5</text><text style="text-anchor: middle; visibility: inherit; font-family: &quot;Helvetica Neue&quot;, sans-serif; font-size: 12px; font-weight: 200;" x="56.92535695975167" y="0" dx="0em" dy="0.95em" fill="rgb(50, 49, 63)" stroke="none" stroke-width="1px">0</text><text style="text-anchor: middle; visibility: inherit; font-family: &quot;Helvetica Neue&quot;, sans-serif; font-size: 12px; font-weight: 200;" x="113.85071391950333" y="0" dx="0em" dy="0.95em" fill="rgb(50, 49, 63)" stroke="none" stroke-width="1px">5</text><text style="text-anchor: middle; visibility: inherit; font-family: &quot;Helvetica Neue&quot;, sans-serif; font-size: 12px; font-weight: 200;" x="170.776070879255" y="0" dx="0em" dy="0.95em" fill="rgb(50, 49, 63)" stroke="none" stroke-width="1px">10</text><text style="text-anchor: middle; visibility: inherit; font-family: &quot;Helvetica Neue&quot;, sans-serif; font-size: 12px; font-weight: 200;" x="227.70142783900667" y="0" dx="0em" dy="0.95em" fill="rgb(50, 49, 63)" stroke="none" stroke-width="1px">15</text><text style="text-anchor: middle; visibility: inherit; font-family: &quot;Helvetica Neue&quot;, sans-serif; font-size: 12px; font-weight: 200;" x="284.62678479875837" y="0" dx="0em" dy="0.95em" fill="rgb(50, 49, 63)" stroke="none" stroke-width="1px">20</text><text style="text-anchor: middle; visibility: inherit; font-family: &quot;Helvetica Neue&quot;, sans-serif; font-size: 12px; font-weight: 200;" x="341.55214175851" y="0" dx="0em" dy="0.95em" fill="rgb(50, 49, 63)" stroke="none" stroke-width="1px">25</text><text style="text-anchor: middle; visibility: inherit; font-family: &quot;Helvetica Neue&quot;, sans-serif; font-size: 12px; font-weight: 200;" x="398.4774987182617" y="0" dx="0em" dy="0.95em" fill="rgb(50, 49, 63)" stroke="none" stroke-width="1px">30</text><text style="text-anchor: middle; visibility: inherit; font-family: &quot;Helvetica Neue&quot;, sans-serif; font-size: 12px; font-weight: 200;" x="455.40285567801334" y="0" dx="0em" dy="0.95em" fill="rgb(50, 49, 63)" stroke="none" stroke-width="1px">35</text><text style="text-anchor: middle; visibility: inherit; font-family: &quot;Helvetica Neue&quot;, sans-serif; font-size: 12px; font-weight: 200;" x="512.3282126377651" y="0" dx="0em" dy="0.95em" fill="rgb(50, 49, 63)" stroke="none" stroke-width="1px">40</text><text style="text-anchor: middle; visibility: inherit; font-family: &quot;Helvetica Neue&quot;, sans-serif; font-size: 12px; font-weight: 200;" x="569.2535695975167" y="0" dx="0em" dy="0.95em" fill="rgb(50, 49, 63)" stroke="none" stroke-width="1px">45</text><text style="text-anchor: middle; visibility: inherit; font-family: &quot;Helvetica Neue&quot;, sans-serif; font-size: 12px; font-weight: 200;" x="626.1789265572684" y="0" dx="0em" dy="0.95em" fill="rgb(50, 49, 63)" stroke="none" stroke-width="1px">50</text><text style="text-anchor: middle; visibility: inherit; font-family: &quot;Helvetica Neue&quot;, sans-serif; font-size: 12px; font-weight: 200;" x="683.10428351702" y="0" dx="0em" dy="0.95em" fill="rgb(50, 49, 63)" stroke="none" stroke-width="1px">55</text><text style="text-anchor: middle; visibility: inherit; font-family: &quot;Helvetica Neue&quot;, sans-serif; font-size: 12px; font-weight: 200;" x="740.0296404767718" y="0" dx="0em" dy="0.95em" fill="rgb(50, 49, 63)" stroke="none" stroke-width="1px">60</text><text style="text-anchor: middle; visibility: hidden; font-family: &quot;Helvetica Neue&quot;, sans-serif; font-size: 12px; font-weight: 200;" x="796.9549974365234" y="0" dx="0em" dy="0.95em" fill="rgb(50, 49, 63)" stroke="none" stroke-width="1px">65</text></g><line x1="0" y1="0" x2="796.9549974365234" y2="0" fill="rgb(0, 0, 0)" stroke="rgb(204, 204, 204)" stroke-width="1px"></line></g></g></g></g></svg>