<svg viewBox="0 0 585.1666870117188 400" xmlns="http://www.w3.org/2000/svg"><g><g><g><g><g><line x1="51.41200256347656" y1="377.98199939727783" x2="46.41200256347656" y2="377.98199939727783" style="visibility: inherit;" fill="rgb(0, 0, 0)" stroke="rgb(204, 204, 204)" stroke-width="1px"></line><line x1="51.41200256347656" y1="343.6199994520708" x2="46.41200256347656" y2="343.6199994520708" style="visibility: inherit;" fill="rgb(0, 0, 0)" stroke="rgb(204, 204, 204)" stroke-width="1px"></line><line x1="51.41200256347656" y1="309.2579995068637" x2="46.41200256347656" y2="309.2579995068637" style="visibility: inherit;" fill="rgb(0, 0, 0)" stroke="rgb(204, 204, 204)" stroke-width="1px"></line><line x1="51.41200256347656" y1="274.8959995616566" x2="46.41200256347656" y2="274.8959995616566" style="visibility: inherit;" fill="rgb(0, 0, 0)" stroke="rgb(204, 204, 204)" stroke-width="1px"></line><line x1="51.41200256347656" y1="240.53399961644953" x2="46.41200256347656" y2="240.53399961644953" style="visibility: inherit;" fill="rgb(0, 0, 0)" stroke="rgb(204, 204, 204)" stroke-width="1px"></line><line x1="51.41200256347656" y1="206.17199967124245" x2="46.41200256347656" y2="206.17199967124245" style="visibility: inherit;" fill="rgb(0, 0, 0)" stroke="rgb(204, 204, 204)" stroke-width="1px"></line><line x1="51.41200256347656" y1="171.8099997260354" x2="46.41200256347656" y2="171.8099997260354" style="visibility: inherit;" fill="rgb(0, 0, 0)" stroke="rgb(204, 204, 204)" stroke-width="1px"></line><line x1="51.41200256347656" y1="137.44799978082835" x2="46.41200256347656" y2="137.44799978082835" style="visibility: inherit;" fill="rgb(0, 0, 0)" stroke="rgb(204, 204, 204)" stroke-width="1px"></line><line x1="51.41200256347656" y1="103.08599983562124" x2="46.41200256347656" y2="103.08599983562124" style="visibility: inherit;" fill="rgb(0, 0, 0)" stroke="rgb(204, 204, 204)" stroke-width="1px"></line><line x1="51.41200256347656" y1="68.72399989041418" x2="46.41200256347656" y2="68.72399989041418" style="visibility: inherit;" fill="rgb(0, 0, 0)" stroke="rgb(204, 204, 204)" stroke-width="1px"></line><line x1="51.41200256347656" y1="34.36199994520706" x2="46.41200256347656" y2="34.36199994520706" style="visibility: inherit;" fill="rgb(0, 0, 0)" stroke="rgb(204, 204, 204)" stroke-width="1px"></line><line x1="51.41200256347656" y1="0" x2="46.41200256347656" y2="0" style="visibility: inherit;" fill="rgb(0, 0, 0)" stroke="rgb(204, 204, 204)" stroke-width="1px"></line></g><g transform="translate(41.41200256347656, 0)"><text style="text-anchor: end; visibility: hidden; font-family: &quot;Helvetica Neue&quot;, sans-serif; font-size: 12px; font-weight: 200;" x="0" y="377.98199939727783" dx="0em" dy="0.3em" fill="rgb(50, 49, 63)" stroke="none" stroke-width="1px">-0.1</text><text style="text-anchor: end; visibility: inherit; font-family: &quot;Helvetica Neue&quot;, sans-serif; font-size: 12px; font-weight: 200;" x="0" y="343.6199994520708" dx="0em" dy="0.3em" fill="rgb(50, 49, 63)" stroke="none" stroke-width="1px">0</text><text style="text-anchor: end; visibility: inherit; font-family: &quot;Helvetica Neue&quot;, sans-serif; font-size: 12px; font-weight: 200;" x="0" y="309.2579995068637" dx="0em" dy="0.3em" fill="rgb(50, 49, 63)" stroke="none" stroke-width="1px">0.1</text><text style="text-anchor: end; visibility: inherit; font-family: &quot;Helvetica Neue&quot;, sans-serif; font-size: 12px; font-weight: 200;" x="0" y="274.8959995616566" dx="0em" dy="0.3em" fill="rgb(50, 49, 63)" stroke="none" stroke-width="1px">0.2</text><text style="text-anchor: end; visibility: inherit; font-family: &quot;Helvetica Neue&quot;, sans-serif; font-size: 12px; font-weight: 200;" x="0" y="240.53399961644953" dx="0em" dy="0.3em" fill="rgb(50, 49, 63)" stroke="none" stroke-width="1px">0.3</text><text style="text-anchor: end; visibility: inherit; font-family: &quot;Helvetica Neue&quot;, sans-serif; font-size: 12px; font-weight: 200;" x="0" y="206.17199967124245" dx="0em" dy="0.3em" fill="rgb(50, 49, 63)" stroke="none" stroke-width="1px">0.4</text><text style="text-anchor: end; visibility: inherit; font-family: &quot;Helvetica Neue&quot;, sans-serif; font-size: 12px; font-weight: 200;" x="0" y="171.8099997260354" dx="0em" dy="0.3em" fill="rgb(50, 49, 63)" stroke="none" stroke-width="1px">0.5</text><text style="text-anchor: end; visibility: inherit; font-family: &quot;Helvetica Neue&quot;, sans-serif; font-size: 12px; font-weight: 200;" x="0" y="137.44799978082835" dx="0em" dy="0.3em" fill="rgb(50, 49, 63)" stroke="none" stroke-width="1px">0.6</text><text style="text-anchor: end; visibility: inherit; font-family: &quot;Helvetica Neue&quot;, sans-serif; font-size: 12px; font-weight: 200;" x="0" y="103.08599983562124" dx="0em" dy="0.3em" fill="rgb(50, 49, 63)" stroke="none" stroke-width="1px">0.7</text><text style="text-anchor: end; visibility: inherit; font-family: &quot;Helvetica Neue&quot;, sans-serif; font-size: 12px; font-weight: 200;" x="0" y="68.72399989041418" dx="0em" dy="0.3em" fill="rgb(50, 49, 63)" stroke="none" stroke-width="1px">0.8</text><text style="text-anchor: end; visibility: inherit; font-family: &quot;Helvetica Neue&quot;, sans-serif; font-size: 12px; font-weight: 200;" x="0" y="34.36199994520706" dx="0em" dy="0.3em" fill="rgb(50, 49, 63)" stroke="none" stroke-width="1px">0.9</text><text style="text-anchor: end; visibility: hidden; font-family: &quot;Helvetica Neue&quot;, sans-serif; font-size: 12px; font-weight: 200;" x="0" y="0" dx="0em" dy="0.3em" fill="rgb(50, 49, 63)" stroke="none" stroke-width="1px">1</text></g><line x1="51.41200256347656" y1="0" x2="51.41200256347656" y2="377.98199939727783" fill="rgb(0, 0, 0)" stroke="rgb(204, 204, 204)" stroke-width="1px"></line></g></g><g transform="translate(51, 0)" clip-path="url(#clip_0)"><clipPath id="clip_0"><rect width="533" height="377"></rect></clipPath><g><g><g><line x1="0" y1="0" x2="0" y2="377.98199939727783" fill="rgb(0, 0, 0)" stroke="rgb(60, 60, 60)" stroke-width="1px" opacity="0.25"></line><line x1="38.12535695975168" y1="0" x2="38.12535695975168" y2="377.98199939727783" fill="rgb(0, 0, 0)" stroke="rgb(60, 60, 60)" stroke-width="1px" opacity="0.25"></line><line x1="76.25071391950335" y1="0" x2="76.25071391950335" y2="377.98199939727783" fill="rgb(0, 0, 0)" stroke="rgb(60, 60, 60)" stroke-width="1px" opacity="0.25"></line><line x1="114.37607087925502" y1="0" x2="114.37607087925502" y2="377.98199939727783" fill="rgb(0, 0, 0)" stroke="rgb(60, 60, 60)" stroke-width="1px" opacity="0.25"></line><line x1="152.5014278390067" y1="0" x2="152.5014278390067" y2="377.98199939727783" fill="rgb(0, 0, 0)" stroke="rgb(60, 60, 60)" stroke-width="1px" opacity="0.25"></line><line x1="190.6267847987584" y1="0" x2="190.6267847987584" y2="377.98199939727783" fill="rgb(0, 0, 0)" stroke="rgb(60, 60, 60)" stroke-width="1px" opacity="0.25"></line><line x1="228.75214175851005" y1="0" x2="228.75214175851005" y2="377.98199939727783" fill="rgb(0, 0, 0)" stroke="rgb(60, 60, 60)" stroke-width="1px" opacity="0.25"></line><line x1="266.87749871826173" y1="0" x2="266.87749871826173" y2="377.98199939727783" fill="rgb(0, 0, 0)" stroke="rgb(60, 60, 60)" stroke-width="1px" opacity="0.25"></line><line x1="305.0028556780134" y1="0" x2="305.0028556780134" y2="377.98199939727783" fill="rgb(0, 0, 0)" stroke="rgb(60, 60, 60)" stroke-width="1px" opacity="0.25"></line><line x1="343.1282126377651" y1="0" x2="343.1282126377651" y2="377.98199939727783" fill="rgb(0, 0, 0)" stroke="rgb(60, 60, 60)" stroke-width="1px" opacity="0.25"></line><line x1="381.2535695975168" y1="0" x2="381.2535695975168" y2="377.98199939727783" fill="rgb(0, 0, 0)" stroke="rgb(60, 60, 60)" stroke-width="1px" opacity="0.25"></line><line x1="419.3789265572684" y1="0" x2="419.3789265572684" y2="377.98199939727783" fill="rgb(0, 0, 0)" stroke="rgb(60, 60, 60)" stroke-width="1px" opacity="0.25"></line><line x1="457.5042835170201" y1="0" x2="457.5042835170201" y2="377.98199939727783" fill="rgb(0, 0, 0)" stroke="rgb(60, 60, 60)" stroke-width="1px" opacity="0.25"></line><line x1="495.6296404767718" y1="0" x2="495.6296404767718" y2="377.98199939727783" fill="rgb(0, 0, 0)" stroke="rgb(60, 60, 60)" stroke-width="1px" opacity="0.25"></line><line x1="533.7549974365235" y1="0" x2="533.7549974365235" y2="377.98199939727783" fill="rgb(0, 0, 0)" stroke="rgb(60, 60, 60)" stroke-width="1px" opacity="0.25"></line></g><g><line x1="0" y1="377.98199939727783" x2="533.7549974365235" y2="377.98199939727783" fill="rgb(0, 0, 0)" stroke="rgb(60, 60, 60)" stroke-width="1px" opacity="0.25"></line><line x1="0" y1="343.6199994520708" x2="533.7549974365235" y2="343.6199994520708" fill="rgb(0, 0, 0)" stroke="rgb(60, 60, 60)" stroke-width="1px" opacity="0.25"></line><line x1="0" y1="309.2579995068637" x2="533.7549974365235" y2="309.2579995068637" fill="rgb(0, 0, 0)" stroke="rgb(60, 60, 60)" stroke-width="1px" opacity="0.25"></line><line x1="0" y1="274.8959995616566" x2="533.7549974365235" y2="274.8959995616566" fill="rgb(0, 0, 0)" stroke="rgb(60, 60, 60)" stroke-width="1px" opacity="0.25"></line><line x1="0" y1="240.53399961644953" x2="533.7549974365235" y2="240.53399961644953" fill="rgb(0, 0, 0)" stroke="rgb(60, 60, 60)" stroke-width="1px" opacity="0.25"></line><line x1="0" y1="206.17199967124245" x2="533.7549974365235" y2="206.17199967124245" fill="rgb(0, 0, 0)" stroke="rgb(60, 60, 60)" stroke-width="1px" opacity="0.25"></line><line x1="0" y1="171.8099997260354" x2="533.7549974365235" y2="171.8099997260354" fill="rgb(0, 0, 0)" stroke="rgb(60, 60, 60)" stroke-width="1px" opacity="0.25"></line><line x1="0" y1="137.44799978082835" x2="533.7549974365235" y2="137.44799978082835" fill="rgb(0, 0, 0)" stroke="rgb(60, 60, 60)" stroke-width="1px" opacity="0.25"></line><line x1="0" y1="103.08599983562124" x2="533.7549974365235" y2="103.08599983562124" fill="rgb(0, 0, 0)" stroke="rgb(60, 60, 60)" stroke-width="1px" opacity="0.25"></line><line x1="0" y1="68.72399989041418" x2="533.7549974365235" y2="68.72399989041418" fill="rgb(0, 0, 0)" stroke="rgb(60, 60, 60)" stroke-width="1px" opacity="0.25"></line><line x1="0" y1="34.36199994520706" x2="533.7549974365235" y2="34.36199994520706" fill="rgb(0, 0, 0)" stroke="rgb(60, 60, 60)" stroke-width="1px" opacity="0.25"></line><line x1="0" y1="0" x2="533.7549974365235" y2="0" fill="rgb(0, 0, 0)" stroke="rgb(60, 60, 60)" stroke-width="1px" opacity="0.25"></line></g></g></g><g><g><line x1="0" y1="343.6199994520708" x2="533.7549974365235" y2="343.6199994520708" fill="rgb(0, 0, 0)" stroke="rgb(153, 153, 153)" stroke-width="1.5px"></line></g></g><g><g><line x1="38.12535695975168" y1="0" x2="38.12535695975168" y2="377.98199939727783" fill="rgb(0, 0, 0)" stroke="rgb(153, 153, 153)" stroke-width="1.5px"></line></g></g><g><g><g><g><g><path style="fill: none;" stroke="rgb(0, 119, 187)" stroke-width="2px" d="M38.12535695975168,266.07641774605304L45.75042835170201,244.60016906038288L53.37549974365235,224.29269241724674L61.000571135602684,205.7534221964051L68.62564252755301,189.44152808410834L76.25071391950335,174.45057100865833L83.87578531145368,162.1456801657279L91.50085670340403,152.3308327686627L99.12592809535437,144.51208394519082L106.7509994873047,138.30434803066282L114.37607087925502,133.270312948322L122.00114227120537,129.43512127881942L129.6262136631557,126.03833198542222L137.25128505510602,123.4987324744638L144.87635644705637,121.38035288847834L152.5014278390067,119.4683633021395L160.12649923095702,117.22174243913281L167.75157062290737,115.5074500843748L175.3766420148577,114.20406869923903L183.00171340680805,112.87227748526624L190.6267847987584,111.61506430752206L198.25185619070874,110.49422321623814L205.87692758265905,109.13448323239066L213.5019989746094,108.227012129441L221.12707036655974,107.31600516623689L228.75214175851005,106.44868876670853L236.3772131504604,105.51595256871207L244.00228454241073,104.72723153904462L251.62735593436105,103.75002680398399L259.2524273263114,103.11789150403877L266.87749871826173,102.50953060195758L274.50257011021205,102.00705967868305L282.1276415021624,101.7055771503118L289.75271289411273,101.29560785477247L297.3777842860631,100.86636737240582L305.0028556780134,100.47136866355902L312.62792706996373,100.142744081856L320.25299846191405,99.80811491089383L327.8780698538644,99.60733740911178L335.50314124581473,99.53269178014699L343.1282126377651,99.30463730073569L350.7532840297154,98.98454570370768L358.37835542166573,98.74666987381931L366.0034268136161,98.46649814571413L373.6284982055664,98.11512800691378L381.2535695975168,97.90430592365686L388.8786409894671,97.64036644351364L396.5037123814175,97.25292297426193L404.12878377336773,97.1120904436923L411.7538551653181,96.89014469515826L419.3789265572684,96.66534369506388L427.0039979492188,96.53046309500797L434.6290693411691,96.40371386321766L442.25414073311947,96.28185164492595L449.8792121250698,96.25454699316862L457.5042835170201,96.1465388436788L465.12935490897047,96.03591308222803L472.7544263009208,95.83209139516515L480.37949769287115,95.66398570370978L488.00456908482147,95.65474764727196" fill="none"></path></g><g><path style="fill: none;" stroke="rgb(255, 112, 67)" stroke-width="2px" d="M38.12535695975168,300.7470746778986L45.75042835170201,281.09800545028736L53.37549974365235,260.47953495095373L61.000571135602684,239.54582123051134L68.62564252755301,221.50885248303265L76.25071391950335,205.41293099705226L83.87578531145368,190.99016909348543L91.50085670340403,179.38184743372744L99.12592809535437,169.87162531235802L106.7509994873047,161.76382880823755L114.37607087925502,154.90574266451205L122.00114227120537,149.94310601651662L129.6262136631557,145.53085621893337L137.25128505510602,142.35790502743197L144.87635644705637,139.4660775070006L152.5014278390067,136.58563762668436L160.12649923095702,133.46691752979515L167.75157062290737,131.2630037815404L175.3766420148577,129.25518075527765L183.00171340680805,127.19846085898789L190.6267847987584,126.1113888840786L198.25185619070874,124.1663448740187L205.87692758265905,122.05911066599774L213.5019989746094,121.4509735209902L221.12707036655974,120.18505047745947L228.75214175851005,118.94559557473696L236.3772131504604,117.57511217036358L244.00228454241073,116.87035326502001L251.62735593436105,116.27120288275296L259.2524273263114,115.23593466412541L266.87749871826173,114.32095661451166L274.50257011021205,113.72299485917068L282.1276415021624,113.04102214947034L289.75271289411273,111.81894201142006L297.3777842860631,111.44806635121222L305.0028556780134,110.74563839284184L312.62792706996373,110.36335834516296L320.25299846191405,109.8401730910374L327.8780698538644,109.34017660395602L335.50314124581473,108.9422450986682L343.1282126377651,108.84059653203099L350.7532840297154,108.60332033346685L358.37835542166573,107.92228696917363L366.0034268136161,107.33737169960466L373.6284982055664,106.85910228617621L381.2535695975168,106.12162471486437L388.8786409894671,105.75749161703777L396.5037123814175,105.34312814602572L404.12878377336773,104.95739972733764L411.7538551653181,104.84348465098202L419.3789265572684,104.62822699219782L427.0039979492188,104.42071895199962L434.6290693411691,104.35497921157724L442.25414073311947,103.62995910928021L449.8792121250698,103.79237977667128L457.5042835170201,103.5960149511643L465.12935490897047,103.84056844984423L472.7544263009208,103.14502559369186L480.37949769287115,102.80605332492871L488.00456908482147,102.61246004801723" fill="none"></path></g></g></g></g><g opacity="0.2"><g><g><g><path style="fill: none;" stroke="rgb(0, 119, 187)" stroke-width="2px" d="M38.12535695975168,266.07641774605304L45.75042835170201,231.71441984898078L53.37549974365235,204.79751483983605L61.000571135602684,183.95124041669527L68.62564252755301,168.14471913109378L76.25071391950335,153.71268062876388L83.87578531145368,144.5494893820838L91.50085670340403,138.02069104120662L99.12592809535437,132.9809481443414L106.7509994873047,129.08658367196315L114.37607087925502,125.76491865250242L122.00114227120537,123.703204718269L129.6262136631557,120.9542391517258L137.25128505510602,119.69430854784645L144.87635644705637,118.20527358518257L152.5014278390067,116.60172740582237L160.12649923095702,113.85276183927914L167.75157062290737,112.93644681088074L175.3766420148577,112.24919517857091L183.00171340680805,110.8747123952993L190.6267847987584,109.72931348946429L198.25185619070874,108.81299846106589L205.87692758265905,107.09490010231337L213.5019989746094,106.86581622487677L221.12707036655974,105.94950119647837L228.75214175851005,105.14771786612425L236.3772131504604,104.11685065833359L244.00228454241073,103.54415120541609L251.62735593436105,102.28422060153673L259.2524273263114,102.16968890349244L266.87749871826173,101.59698945057494L274.50257011021205,101.25335339374607L282.1276415021624,101.25335339374607L289.75271289411273,100.68065394082856L297.3777842860631,100.22250666730332L305.0028556780134,99.87887061047445L312.62792706996373,99.64980721438582L320.25299846191405,99.30617115755695L327.8780698538644,99.30617115755695L335.50314124581473,99.42072333694921L343.1282126377651,98.96255558207605L350.7532840297154,98.50440830855081L358.37835542166573,98.38985612915855L366.0034268136161,98.04624055367765L373.6284982055664,97.58807279880443L381.2535695975168,97.58807279880443L388.8786409894671,97.24445722332354L396.5037123814175,96.67175777040603L404.12878377336773,96.90084164784264L411.7538551653181,96.55722607236169L419.3789265572684,96.32814219492514L427.0039979492188,96.32814219492514L434.6290693411691,96.21359001553282L442.25414073311947,96.09905831748853L449.8792121250698,96.21359001553282L457.5042835170201,95.98452661944418L465.12935490897047,95.86997444005192L472.7544263009208,95.52635886457102L480.37949769287115,95.41182716652668L488.00456908482147,95.64089056261531" fill="none"></path></g><g><path style="fill: none;" stroke="rgb(255, 112, 67)" stroke-width="2px" d="M38.12535695975168,300.7470746778986L45.75042835170201,269.30856391372066L53.37549974365235,240.68580327159344L61.000571135602684,214.9277738952711L68.62564252755301,197.95978608632458L76.25071391950335,183.14647705020647L83.87578531145368,170.36538880719448L91.50085670340403,162.45680301391238L99.12592809535437,155.84589494888294L106.7509994873047,149.7246959146545L114.37607087925502,144.68081578549223L122.00114227120537,142.52615749401187L129.6262136631557,138.92688828369054L137.25128505510602,137.60469438187585L144.87635644705637,135.1317354610488L152.5014278390067,132.267009315581L160.12649923095702,128.79015712228593L167.75157062290737,127.95769273262025L175.3766420148577,126.24375208751275L183.00171340680805,124.11356900689842L190.6267847987584,124.48084053932519L198.25185619070874,121.24884286143055L205.87692758265905,118.89830095762977L213.5019989746094,120.53877500744318L221.12707036655974,118.28617490980253L228.75214175851005,117.08641850636212L236.3772131504604,115.51939057049492L244.00228454241073,115.81321598897557L251.62735593436105,115.3724778612546L259.2524273263114,113.68303290836121L266.87749871826173,112.94848984350773L274.50257011021205,112.82605234513346L282.1276415021624,112.01806316633377L289.75271289411273,109.98582189187971L297.3777842860631,110.89175287683952L305.0028556780134,109.69199647339912L312.62792706996373,109.7899382795593L320.25299846191405,109.05539521470581L327.8780698538644,108.59018187611883L335.50314124581473,108.34534784206636L343.1282126377651,108.68812368227907L350.7532840297154,108.24740603590618L358.37835542166573,106.9007369232254L366.0034268136161,106.45999879550453L373.6284982055664,106.14169816615782L381.2535695975168,105.0154083580116L388.8786409894671,105.21129197033201L396.5037123814175,104.721582939531L404.12878377336773,104.3788070993183L411.7538551653181,104.67261203645091L419.3789265572684,104.30534050402412L427.0039979492188,104.10945689170376L434.6290693411691,104.25636960094403L442.25414073311947,102.54242895583656L449.8792121250698,104.03601077775761L457.5042835170201,103.30146771290413L465.12935490897047,104.20739869786394L472.7544263009208,102.10171130946361L480.37949769287115,102.29759492178408L488.00456908482147,102.32207013265008" fill="none"></path></g></g></g></g></g></g><g transform="translate(51, 377)" clip-path="url(#clip_1)"><clipPath id="clip_1"><rect width="533" height="22"></rect></clipPath><g><g><line x1="0" y1="0" x2="0" y2="5" style="visibility: inherit;" fill="rgb(0, 0, 0)" stroke="rgb(204, 204, 204)" stroke-width="1px"></line><line x1="38.12535695975168" y1="0" x2="38.12535695975168" y2="5" style="visibility: inherit;" fill="rgb(0, 0, 0)" stroke="rgb(204, 204, 204)" stroke-width="1px"></line><line x1="76.25071391950335" y1="0" x2="76.25071391950335" y2="5" style="visibility: inherit;" fill="rgb(0, 0, 0)" stroke="rgb(204, 204, 204)" stroke-width="1px"></line><line x1="114.37607087925502" y1="0" x2="114.37607087925502" y2="5" style="visibility: inherit;" fill="rgb(0, 0, 0)" stroke="rgb(204, 204, 204)" stroke-width="1px"></line><line x1="152.5014278390067" y1="0" x2="152.5014278390067" y2="5" style="visibility: inherit;" fill="rgb(0, 0, 0)" stroke="rgb(204, 204, 204)" stroke-width="1px"></line><line x1="190.6267847987584" y1="0" x2="190.6267847987584" y2="5" style="visibility: inherit;" fill="rgb(0, 0, 0)" stroke="rgb(204, 204, 204)" stroke-width="1px"></line><line x1="228.75214175851005" y1="0" x2="228.75214175851005" y2="5" style="visibility: inherit;" fill="rgb(0, 0, 0)" stroke="rgb(204, 204, 204)" stroke-width="1px"></line><line x1="266.87749871826173" y1="0" x2="266.87749871826173" y2="5" style="visibility: inherit;" fill="rgb(0, 0, 0)" stroke="rgb(204, 204, 204)" stroke-width="1px"></line><line x1="305.0028556780134" y1="0" x2="305.0028556780134" y2="5" style="visibility: inherit;" fill="rgb(0, 0, 0)" stroke="rgb(204, 204, 204)" stroke-width="1px"></line><line x1="343.1282126377651" y1="0" x2="343.1282126377651" y2="5" style="visibility: inherit;" fill="rgb(0, 0, 0)" stroke="rgb(204, 204, 204)" stroke-width="1px"></line><line x1="381.2535695975168" y1="0" x2="381.2535695975168" y2="5" style="visibility: inherit;" fill="rgb(0, 0, 0)" stroke="rgb(204, 204, 204)" stroke-width="1px"></line><line x1="419.3789265572684" y1="0" x2="419.3789265572684" y2="5" style="visibility: inherit;" fill="rgb(0, 0, 0)" stroke="rgb(204, 204, 204)" stroke-width="1px"></line><line x1="457.5042835170201" y1="0" x2="457.5042835170201" y2="5" style="visibility: inherit;" fill="rgb(0, 0, 0)" stroke="rgb(204, 204, 204)" stroke-width="1px"></line><line x1="495.6296404767718" y1="0" x2="495.6296404767718" y2="5" style="visibility: inherit;" fill="rgb(0, 0, 0)" stroke="rgb(204, 204, 204)" stroke-width="1px"></line><line x1="533.7549974365235" y1="0" x2="533.7549974365235" y2="5" style="visibility: inherit;" fill="rgb(0, 0, 0)" stroke="rgb(204, 204, 204)" stroke-width="1px"></line></g><g transform="translate(0, 8)"><text style="text-anchor: middle; visibility: hidden; font-family: &quot;Helvetica Neue&quot;, sans-serif; font-size: 12px; font-weight: 200;" x="0" y="0" dx="0em" dy="0.95em" fill="rgb(50, 49, 63)" stroke="none" stroke-width="1px">-5</text><text style="text-anchor: middle; visibility: inherit; font-family: &quot;Helvetica Neue&quot;, sans-serif; font-size: 12px; font-weight: 200;" x="38.12535695975168" y="0" dx="0em" dy="0.95em" fill="rgb(50, 49, 63)" stroke="none" stroke-width="1px">0</text><text style="text-anchor: middle; visibility: inherit; font-family: &quot;Helvetica Neue&quot;, sans-serif; font-size: 12px; font-weight: 200;" x="76.25071391950335" y="0" dx="0em" dy="0.95em" fill="rgb(50, 49, 63)" stroke="none" stroke-width="1px">5</text><text style="text-anchor: middle; visibility: inherit; font-family: &quot;Helvetica Neue&quot;, sans-serif; font-size: 12px; font-weight: 200;" x="114.37607087925502" y="0" dx="0em" dy="0.95em" fill="rgb(50, 49, 63)" stroke="none" stroke-width="1px">10</text><text style="text-anchor: middle; visibility: inherit; font-family: &quot;Helvetica Neue&quot;, sans-serif; font-size: 12px; font-weight: 200;" x="152.5014278390067" y="0" dx="0em" dy="0.95em" fill="rgb(50, 49, 63)" stroke="none" stroke-width="1px">15</text><text style="text-anchor: middle; visibility: inherit; font-family: &quot;Helvetica Neue&quot;, sans-serif; font-size: 12px; font-weight: 200;" x="190.6267847987584" y="0" dx="0em" dy="0.95em" fill="rgb(50, 49, 63)" stroke="none" stroke-width="1px">20</text><text style="text-anchor: middle; visibility: inherit; font-family: &quot;Helvetica Neue&quot;, sans-serif; font-size: 12px; font-weight: 200;" x="228.75214175851005" y="0" dx="0em" dy="0.95em" fill="rgb(50, 49, 63)" stroke="none" stroke-width="1px">25</text><text style="text-anchor: middle; visibility: inherit; font-family: &quot;Helvetica Neue&quot;, sans-serif; font-size: 12px; font-weight: 200;" x="266.87749871826173" y="0" dx="0em" dy="0.95em" fill="rgb(50, 49, 63)" stroke="none" stroke-width="1px">30</text><text style="text-anchor: middle; visibility: inherit; font-family: &quot;Helvetica Neue&quot;, sans-serif; font-size: 12px; font-weight: 200;" x="305.0028556780134" y="0" dx="0em" dy="0.95em" fill="rgb(50, 49, 63)" stroke="none" stroke-width="1px">35</text><text style="text-anchor: middle; visibility: inherit; font-family: &quot;Helvetica Neue&quot;, sans-serif; font-size: 12px; font-weight: 200;" x="343.1282126377651" y="0" dx="0em" dy="0.95em" fill="rgb(50, 49, 63)" stroke="none" stroke-width="1px">40</text><text style="text-anchor: middle; visibility: inherit; font-family: &quot;Helvetica Neue&quot;, sans-serif; font-size: 12px; font-weight: 200;" x="381.2535695975168" y="0" dx="0em" dy="0.95em" fill="rgb(50, 49, 63)" stroke="none" stroke-width="1px">45</text><text style="text-anchor: middle; visibility: inherit; font-family: &quot;Helvetica Neue&quot;, sans-serif; font-size: 12px; font-weight: 200;" x="419.3789265572684" y="0" dx="0em" dy="0.95em" fill="rgb(50, 49, 63)" stroke="none" stroke-width="1px">50</text><text style="text-anchor: middle; visibility: inherit; font-family: &quot;Helvetica Neue&quot;, sans-serif; font-size: 12px; font-weight: 200;" x="457.5042835170201" y="0" dx="0em" dy="0.95em" fill="rgb(50, 49, 63)" stroke="none" stroke-width="1px">55</text><text style="text-anchor: middle; visibility: inherit; font-family: &quot;Helvetica Neue&quot;, sans-serif; font-size: 12px; font-weight: 200;" x="495.6296404767718" y="0" dx="0em" dy="0.95em" fill="rgb(50, 49, 63)" stroke="none" stroke-width="1px">60</text><text style="text-anchor: middle; visibility: hidden; font-family: &quot;Helvetica Neue&quot;, sans-serif; font-size: 12px; font-weight: 200;" x="533.7549974365235" y="0" dx="0em" dy="0.95em" fill="rgb(50, 49, 63)" stroke="none" stroke-width="1px">65</text></g><line x1="0" y1="0" x2="533.7549974365235" y2="0" fill="rgb(0, 0, 0)" stroke="rgb(204, 204, 204)" stroke-width="1px"></line></g></g></g></g></svg>