<svg viewBox="0 0 585.1666870117188 400" xmlns="http://www.w3.org/2000/svg"><g><g><g><g><g><line x1="51.41200256347656" y1="377.98199939727783" x2="46.41200256347656" y2="377.98199939727783" style="visibility: inherit;" fill="rgb(0, 0, 0)" stroke="rgb(204, 204, 204)" stroke-width="1px"></line><line x1="51.41200256347656" y1="335.98399946424695" x2="46.41200256347656" y2="335.98399946424695" style="visibility: inherit;" fill="rgb(0, 0, 0)" stroke="rgb(204, 204, 204)" stroke-width="1px"></line><line x1="51.41200256347656" y1="293.98599953121607" x2="46.41200256347656" y2="293.98599953121607" style="visibility: inherit;" fill="rgb(0, 0, 0)" stroke="rgb(204, 204, 204)" stroke-width="1px"></line><line x1="51.41200256347656" y1="251.9879995981852" x2="46.41200256347656" y2="251.9879995981852" style="visibility: inherit;" fill="rgb(0, 0, 0)" stroke="rgb(204, 204, 204)" stroke-width="1px"></line><line x1="51.41200256347656" y1="209.98999966515433" x2="46.41200256347656" y2="209.98999966515433" style="visibility: inherit;" fill="rgb(0, 0, 0)" stroke="rgb(204, 204, 204)" stroke-width="1px"></line><line x1="51.41200256347656" y1="167.99199973212347" x2="46.41200256347656" y2="167.99199973212347" style="visibility: inherit;" fill="rgb(0, 0, 0)" stroke="rgb(204, 204, 204)" stroke-width="1px"></line><line x1="51.41200256347656" y1="125.99399979909262" x2="46.41200256347656" y2="125.99399979909262" style="visibility: inherit;" fill="rgb(0, 0, 0)" stroke="rgb(204, 204, 204)" stroke-width="1px"></line><line x1="51.41200256347656" y1="83.99599986606177" x2="46.41200256347656" y2="83.99599986606177" style="visibility: inherit;" fill="rgb(0, 0, 0)" stroke="rgb(204, 204, 204)" stroke-width="1px"></line><line x1="51.41200256347656" y1="41.99799993303088" x2="46.41200256347656" y2="41.99799993303088" style="visibility: inherit;" fill="rgb(0, 0, 0)" stroke="rgb(204, 204, 204)" stroke-width="1px"></line><line x1="51.41200256347656" y1="0" x2="46.41200256347656" y2="0" style="visibility: inherit;" fill="rgb(0, 0, 0)" stroke="rgb(204, 204, 204)" stroke-width="1px"></line></g><g transform="translate(41.41200256347656, 0)"><text style="text-anchor: end; visibility: hidden; font-family: &quot;Helvetica Neue&quot;, sans-serif; font-size: 12px; font-weight: 200;" x="0" y="377.98199939727783" dx="0em" dy="0.3em" fill="rgb(50, 49, 63)" stroke="none" stroke-width="1px">-0.2</text><text style="text-anchor: end; visibility: inherit; font-family: &quot;Helvetica Neue&quot;, sans-serif; font-size: 12px; font-weight: 200;" x="0" y="335.98399946424695" dx="0em" dy="0.3em" fill="rgb(50, 49, 63)" stroke="none" stroke-width="1px">0</text><text style="text-anchor: end; visibility: inherit; font-family: &quot;Helvetica Neue&quot;, sans-serif; font-size: 12px; font-weight: 200;" x="0" y="293.98599953121607" dx="0em" dy="0.3em" fill="rgb(50, 49, 63)" stroke="none" stroke-width="1px">0.2</text><text style="text-anchor: end; visibility: inherit; font-family: &quot;Helvetica Neue&quot;, sans-serif; font-size: 12px; font-weight: 200;" x="0" y="251.9879995981852" dx="0em" dy="0.3em" fill="rgb(50, 49, 63)" stroke="none" stroke-width="1px">0.4</text><text style="text-anchor: end; visibility: inherit; font-family: &quot;Helvetica Neue&quot;, sans-serif; font-size: 12px; font-weight: 200;" x="0" y="209.98999966515433" dx="0em" dy="0.3em" fill="rgb(50, 49, 63)" stroke="none" stroke-width="1px">0.6</text><text style="text-anchor: end; visibility: inherit; font-family: &quot;Helvetica Neue&quot;, sans-serif; font-size: 12px; font-weight: 200;" x="0" y="167.99199973212347" dx="0em" dy="0.3em" fill="rgb(50, 49, 63)" stroke="none" stroke-width="1px">0.8</text><text style="text-anchor: end; visibility: inherit; font-family: &quot;Helvetica Neue&quot;, sans-serif; font-size: 12px; font-weight: 200;" x="0" y="125.99399979909262" dx="0em" dy="0.3em" fill="rgb(50, 49, 63)" stroke="none" stroke-width="1px">1</text><text style="text-anchor: end; visibility: inherit; font-family: &quot;Helvetica Neue&quot;, sans-serif; font-size: 12px; font-weight: 200;" x="0" y="83.99599986606177" dx="0em" dy="0.3em" fill="rgb(50, 49, 63)" stroke="none" stroke-width="1px">1.2</text><text style="text-anchor: end; visibility: inherit; font-family: &quot;Helvetica Neue&quot;, sans-serif; font-size: 12px; font-weight: 200;" x="0" y="41.99799993303088" dx="0em" dy="0.3em" fill="rgb(50, 49, 63)" stroke="none" stroke-width="1px">1.4</text><text style="text-anchor: end; visibility: hidden; font-family: &quot;Helvetica Neue&quot;, sans-serif; font-size: 12px; font-weight: 200;" x="0" y="0" dx="0em" dy="0.3em" fill="rgb(50, 49, 63)" stroke="none" stroke-width="1px">1.6</text></g><line x1="51.41200256347656" y1="0" x2="51.41200256347656" y2="377.98199939727783" fill="rgb(0, 0, 0)" stroke="rgb(204, 204, 204)" stroke-width="1px"></line></g></g><g transform="translate(51, 0)" clip-path="url(#clip_0)"><clipPath id="clip_0"><rect width="533" height="377"></rect></clipPath><g><g><g><line x1="0" y1="0" x2="0" y2="377.98199939727783" fill="rgb(0, 0, 0)" stroke="rgb(60, 60, 60)" stroke-width="1px" opacity="0.25"></line><line x1="44.479583119710284" y1="0" x2="44.479583119710284" y2="377.98199939727783" fill="rgb(0, 0, 0)" stroke="rgb(60, 60, 60)" stroke-width="1px" opacity="0.25"></line><line x1="88.95916623942057" y1="0" x2="88.95916623942057" y2="377.98199939727783" fill="rgb(0, 0, 0)" stroke="rgb(60, 60, 60)" stroke-width="1px" opacity="0.25"></line><line x1="133.43874935913087" y1="0" x2="133.43874935913087" y2="377.98199939727783" fill="rgb(0, 0, 0)" stroke="rgb(60, 60, 60)" stroke-width="1px" opacity="0.25"></line><line x1="177.91833247884114" y1="0" x2="177.91833247884114" y2="377.98199939727783" fill="rgb(0, 0, 0)" stroke="rgb(60, 60, 60)" stroke-width="1px" opacity="0.25"></line><line x1="222.39791559855146" y1="0" x2="222.39791559855146" y2="377.98199939727783" fill="rgb(0, 0, 0)" stroke="rgb(60, 60, 60)" stroke-width="1px" opacity="0.25"></line><line x1="266.87749871826173" y1="0" x2="266.87749871826173" y2="377.98199939727783" fill="rgb(0, 0, 0)" stroke="rgb(60, 60, 60)" stroke-width="1px" opacity="0.25"></line><line x1="311.35708183797203" y1="0" x2="311.35708183797203" y2="377.98199939727783" fill="rgb(0, 0, 0)" stroke="rgb(60, 60, 60)" stroke-width="1px" opacity="0.25"></line><line x1="355.8366649576823" y1="0" x2="355.8366649576823" y2="377.98199939727783" fill="rgb(0, 0, 0)" stroke="rgb(60, 60, 60)" stroke-width="1px" opacity="0.25"></line><line x1="400.31624807739263" y1="0" x2="400.31624807739263" y2="377.98199939727783" fill="rgb(0, 0, 0)" stroke="rgb(60, 60, 60)" stroke-width="1px" opacity="0.25"></line><line x1="444.7958311971029" y1="0" x2="444.7958311971029" y2="377.98199939727783" fill="rgb(0, 0, 0)" stroke="rgb(60, 60, 60)" stroke-width="1px" opacity="0.25"></line><line x1="489.27541431681317" y1="0" x2="489.27541431681317" y2="377.98199939727783" fill="rgb(0, 0, 0)" stroke="rgb(60, 60, 60)" stroke-width="1px" opacity="0.25"></line><line x1="533.7549974365235" y1="0" x2="533.7549974365235" y2="377.98199939727783" fill="rgb(0, 0, 0)" stroke="rgb(60, 60, 60)" stroke-width="1px" opacity="0.25"></line></g><g><line x1="0" y1="377.98199939727783" x2="533.7549974365235" y2="377.98199939727783" fill="rgb(0, 0, 0)" stroke="rgb(60, 60, 60)" stroke-width="1px" opacity="0.25"></line><line x1="0" y1="335.98399946424695" x2="533.7549974365235" y2="335.98399946424695" fill="rgb(0, 0, 0)" stroke="rgb(60, 60, 60)" stroke-width="1px" opacity="0.25"></line><line x1="0" y1="293.98599953121607" x2="533.7549974365235" y2="293.98599953121607" fill="rgb(0, 0, 0)" stroke="rgb(60, 60, 60)" stroke-width="1px" opacity="0.25"></line><line x1="0" y1="251.9879995981852" x2="533.7549974365235" y2="251.9879995981852" fill="rgb(0, 0, 0)" stroke="rgb(60, 60, 60)" stroke-width="1px" opacity="0.25"></line><line x1="0" y1="209.98999966515433" x2="533.7549974365235" y2="209.98999966515433" fill="rgb(0, 0, 0)" stroke="rgb(60, 60, 60)" stroke-width="1px" opacity="0.25"></line><line x1="0" y1="167.99199973212347" x2="533.7549974365235" y2="167.99199973212347" fill="rgb(0, 0, 0)" stroke="rgb(60, 60, 60)" stroke-width="1px" opacity="0.25"></line><line x1="0" y1="125.99399979909262" x2="533.7549974365235" y2="125.99399979909262" fill="rgb(0, 0, 0)" stroke="rgb(60, 60, 60)" stroke-width="1px" opacity="0.25"></line><line x1="0" y1="83.99599986606177" x2="533.7549974365235" y2="83.99599986606177" fill="rgb(0, 0, 0)" stroke="rgb(60, 60, 60)" stroke-width="1px" opacity="0.25"></line><line x1="0" y1="41.99799993303088" x2="533.7549974365235" y2="41.99799993303088" fill="rgb(0, 0, 0)" stroke="rgb(60, 60, 60)" stroke-width="1px" opacity="0.25"></line><line x1="0" y1="0" x2="533.7549974365235" y2="0" fill="rgb(0, 0, 0)" stroke="rgb(60, 60, 60)" stroke-width="1px" opacity="0.25"></line></g></g></g><g><g><line x1="0" y1="335.98399946424695" x2="533.7549974365235" y2="335.98399946424695" fill="rgb(0, 0, 0)" stroke="rgb(153, 153, 153)" stroke-width="1.5px"></line></g></g><g><g><line x1="44.479583119710284" y1="0" x2="44.479583119710284" y2="377.98199939727783" fill="rgb(0, 0, 0)" stroke="rgb(153, 153, 153)" stroke-width="1.5px"></line></g></g><g><g><g><g><g><path style="fill: none;" stroke="rgb(51, 187, 238)" stroke-width="2px" d="M44.479583119710284,36.219518025817536L53.37549974365235,71.5849389777432L62.271416367594405,103.53282960388998L71.16733299153645,131.35976149707636L80.06324961547851,154.66337394375026L88.95916623942057,174.0711008862205L97.85508286336263,189.90259469408429L106.7509994873047,202.89526386902241L115.64691611124675,213.6452586247482L124.54283273518881,222.5109254380673L133.43874935913087,229.80472922624048L142.3346659830729,236.00799325433323L151.23058260701498,240.9550521390524L160.12649923095702,245.23006049873536L169.0224158548991,248.88871149588607L177.91833247884114,252.02254537338595L186.8142491027832,254.5738847024453L195.71016572672525,256.88482230853816L204.60608235066735,258.8247226512374L213.5019989746094,260.6853895006235L222.39791559855146,262.31198246091424L231.2938322224935,263.900164657041L240.18974884643558,265.23548907049803L249.08566547037762,266.2909884731038L257.98158209431966,267.45806995763957L266.87749871826173,268.40678730468824L275.7734153422038,269.22294757128776L284.6693319661458,270.07311764616475L293.56524859008795,270.8732239730358L302.46116521402996,271.47412073331054L311.35708183797203,272.7320256465635L320.25299846191405,274.0301371005541L329.1489150858562,275.1364349091808L338.0448317097982,276.0145991185155L346.94074833374026,276.6912335798652L355.8366649576823,277.209143224239L364.7325815816244,277.61142629665005L373.6284982055664,277.92594185961696L382.5244148295085,278.17412402483717L391.4203314534505,278.3753317631046L400.31624807739263,278.54550111086326L409.2121647013347,278.6952650919671L418.1080813252767,278.8296066927578L427.0039979492188,278.95267722502734L435.8999145731608,279.0669424430846L444.7958311971029,279.16948604708773L453.69174782104494,279.26390275110697L462.587664444987,279.3550804575545L471.483581068929,279.44476785839163L480.37949769287115,279.52888495654275" fill="none"></path></g><g><path style="fill: none;" stroke="rgb(204, 51, 17)" stroke-width="2px" d="M53.37549974365235,-0.6024277312984054L62.271416367594405,45.14913268830219L71.16733299153645,83.5019802787196L80.06324961547851,115.4548540392322L88.95916623942057,141.96341025047136L97.85508286336263,162.9804619057754L106.7509994873047,180.1482394286003L115.64691611124675,194.50258474962394L124.54283273518881,205.71088796459276L133.43874935913087,214.6391787674889L142.3346659830729,222.08333852945339L151.23058260701498,228.196159030003L160.12649923095702,233.53128792947788L169.0224158548991,237.982946826467L177.91833247884114,242.00650040506636L186.8142491027832,245.33440480659306L195.71016572672525,248.28199816114102L204.60608235066735,250.60472426532144L213.5019989746094,252.55890848190532L222.39791559855146,254.518708365217L231.2938322224935,256.45398957553004L240.18974884643558,258.1629882492512L249.08566547037762,259.77019795620356L257.98158209431966,260.8194578013313L266.87749871826173,262.1915647929603L275.7734153422038,262.89905837245243L284.6693319661458,263.83729166533794L293.56524859008795,264.74962112368394L302.46116521402996,265.73758271721323L311.35708183797203,265.83409504013423L320.25299846191405,266.70915183863747L329.1489150858562,267.5418910607441L338.0448317097982,268.2034915152604L346.94074833374026,269.0511716100432L355.8366649576823,269.6163987517369L364.7325815816244,269.96352298636384L373.6284982055664,270.5796462512329L382.5244148295085,271.0796883128729L391.4203314534505,271.29587633696065L400.31624807739263,271.29605714137176L409.2121647013347,271.4075238510281L418.1080813252767,271.85887701080316L427.0039979492188,271.9486820351418L435.8999145731608,271.921601598351L444.7958311971029,272.1867090273994L453.69174782104494,272.26158581412204L462.587664444987,272.48199152445443L471.483581068929,272.5655387252038L480.37949769287115,272.8959288052044" fill="none"></path></g></g></g></g><g opacity="0.2"><g><g><g><path style="fill: none;" stroke="rgb(51, 187, 238)" stroke-width="2px" d="M44.479583119710284,36.219518025817536L53.37549974365235,92.80419154889864L62.271416367594405,134.2028046049909L71.16733299153645,164.0842334034634L80.06324961547851,185.0885703541279L88.95916623942057,200.918974029356L97.85508286336263,212.5418841432305L106.7509994873047,221.83870025570624L115.64691611124675,229.49941281046242L124.54283273518881,235.67540741557306L133.43874935913087,240.67928064496544L142.3346659830729,245.27913140756766L151.23058260701498,248.3594874605381L160.12649923095702,251.63419785184453L169.0224158548991,254.37238738470543L177.91833247884114,256.7210859671858L186.8142491027832,258.39981405473554L195.71016572672525,260.35064197086956L204.60608235066735,261.7342776409941L213.5019989746094,263.47621970238254L222.39791559855146,264.7517826951267L231.2938322224935,266.28238569141956L240.18974884643558,267.2384493270324L249.08566547037762,267.87422507361583L257.98158209431966,269.2086838893276L266.87749871826173,269.8298592794151L275.7734153422038,270.4471858828566L284.6693319661458,271.3483714532689L293.56524859008795,272.0733827263314L302.46116521402996,272.37546554161605L311.35708183797203,274.618882599308L320.25299846191405,275.9773040232593L329.1489150858562,276.7958814900512L338.0448317097982,277.3318453696163L346.94074833374026,277.70618524281014L355.8366649576823,277.98600767744495L364.7325815816244,278.2148508990425L373.6284982055664,278.39771520114766L382.5244148295085,278.54639727128506L391.4203314534505,278.6771433698334L400.31624807739263,278.8007551321599L409.2121647013347,278.9199110634427L418.1080813252767,279.0311190938469L427.0039979492188,279.1372830233784L435.8999145731608,279.2383402701407L444.7958311971029,279.3233014530764L453.69174782104494,279.40552780712704L462.587664444987,279.4918470172207L471.483581068929,279.5792989596443L480.37949769287115,279.6550606037677" fill="none"></path></g><g><path style="fill: none;" stroke="rgb(204, 51, 17)" stroke-width="2px" d="M44.479583119710284,-62.811351954676695L53.37549974365235,36.72292680272858L62.271416367594405,89.07063069111882L71.16733299153645,128.6049290450504L80.06324961547851,157.17252602095763L88.95916623942057,178.63428657085115L97.85508286336263,193.03518204568672L106.7509994873047,205.17902386754326L115.64691611124675,215.67245591009868L124.54283273518881,222.35391197833155L133.43874935913087,227.95063603137308L142.3346659830729,233.20906738370968L151.23058260701498,237.34543036129438L160.12649923095702,241.52352920577638L169.0224158548991,244.65520241402615L177.91833247884114,248.03899305124958L186.8142491027832,250.32485315127136L195.71016572672525,252.70263979932952L204.60608235066735,254.08845957764828L213.5019989746094,255.49000618660324L222.39791559855146,257.45830071010124L231.2938322224935,259.356847709747L240.18974884643558,260.7264525186354L249.08566547037762,262.1809934777008L257.98158209431966,262.3933401113329L266.87749871826173,264.2497194289943L275.7734153422038,263.96029693140844L284.6693319661458,265.24464016425713L293.56524859008795,266.1181144708186L302.46116521402996,267.21952456147574L311.35708183797203,265.9788634925112L320.25299846191405,268.0217368622853L329.1489150858562,268.7909997944917L338.0448317097982,269.1958921496457L346.94074833374026,270.32269171578685L355.8366649576823,270.46423944970246L364.7325815816244,270.48420933293374L373.6284982055664,271.503831142817L382.5244148295085,271.82975140254786L391.4203314534505,271.62015837236976L400.31624807739263,271.29632834798804L409.2121647013347,271.5747239153785L418.1080813252767,272.53590675014L427.0039979492188,272.08338957161084L435.8999145731608,271.88098094317183L444.7958311971029,272.58437017093064L453.69174782104494,272.37390099419895L462.587664444987,272.8126000899407L471.483581068929,272.69085952632497L480.37949769287115,273.39151392519875" fill="none"></path></g></g></g></g></g><g><g opacity="0.557907"><span fill="rgb(0, 0, 0)" stroke="none" stroke-width="1px">Alt + Scroll to Zoom</span></g></g></g><g transform="translate(51, 377)" clip-path="url(#clip_1)"><clipPath id="clip_1"><rect width="533" height="22"></rect></clipPath><g><g><line x1="0" y1="0" x2="0" y2="5" style="visibility: inherit;" fill="rgb(0, 0, 0)" stroke="rgb(204, 204, 204)" stroke-width="1px"></line><line x1="44.479583119710284" y1="0" x2="44.479583119710284" y2="5" style="visibility: inherit;" fill="rgb(0, 0, 0)" stroke="rgb(204, 204, 204)" stroke-width="1px"></line><line x1="88.95916623942057" y1="0" x2="88.95916623942057" y2="5" style="visibility: inherit;" fill="rgb(0, 0, 0)" stroke="rgb(204, 204, 204)" stroke-width="1px"></line><line x1="133.43874935913087" y1="0" x2="133.43874935913087" y2="5" style="visibility: inherit;" fill="rgb(0, 0, 0)" stroke="rgb(204, 204, 204)" stroke-width="1px"></line><line x1="177.91833247884114" y1="0" x2="177.91833247884114" y2="5" style="visibility: inherit;" fill="rgb(0, 0, 0)" stroke="rgb(204, 204, 204)" stroke-width="1px"></line><line x1="222.39791559855146" y1="0" x2="222.39791559855146" y2="5" style="visibility: inherit;" fill="rgb(0, 0, 0)" stroke="rgb(204, 204, 204)" stroke-width="1px"></line><line x1="266.87749871826173" y1="0" x2="266.87749871826173" y2="5" style="visibility: inherit;" fill="rgb(0, 0, 0)" stroke="rgb(204, 204, 204)" stroke-width="1px"></line><line x1="311.35708183797203" y1="0" x2="311.35708183797203" y2="5" style="visibility: inherit;" fill="rgb(0, 0, 0)" stroke="rgb(204, 204, 204)" stroke-width="1px"></line><line x1="355.8366649576823" y1="0" x2="355.8366649576823" y2="5" style="visibility: inherit;" fill="rgb(0, 0, 0)" stroke="rgb(204, 204, 204)" stroke-width="1px"></line><line x1="400.31624807739263" y1="0" x2="400.31624807739263" y2="5" style="visibility: inherit;" fill="rgb(0, 0, 0)" stroke="rgb(204, 204, 204)" stroke-width="1px"></line><line x1="444.7958311971029" y1="0" x2="444.7958311971029" y2="5" style="visibility: inherit;" fill="rgb(0, 0, 0)" stroke="rgb(204, 204, 204)" stroke-width="1px"></line><line x1="489.27541431681317" y1="0" x2="489.27541431681317" y2="5" style="visibility: inherit;" fill="rgb(0, 0, 0)" stroke="rgb(204, 204, 204)" stroke-width="1px"></line><line x1="533.7549974365235" y1="0" x2="533.7549974365235" y2="5" style="visibility: inherit;" fill="rgb(0, 0, 0)" stroke="rgb(204, 204, 204)" stroke-width="1px"></line></g><g transform="translate(0, 8)"><text style="text-anchor: middle; visibility: hidden; font-family: &quot;Helvetica Neue&quot;, sans-serif; font-size: 12px; font-weight: 200;" x="0" y="0" dx="0em" dy="0.95em" fill="rgb(50, 49, 63)" stroke="none" stroke-width="1px">-5</text><text style="text-anchor: middle; visibility: hidden; font-family: &quot;Helvetica Neue&quot;, sans-serif; font-size: 12px; font-weight: 200;" x="44.479583119710284" y="0" dx="0em" dy="0.95em" fill="rgb(50, 49, 63)" stroke="none" stroke-width="1px">0</text><text style="text-anchor: middle; visibility: hidden; font-family: &quot;Helvetica Neue&quot;, sans-serif; font-size: 12px; font-weight: 200;" x="88.95916623942057" y="0" dx="0em" dy="0.95em" fill="rgb(50, 49, 63)" stroke="none" stroke-width="1px">5</text><text style="text-anchor: middle; visibility: hidden; font-family: &quot;Helvetica Neue&quot;, sans-serif; font-size: 12px; font-weight: 200;" x="133.43874935913087" y="0" dx="0em" dy="0.95em" fill="rgb(50, 49, 63)" stroke="none" stroke-width="1px">10</text><text style="text-anchor: middle; visibility: hidden; font-family: &quot;Helvetica Neue&quot;, sans-serif; font-size: 12px; font-weight: 200;" x="177.91833247884114" y="0" dx="0em" dy="0.95em" fill="rgb(50, 49, 63)" stroke="none" stroke-width="1px">15</text><text style="text-anchor: middle; visibility: hidden; font-family: &quot;Helvetica Neue&quot;, sans-serif; font-size: 12px; font-weight: 200;" x="222.39791559855146" y="0" dx="0em" dy="0.95em" fill="rgb(50, 49, 63)" stroke="none" stroke-width="1px">20</text><text style="text-anchor: middle; visibility: hidden; font-family: &quot;Helvetica Neue&quot;, sans-serif; font-size: 12px; font-weight: 200;" x="266.87749871826173" y="0" dx="0em" dy="0.95em" fill="rgb(50, 49, 63)" stroke="none" stroke-width="1px">25</text><text style="text-anchor: middle; visibility: hidden; font-family: &quot;Helvetica Neue&quot;, sans-serif; font-size: 12px; font-weight: 200;" x="311.35708183797203" y="0" dx="0em" dy="0.95em" fill="rgb(50, 49, 63)" stroke="none" stroke-width="1px">30</text><text style="text-anchor: middle; visibility: hidden; font-family: &quot;Helvetica Neue&quot;, sans-serif; font-size: 12px; font-weight: 200;" x="355.8366649576823" y="0" dx="0em" dy="0.95em" fill="rgb(50, 49, 63)" stroke="none" stroke-width="1px">35</text><text style="text-anchor: middle; visibility: hidden; font-family: &quot;Helvetica Neue&quot;, sans-serif; font-size: 12px; font-weight: 200;" x="400.31624807739263" y="0" dx="0em" dy="0.95em" fill="rgb(50, 49, 63)" stroke="none" stroke-width="1px">40</text><text style="text-anchor: middle; visibility: hidden; font-family: &quot;Helvetica Neue&quot;, sans-serif; font-size: 12px; font-weight: 200;" x="444.7958311971029" y="0" dx="0em" dy="0.95em" fill="rgb(50, 49, 63)" stroke="none" stroke-width="1px">45</text><text style="text-anchor: middle; visibility: hidden; font-family: &quot;Helvetica Neue&quot;, sans-serif; font-size: 12px; font-weight: 200;" x="489.27541431681317" y="0" dx="0em" dy="0.95em" fill="rgb(50, 49, 63)" stroke="none" stroke-width="1px">50</text><text style="text-anchor: middle; visibility: hidden; font-family: &quot;Helvetica Neue&quot;, sans-serif; font-size: 12px; font-weight: 200;" x="533.7549974365235" y="0" dx="0em" dy="0.95em" fill="rgb(50, 49, 63)" stroke="none" stroke-width="1px">55</text></g><line x1="0" y1="0" x2="533.7549974365235" y2="0" fill="rgb(0, 0, 0)" stroke="rgb(204, 204, 204)" stroke-width="1px"></line></g></g></g></g></svg>