<svg viewBox="0 0 585.1666870117188 400" xmlns="http://www.w3.org/2000/svg"><g><g><g><g><g><line x1="51.41200256347656" y1="377.98199939727783" x2="46.41200256347656" y2="377.98199939727783" style="visibility: inherit;" fill="rgb(0, 0, 0)" stroke="rgb(204, 204, 204)" stroke-width="1px"></line><line x1="51.41200256347656" y1="340.18379945755004" x2="46.41200256347656" y2="340.18379945755004" style="visibility: inherit;" fill="rgb(0, 0, 0)" stroke="rgb(204, 204, 204)" stroke-width="1px"></line><line x1="51.41200256347656" y1="302.38559951782224" x2="46.41200256347656" y2="302.38559951782224" style="visibility: inherit;" fill="rgb(0, 0, 0)" stroke="rgb(204, 204, 204)" stroke-width="1px"></line><line x1="51.41200256347656" y1="264.58739957809445" x2="46.41200256347656" y2="264.58739957809445" style="visibility: inherit;" fill="rgb(0, 0, 0)" stroke="rgb(204, 204, 204)" stroke-width="1px"></line><line x1="51.41200256347656" y1="226.78919963836668" x2="46.41200256347656" y2="226.78919963836668" style="visibility: inherit;" fill="rgb(0, 0, 0)" stroke="rgb(204, 204, 204)" stroke-width="1px"></line><line x1="51.41200256347656" y1="188.99099969863892" x2="46.41200256347656" y2="188.99099969863892" style="visibility: inherit;" fill="rgb(0, 0, 0)" stroke="rgb(204, 204, 204)" stroke-width="1px"></line><line x1="51.41200256347656" y1="151.19279975891115" x2="46.41200256347656" y2="151.19279975891115" style="visibility: inherit;" fill="rgb(0, 0, 0)" stroke="rgb(204, 204, 204)" stroke-width="1px"></line><line x1="51.41200256347656" y1="113.39459981918338" x2="46.41200256347656" y2="113.39459981918338" style="visibility: inherit;" fill="rgb(0, 0, 0)" stroke="rgb(204, 204, 204)" stroke-width="1px"></line><line x1="51.41200256347656" y1="75.59639987945559" x2="46.41200256347656" y2="75.59639987945559" style="visibility: inherit;" fill="rgb(0, 0, 0)" stroke="rgb(204, 204, 204)" stroke-width="1px"></line><line x1="51.41200256347656" y1="37.798199939727795" x2="46.41200256347656" y2="37.798199939727795" style="visibility: inherit;" fill="rgb(0, 0, 0)" stroke="rgb(204, 204, 204)" stroke-width="1px"></line><line x1="51.41200256347656" y1="0" x2="46.41200256347656" y2="0" style="visibility: inherit;" fill="rgb(0, 0, 0)" stroke="rgb(204, 204, 204)" stroke-width="1px"></line></g><g transform="translate(41.41200256347656, 0)"><text style="text-anchor: end; visibility: hidden; font-family: &quot;Helvetica Neue&quot;, sans-serif; font-size: 12px; font-weight: 200;" x="0" y="377.98199939727783" dx="0em" dy="0.3em" fill="rgb(50, 49, 63)" stroke="none" stroke-width="1px">-0.2</text><text style="text-anchor: end; visibility: inherit; font-family: &quot;Helvetica Neue&quot;, sans-serif; font-size: 12px; font-weight: 200;" x="0" y="340.18379945755004" dx="0em" dy="0.3em" fill="rgb(50, 49, 63)" stroke="none" stroke-width="1px">0</text><text style="text-anchor: end; visibility: inherit; font-family: &quot;Helvetica Neue&quot;, sans-serif; font-size: 12px; font-weight: 200;" x="0" y="302.38559951782224" dx="0em" dy="0.3em" fill="rgb(50, 49, 63)" stroke="none" stroke-width="1px">0.2</text><text style="text-anchor: end; visibility: inherit; font-family: &quot;Helvetica Neue&quot;, sans-serif; font-size: 12px; font-weight: 200;" x="0" y="264.58739957809445" dx="0em" dy="0.3em" fill="rgb(50, 49, 63)" stroke="none" stroke-width="1px">0.4</text><text style="text-anchor: end; visibility: inherit; font-family: &quot;Helvetica Neue&quot;, sans-serif; font-size: 12px; font-weight: 200;" x="0" y="226.78919963836668" dx="0em" dy="0.3em" fill="rgb(50, 49, 63)" stroke="none" stroke-width="1px">0.6</text><text style="text-anchor: end; visibility: inherit; font-family: &quot;Helvetica Neue&quot;, sans-serif; font-size: 12px; font-weight: 200;" x="0" y="188.99099969863892" dx="0em" dy="0.3em" fill="rgb(50, 49, 63)" stroke="none" stroke-width="1px">0.8</text><text style="text-anchor: end; visibility: inherit; font-family: &quot;Helvetica Neue&quot;, sans-serif; font-size: 12px; font-weight: 200;" x="0" y="151.19279975891115" dx="0em" dy="0.3em" fill="rgb(50, 49, 63)" stroke="none" stroke-width="1px">1</text><text style="text-anchor: end; visibility: inherit; font-family: &quot;Helvetica Neue&quot;, sans-serif; font-size: 12px; font-weight: 200;" x="0" y="113.39459981918338" dx="0em" dy="0.3em" fill="rgb(50, 49, 63)" stroke="none" stroke-width="1px">1.2</text><text style="text-anchor: end; visibility: inherit; font-family: &quot;Helvetica Neue&quot;, sans-serif; font-size: 12px; font-weight: 200;" x="0" y="75.59639987945559" dx="0em" dy="0.3em" fill="rgb(50, 49, 63)" stroke="none" stroke-width="1px">1.4</text><text style="text-anchor: end; visibility: inherit; font-family: &quot;Helvetica Neue&quot;, sans-serif; font-size: 12px; font-weight: 200;" x="0" y="37.798199939727795" dx="0em" dy="0.3em" fill="rgb(50, 49, 63)" stroke="none" stroke-width="1px">1.6</text><text style="text-anchor: end; visibility: hidden; font-family: &quot;Helvetica Neue&quot;, sans-serif; font-size: 12px; font-weight: 200;" x="0" y="0" dx="0em" dy="0.3em" fill="rgb(50, 49, 63)" stroke="none" stroke-width="1px">1.8</text></g><line x1="51.41200256347656" y1="0" x2="51.41200256347656" y2="377.98199939727783" fill="rgb(0, 0, 0)" stroke="rgb(204, 204, 204)" stroke-width="1px"></line></g></g><g transform="translate(51, 0)" clip-path="url(#clip_0)"><clipPath id="clip_0"><rect width="533" height="377"></rect></clipPath><g><g><g><line x1="0" y1="0" x2="0" y2="377.98199939727783" fill="rgb(0, 0, 0)" stroke="rgb(60, 60, 60)" stroke-width="1px" opacity="0.25"></line><line x1="38.12535695975168" y1="0" x2="38.12535695975168" y2="377.98199939727783" fill="rgb(0, 0, 0)" stroke="rgb(60, 60, 60)" stroke-width="1px" opacity="0.25"></line><line x1="76.25071391950335" y1="0" x2="76.25071391950335" y2="377.98199939727783" fill="rgb(0, 0, 0)" stroke="rgb(60, 60, 60)" stroke-width="1px" opacity="0.25"></line><line x1="114.37607087925502" y1="0" x2="114.37607087925502" y2="377.98199939727783" fill="rgb(0, 0, 0)" stroke="rgb(60, 60, 60)" stroke-width="1px" opacity="0.25"></line><line x1="152.5014278390067" y1="0" x2="152.5014278390067" y2="377.98199939727783" fill="rgb(0, 0, 0)" stroke="rgb(60, 60, 60)" stroke-width="1px" opacity="0.25"></line><line x1="190.6267847987584" y1="0" x2="190.6267847987584" y2="377.98199939727783" fill="rgb(0, 0, 0)" stroke="rgb(60, 60, 60)" stroke-width="1px" opacity="0.25"></line><line x1="228.75214175851005" y1="0" x2="228.75214175851005" y2="377.98199939727783" fill="rgb(0, 0, 0)" stroke="rgb(60, 60, 60)" stroke-width="1px" opacity="0.25"></line><line x1="266.87749871826173" y1="0" x2="266.87749871826173" y2="377.98199939727783" fill="rgb(0, 0, 0)" stroke="rgb(60, 60, 60)" stroke-width="1px" opacity="0.25"></line><line x1="305.0028556780134" y1="0" x2="305.0028556780134" y2="377.98199939727783" fill="rgb(0, 0, 0)" stroke="rgb(60, 60, 60)" stroke-width="1px" opacity="0.25"></line><line x1="343.1282126377651" y1="0" x2="343.1282126377651" y2="377.98199939727783" fill="rgb(0, 0, 0)" stroke="rgb(60, 60, 60)" stroke-width="1px" opacity="0.25"></line><line x1="381.2535695975168" y1="0" x2="381.2535695975168" y2="377.98199939727783" fill="rgb(0, 0, 0)" stroke="rgb(60, 60, 60)" stroke-width="1px" opacity="0.25"></line><line x1="419.3789265572684" y1="0" x2="419.3789265572684" y2="377.98199939727783" fill="rgb(0, 0, 0)" stroke="rgb(60, 60, 60)" stroke-width="1px" opacity="0.25"></line><line x1="457.5042835170201" y1="0" x2="457.5042835170201" y2="377.98199939727783" fill="rgb(0, 0, 0)" stroke="rgb(60, 60, 60)" stroke-width="1px" opacity="0.25"></line><line x1="495.6296404767718" y1="0" x2="495.6296404767718" y2="377.98199939727783" fill="rgb(0, 0, 0)" stroke="rgb(60, 60, 60)" stroke-width="1px" opacity="0.25"></line><line x1="533.7549974365235" y1="0" x2="533.7549974365235" y2="377.98199939727783" fill="rgb(0, 0, 0)" stroke="rgb(60, 60, 60)" stroke-width="1px" opacity="0.25"></line></g><g><line x1="0" y1="377.98199939727783" x2="533.7549974365235" y2="377.98199939727783" fill="rgb(0, 0, 0)" stroke="rgb(60, 60, 60)" stroke-width="1px" opacity="0.25"></line><line x1="0" y1="340.18379945755004" x2="533.7549974365235" y2="340.18379945755004" fill="rgb(0, 0, 0)" stroke="rgb(60, 60, 60)" stroke-width="1px" opacity="0.25"></line><line x1="0" y1="302.38559951782224" x2="533.7549974365235" y2="302.38559951782224" fill="rgb(0, 0, 0)" stroke="rgb(60, 60, 60)" stroke-width="1px" opacity="0.25"></line><line x1="0" y1="264.58739957809445" x2="533.7549974365235" y2="264.58739957809445" fill="rgb(0, 0, 0)" stroke="rgb(60, 60, 60)" stroke-width="1px" opacity="0.25"></line><line x1="0" y1="226.78919963836668" x2="533.7549974365235" y2="226.78919963836668" fill="rgb(0, 0, 0)" stroke="rgb(60, 60, 60)" stroke-width="1px" opacity="0.25"></line><line x1="0" y1="188.99099969863892" x2="533.7549974365235" y2="188.99099969863892" fill="rgb(0, 0, 0)" stroke="rgb(60, 60, 60)" stroke-width="1px" opacity="0.25"></line><line x1="0" y1="151.19279975891115" x2="533.7549974365235" y2="151.19279975891115" fill="rgb(0, 0, 0)" stroke="rgb(60, 60, 60)" stroke-width="1px" opacity="0.25"></line><line x1="0" y1="113.39459981918338" x2="533.7549974365235" y2="113.39459981918338" fill="rgb(0, 0, 0)" stroke="rgb(60, 60, 60)" stroke-width="1px" opacity="0.25"></line><line x1="0" y1="75.59639987945559" x2="533.7549974365235" y2="75.59639987945559" fill="rgb(0, 0, 0)" stroke="rgb(60, 60, 60)" stroke-width="1px" opacity="0.25"></line><line x1="0" y1="37.798199939727795" x2="533.7549974365235" y2="37.798199939727795" fill="rgb(0, 0, 0)" stroke="rgb(60, 60, 60)" stroke-width="1px" opacity="0.25"></line><line x1="0" y1="0" x2="533.7549974365235" y2="0" fill="rgb(0, 0, 0)" stroke="rgb(60, 60, 60)" stroke-width="1px" opacity="0.25"></line></g></g></g><g><g><line x1="0" y1="340.18379945755004" x2="533.7549974365235" y2="340.18379945755004" fill="rgb(0, 0, 0)" stroke="rgb(153, 153, 153)" stroke-width="1.5px"></line></g></g><g><g><line x1="38.12535695975168" y1="0" x2="38.12535695975168" y2="377.98199939727783" fill="rgb(0, 0, 0)" stroke="rgb(153, 153, 153)" stroke-width="1.5px"></line></g></g><g><g><g><g><g><path style="fill: none;" stroke="rgb(0, 119, 187)" stroke-width="2px" d="M38.12535695975168,73.98831749113918L45.75042835170201,101.23589642399412L53.37549974365235,125.10119651944407L61.000571135602684,145.8114058393939L68.62564252755301,163.57904435373501L76.25071391950335,178.6093479298052L83.87578531145368,191.2117693412977L91.50085670340403,201.6838929974149L99.12592809535437,210.34415073423241L106.7509994873047,217.53743023629573L114.37607087925502,223.50961528284336L122.00114227120537,228.56558827627987L129.6262136631557,232.9617224419456L137.25128505510602,236.84957250504675L144.87635644705637,240.33248601253075L152.5014278390067,243.4586862623432L160.12649923095702,246.29242860978098L167.75157062290737,248.8809547172777L175.3766420148577,251.2750871146152L183.00171340680805,253.5069281838071L190.6267847987584,255.5150353047141L198.25185619070874,257.3867528524216L205.87692758265905,259.14308313596115L213.5019989746094,260.75208487529324L221.12707036655974,262.2506224892734L228.75214175851005,263.6331424975235L236.3772131504604,264.9298631269052L244.00228454241073,266.1764315849778L251.62735593436105,267.3325434661729L259.2524273263114,268.3735767237994L266.87749871826173,269.3399170127595L274.50257011021205,270.26528735066796L282.1276415021624,271.16274363117924L289.75271289411273,272.00757103507783L297.3777842860631,272.8181356070373L305.0028556780134,273.5742513829846L312.62792706996373,274.286243895009L320.25299846191405,274.9573976519213L327.8780698538644,275.57756925542867L335.50314124581473,276.17790263661914L343.1282126377651,276.7253880025844L350.7532840297154,277.2606322856887L358.37835542166573,277.76973557164274L366.0034268136161,278.2610049466956L373.6284982055664,278.732735659129L381.2535695975168,279.20315855390805L388.8786409894671,279.6441550266107L396.5037123814175,280.0825385817429L404.12878377336773,280.4551543721319L411.7538551653181,280.8201954806926L419.3789265572684,281.1788984333257L427.0039979492188,281.53910869150013L434.6290693411691,281.8634664818022L442.25414073311947,282.1690118234213L449.8792121250698,282.46676852451037L457.5042835170201,282.77847491176857L465.12935490897047,283.07494021274806L472.7544263009208,283.36488779965543L480.37949769287115,283.6468131275076L488.00456908482147,283.89861547894276" fill="none"></path></g><g><path style="fill: none;" stroke="rgb(255, 112, 67)" stroke-width="2px" d="M38.12535695975168,-15.8477248422642L45.75042835170201,33.76428027275318L53.37549974365235,68.41349260625731L61.000571135602684,98.1731870946083L68.62564252755301,122.84050375206652L76.25071391950335,142.96309936488623L83.87578531145368,160.11501370651814L91.50085670340403,173.93127585910744L99.12592809535437,185.32094676290134L106.7509994873047,194.58338217144706L114.37607087925502,202.57805771172875L122.00114227120537,208.8416085192131L129.6262136631557,214.54391152330933L137.25128505510602,219.2678024671159L144.87635644705637,223.371581786676L152.5014278390067,227.34009057856608L160.12649923095702,230.89765469945164L167.75157062290737,233.75925948974563L175.3766420148577,236.50630929976597L183.00171340680805,239.34478474764168L190.6267847987584,241.37155486038284L198.25185619070874,243.8598113175332L205.87692758265905,246.11441798917573L213.5019989746094,247.65463255255517L221.12707036655974,249.2980844977528L228.75214175851005,251.3882952219809L236.3772131504604,253.20821637305787L244.00228454241073,254.43348166206596L251.62735593436105,255.684788742222L259.2524273263114,257.1460513573254L266.87749871826173,258.22141965460264L274.50257011021205,259.37377248114774L282.1276415021624,260.2755058622056L289.75271289411273,261.1613979076226L297.3777842860631,262.0785139587327L305.0028556780134,263.450111654095L312.62792706996373,264.238559600283L320.25299846191405,264.9752999149187L327.8780698538644,265.9515947407011L335.50314124581473,266.59565090097783L343.1282126377651,266.9532355938372L350.7532840297154,267.6367128117617L358.37835542166573,268.2926678941306L366.0034268136161,268.9543215123289L373.6284982055664,269.35583535037404L381.2535695975168,270.00370496585816L388.8786409894671,270.6187398958097L396.5037123814175,271.09409100081746L404.12878377336773,271.75249804059797L411.7538551653181,271.8547108057963L419.3789265572684,272.2754265216827L427.0039979492188,272.7766355121461L434.6290693411691,273.2126887507916L442.25414073311947,274.0262907697671L449.8792121250698,274.1315589149745L457.5042835170201,274.32397144495445L465.12935490897047,274.5438115744703L472.7544263009208,275.01858734510114L480.37949769287115,275.33335393705914L488.00456908482147,275.75671877286055" fill="none"></path></g></g></g></g><g opacity="0.2"><g><g><g><path style="fill: none;" stroke="rgb(0, 119, 187)" stroke-width="2px" d="M38.12535695975168,73.98831749113918L45.75042835170201,117.58444378370706L53.37549974365235,148.011884611076L61.000571135602684,170.16661199965486L68.62564252755301,186.77647319805888L76.25071391950335,199.40166868479776L83.87578531145368,209.23343359847442L91.50085670340403,216.95234982042084L99.12592809535437,223.11634872757546L106.7509994873047,228.21861196329354L114.37607087925502,232.41372557384548L122.00114227120537,236.12203338467614L129.6262136631557,239.54156954964645L137.25128505510602,242.67373089669036L144.87635644705637,245.55276223967232L152.5014278390067,248.1457817984376L160.12649923095702,250.54184298614592L167.75157062290737,252.76308665202447L175.3766420148577,254.86592098864764L183.00171340680805,256.854485788481L190.6267847987584,258.52708585670763L198.25185619070874,260.19426758431956L205.87692758265905,261.7775438855929L213.5019989746094,263.1655684241317L221.12707036655974,264.4984182592798L228.75214175851005,265.70691661408244L236.3772131504604,266.87494075302493L244.00228454241073,268.0462823583106L251.62735593436105,269.0667102230231L259.2524273263114,269.9351260348758L266.87749871826173,270.78942712575076L274.50257011021205,271.653342673413L282.1276415021624,272.5089279448079L289.75271289411273,273.27481208041246L297.3777842860631,274.03398243014095L305.0028556780134,274.7084250274084L312.62792706996373,275.35423265202996L320.25299846191405,275.96412828105946L327.8780698538644,276.50782665723546L335.50314124581473,277.07840270639855L343.1282126377651,277.5466160504345L350.7532840297154,278.06349870970126L358.37835542166573,278.5333905002063L366.0034268136161,278.99790900906214L373.6284982055664,279.4403317276565L381.2535695975168,279.9087928960033L388.8786409894671,280.3056497356234L396.5037123814175,280.7401139144166L404.12878377336773,281.014078057703L411.7538551653181,281.3677571435262L419.3789265572684,281.71695286227106L427.0039979492188,282.07942407875913L434.6290693411691,282.350003167254L442.25414073311947,282.6273298358491L449.8792121250698,282.9134035761435L457.5042835170201,283.24603449265555L465.12935490897047,283.5196381642171L472.7544263009208,283.7998091800164L480.37949769287115,284.0697011192857L488.00456908482147,284.27631900609555" fill="none"></path></g><g><path style="fill: none;" stroke="rgb(255, 112, 67)" stroke-width="2px" d="M38.12535695975168,-15.8477248422642L45.75042835170201,63.531483341763476L53.37549974365235,101.67673644642133L61.000571135602684,133.17058781290896L68.62564252755301,155.04615238004405L76.25071391950335,170.79989323183653L83.87578531145368,184.64252564568122L91.50085670340403,194.07551871369935L99.12592809535437,202.11849901632104L106.7509994873047,208.33701927186513L114.37607087925502,214.4975599034091L122.00114227120537,218.2028487635438L129.6262136631557,223.07874702077297L137.25128505510602,226.34438428869845L144.87635644705637,229.5224269274759L152.5014278390067,233.2900548665336L160.12649923095702,236.23249543887184L167.75157062290737,238.05094011404034L175.3766420148577,240.6264655294071L183.00171340680805,243.60223847155618L190.6267847987584,244.41159887660476L198.25185619070874,247.5921141261201L205.87692758265905,249.49628348336378L213.5019989746094,249.9649361523145L221.12707036655974,251.76325073459623L228.75214175851005,254.52360239452915L236.3772131504604,255.93809344299385L244.00228454241073,256.2713777145073L251.62735593436105,257.5617482098254L259.2524273263114,259.3379444723628L266.87749871826173,259.83447174391466L274.50257011021205,261.1023014916858L282.1276415021624,261.62810582614355L289.75271289411273,262.4902359122935L297.3777842860631,263.45418799598315L305.0028556780134,265.5075081617704L312.62792706996373,265.4212315073665L320.25299846191405,266.08041038003313L327.8780698538644,267.41603697393697L335.50314124581473,267.56173513924057L343.1282126377651,267.48961263240926L350.7532840297154,268.6619286378262L358.37835542166573,269.27660051721045L366.0034268136161,269.94680193933976L373.6284982055664,269.95810610733747L381.2535695975168,270.97550938898337L388.8786409894671,271.5412922906795L396.5037123814175,271.80711765830245L404.12878377336773,272.7401086002466L411.7538551653181,272.00802995359174L419.3789265572684,272.90650009550706L427.0039979492188,273.52844899783753L434.6290693411691,273.86676860875804L442.25414073311947,275.2466937982283L449.8792121250698,274.2894611327854L457.5042835170201,274.6125902399242L465.12935490897047,274.8735717687439L472.7544263009208,275.7307510010473L480.37949769287115,275.80550382499615L488.00456908482147,276.3917660265626" fill="none"></path></g></g></g></g></g><g><g opacity="0.2934"><span fill="rgb(0, 0, 0)" stroke="none" stroke-width="1px">Alt + Scroll to Zoom</span></g></g></g><g transform="translate(51, 377)" clip-path="url(#clip_1)"><clipPath id="clip_1"><rect width="533" height="22"></rect></clipPath><g><g><line x1="0" y1="0" x2="0" y2="5" style="visibility: inherit;" fill="rgb(0, 0, 0)" stroke="rgb(204, 204, 204)" stroke-width="1px"></line><line x1="38.12535695975168" y1="0" x2="38.12535695975168" y2="5" style="visibility: inherit;" fill="rgb(0, 0, 0)" stroke="rgb(204, 204, 204)" stroke-width="1px"></line><line x1="76.25071391950335" y1="0" x2="76.25071391950335" y2="5" style="visibility: inherit;" fill="rgb(0, 0, 0)" stroke="rgb(204, 204, 204)" stroke-width="1px"></line><line x1="114.37607087925502" y1="0" x2="114.37607087925502" y2="5" style="visibility: inherit;" fill="rgb(0, 0, 0)" stroke="rgb(204, 204, 204)" stroke-width="1px"></line><line x1="152.5014278390067" y1="0" x2="152.5014278390067" y2="5" style="visibility: inherit;" fill="rgb(0, 0, 0)" stroke="rgb(204, 204, 204)" stroke-width="1px"></line><line x1="190.6267847987584" y1="0" x2="190.6267847987584" y2="5" style="visibility: inherit;" fill="rgb(0, 0, 0)" stroke="rgb(204, 204, 204)" stroke-width="1px"></line><line x1="228.75214175851005" y1="0" x2="228.75214175851005" y2="5" style="visibility: inherit;" fill="rgb(0, 0, 0)" stroke="rgb(204, 204, 204)" stroke-width="1px"></line><line x1="266.87749871826173" y1="0" x2="266.87749871826173" y2="5" style="visibility: inherit;" fill="rgb(0, 0, 0)" stroke="rgb(204, 204, 204)" stroke-width="1px"></line><line x1="305.0028556780134" y1="0" x2="305.0028556780134" y2="5" style="visibility: inherit;" fill="rgb(0, 0, 0)" stroke="rgb(204, 204, 204)" stroke-width="1px"></line><line x1="343.1282126377651" y1="0" x2="343.1282126377651" y2="5" style="visibility: inherit;" fill="rgb(0, 0, 0)" stroke="rgb(204, 204, 204)" stroke-width="1px"></line><line x1="381.2535695975168" y1="0" x2="381.2535695975168" y2="5" style="visibility: inherit;" fill="rgb(0, 0, 0)" stroke="rgb(204, 204, 204)" stroke-width="1px"></line><line x1="419.3789265572684" y1="0" x2="419.3789265572684" y2="5" style="visibility: inherit;" fill="rgb(0, 0, 0)" stroke="rgb(204, 204, 204)" stroke-width="1px"></line><line x1="457.5042835170201" y1="0" x2="457.5042835170201" y2="5" style="visibility: inherit;" fill="rgb(0, 0, 0)" stroke="rgb(204, 204, 204)" stroke-width="1px"></line><line x1="495.6296404767718" y1="0" x2="495.6296404767718" y2="5" style="visibility: inherit;" fill="rgb(0, 0, 0)" stroke="rgb(204, 204, 204)" stroke-width="1px"></line><line x1="533.7549974365235" y1="0" x2="533.7549974365235" y2="5" style="visibility: inherit;" fill="rgb(0, 0, 0)" stroke="rgb(204, 204, 204)" stroke-width="1px"></line></g><g transform="translate(0, 8)"><text style="text-anchor: middle; visibility: hidden; font-family: &quot;Helvetica Neue&quot;, sans-serif; font-size: 12px; font-weight: 200;" x="0" y="0" dx="0em" dy="0.95em" fill="rgb(50, 49, 63)" stroke="none" stroke-width="1px">-5</text><text style="text-anchor: middle; visibility: inherit; font-family: &quot;Helvetica Neue&quot;, sans-serif; font-size: 12px; font-weight: 200;" x="38.12535695975168" y="0" dx="0em" dy="0.95em" fill="rgb(50, 49, 63)" stroke="none" stroke-width="1px">0</text><text style="text-anchor: middle; visibility: inherit; font-family: &quot;Helvetica Neue&quot;, sans-serif; font-size: 12px; font-weight: 200;" x="76.25071391950335" y="0" dx="0em" dy="0.95em" fill="rgb(50, 49, 63)" stroke="none" stroke-width="1px">5</text><text style="text-anchor: middle; visibility: inherit; font-family: &quot;Helvetica Neue&quot;, sans-serif; font-size: 12px; font-weight: 200;" x="114.37607087925502" y="0" dx="0em" dy="0.95em" fill="rgb(50, 49, 63)" stroke="none" stroke-width="1px">10</text><text style="text-anchor: middle; visibility: inherit; font-family: &quot;Helvetica Neue&quot;, sans-serif; font-size: 12px; font-weight: 200;" x="152.5014278390067" y="0" dx="0em" dy="0.95em" fill="rgb(50, 49, 63)" stroke="none" stroke-width="1px">15</text><text style="text-anchor: middle; visibility: inherit; font-family: &quot;Helvetica Neue&quot;, sans-serif; font-size: 12px; font-weight: 200;" x="190.6267847987584" y="0" dx="0em" dy="0.95em" fill="rgb(50, 49, 63)" stroke="none" stroke-width="1px">20</text><text style="text-anchor: middle; visibility: inherit; font-family: &quot;Helvetica Neue&quot;, sans-serif; font-size: 12px; font-weight: 200;" x="228.75214175851005" y="0" dx="0em" dy="0.95em" fill="rgb(50, 49, 63)" stroke="none" stroke-width="1px">25</text><text style="text-anchor: middle; visibility: inherit; font-family: &quot;Helvetica Neue&quot;, sans-serif; font-size: 12px; font-weight: 200;" x="266.87749871826173" y="0" dx="0em" dy="0.95em" fill="rgb(50, 49, 63)" stroke="none" stroke-width="1px">30</text><text style="text-anchor: middle; visibility: inherit; font-family: &quot;Helvetica Neue&quot;, sans-serif; font-size: 12px; font-weight: 200;" x="305.0028556780134" y="0" dx="0em" dy="0.95em" fill="rgb(50, 49, 63)" stroke="none" stroke-width="1px">35</text><text style="text-anchor: middle; visibility: inherit; font-family: &quot;Helvetica Neue&quot;, sans-serif; font-size: 12px; font-weight: 200;" x="343.1282126377651" y="0" dx="0em" dy="0.95em" fill="rgb(50, 49, 63)" stroke="none" stroke-width="1px">40</text><text style="text-anchor: middle; visibility: inherit; font-family: &quot;Helvetica Neue&quot;, sans-serif; font-size: 12px; font-weight: 200;" x="381.2535695975168" y="0" dx="0em" dy="0.95em" fill="rgb(50, 49, 63)" stroke="none" stroke-width="1px">45</text><text style="text-anchor: middle; visibility: inherit; font-family: &quot;Helvetica Neue&quot;, sans-serif; font-size: 12px; font-weight: 200;" x="419.3789265572684" y="0" dx="0em" dy="0.95em" fill="rgb(50, 49, 63)" stroke="none" stroke-width="1px">50</text><text style="text-anchor: middle; visibility: inherit; font-family: &quot;Helvetica Neue&quot;, sans-serif; font-size: 12px; font-weight: 200;" x="457.5042835170201" y="0" dx="0em" dy="0.95em" fill="rgb(50, 49, 63)" stroke="none" stroke-width="1px">55</text><text style="text-anchor: middle; visibility: inherit; font-family: &quot;Helvetica Neue&quot;, sans-serif; font-size: 12px; font-weight: 200;" x="495.6296404767718" y="0" dx="0em" dy="0.95em" fill="rgb(50, 49, 63)" stroke="none" stroke-width="1px">60</text><text style="text-anchor: middle; visibility: hidden; font-family: &quot;Helvetica Neue&quot;, sans-serif; font-size: 12px; font-weight: 200;" x="533.7549974365235" y="0" dx="0em" dy="0.95em" fill="rgb(50, 49, 63)" stroke="none" stroke-width="1px">65</text></g><line x1="0" y1="0" x2="533.7549974365235" y2="0" fill="rgb(0, 0, 0)" stroke="rgb(204, 204, 204)" stroke-width="1px"></line></g></g></g></g></svg>