<svg viewBox="0 0 848.36669921875 400" xmlns="http://www.w3.org/2000/svg"><g><g><g><g><g><line x1="51.41200256347656" y1="377.98199939727783" x2="46.41200256347656" y2="377.98199939727783" style="visibility: inherit;" fill="rgb(0, 0, 0)" stroke="rgb(204, 204, 204)" stroke-width="1px"></line><line x1="51.41200256347656" y1="330.7342494726181" x2="46.41200256347656" y2="330.7342494726181" style="visibility: inherit;" fill="rgb(0, 0, 0)" stroke="rgb(204, 204, 204)" stroke-width="1px"></line><line x1="51.41200256347656" y1="283.4864995479584" x2="46.41200256347656" y2="283.4864995479584" style="visibility: inherit;" fill="rgb(0, 0, 0)" stroke="rgb(204, 204, 204)" stroke-width="1px"></line><line x1="51.41200256347656" y1="236.23874962329862" x2="46.41200256347656" y2="236.23874962329862" style="visibility: inherit;" fill="rgb(0, 0, 0)" stroke="rgb(204, 204, 204)" stroke-width="1px"></line><line x1="51.41200256347656" y1="188.9909996986389" x2="46.41200256347656" y2="188.9909996986389" style="visibility: inherit;" fill="rgb(0, 0, 0)" stroke="rgb(204, 204, 204)" stroke-width="1px"></line><line x1="51.41200256347656" y1="141.7432497739792" x2="46.41200256347656" y2="141.7432497739792" style="visibility: inherit;" fill="rgb(0, 0, 0)" stroke="rgb(204, 204, 204)" stroke-width="1px"></line><line x1="51.41200256347656" y1="94.49549984931946" x2="46.41200256347656" y2="94.49549984931946" style="visibility: inherit;" fill="rgb(0, 0, 0)" stroke="rgb(204, 204, 204)" stroke-width="1px"></line><line x1="51.41200256347656" y1="47.24774992465973" x2="46.41200256347656" y2="47.24774992465973" style="visibility: inherit;" fill="rgb(0, 0, 0)" stroke="rgb(204, 204, 204)" stroke-width="1px"></line><line x1="51.41200256347656" y1="0" x2="46.41200256347656" y2="0" style="visibility: inherit;" fill="rgb(0, 0, 0)" stroke="rgb(204, 204, 204)" stroke-width="1px"></line></g><g transform="translate(41.41200256347656, 0)"><text style="text-anchor: end; visibility: hidden; font-family: &quot;Helvetica Neue&quot;, sans-serif; font-size: 12px; font-weight: 200;" x="0" y="377.98199939727783" dx="0em" dy="0.3em" fill="rgb(50, 49, 63)" stroke="none" stroke-width="1px">-0.2</text><text style="text-anchor: end; visibility: inherit; font-family: &quot;Helvetica Neue&quot;, sans-serif; font-size: 12px; font-weight: 200;" x="0" y="330.7342494726181" dx="0em" dy="0.3em" fill="rgb(50, 49, 63)" stroke="none" stroke-width="1px">0</text><text style="text-anchor: end; visibility: inherit; font-family: &quot;Helvetica Neue&quot;, sans-serif; font-size: 12px; font-weight: 200;" x="0" y="283.4864995479584" dx="0em" dy="0.3em" fill="rgb(50, 49, 63)" stroke="none" stroke-width="1px">0.2</text><text style="text-anchor: end; visibility: inherit; font-family: &quot;Helvetica Neue&quot;, sans-serif; font-size: 12px; font-weight: 200;" x="0" y="236.23874962329862" dx="0em" dy="0.3em" fill="rgb(50, 49, 63)" stroke="none" stroke-width="1px">0.4</text><text style="text-anchor: end; visibility: inherit; font-family: &quot;Helvetica Neue&quot;, sans-serif; font-size: 12px; font-weight: 200;" x="0" y="188.9909996986389" dx="0em" dy="0.3em" fill="rgb(50, 49, 63)" stroke="none" stroke-width="1px">0.6</text><text style="text-anchor: end; visibility: inherit; font-family: &quot;Helvetica Neue&quot;, sans-serif; font-size: 12px; font-weight: 200;" x="0" y="141.7432497739792" dx="0em" dy="0.3em" fill="rgb(50, 49, 63)" stroke="none" stroke-width="1px">0.8</text><text style="text-anchor: end; visibility: inherit; font-family: &quot;Helvetica Neue&quot;, sans-serif; font-size: 12px; font-weight: 200;" x="0" y="94.49549984931946" dx="0em" dy="0.3em" fill="rgb(50, 49, 63)" stroke="none" stroke-width="1px">1</text><text style="text-anchor: end; visibility: inherit; font-family: &quot;Helvetica Neue&quot;, sans-serif; font-size: 12px; font-weight: 200;" x="0" y="47.24774992465973" dx="0em" dy="0.3em" fill="rgb(50, 49, 63)" stroke="none" stroke-width="1px">1.2</text><text style="text-anchor: end; visibility: hidden; font-family: &quot;Helvetica Neue&quot;, sans-serif; font-size: 12px; font-weight: 200;" x="0" y="0" dx="0em" dy="0.3em" fill="rgb(50, 49, 63)" stroke="none" stroke-width="1px">1.4</text></g><line x1="51.41200256347656" y1="0" x2="51.41200256347656" y2="377.98199939727783" fill="rgb(0, 0, 0)" stroke="rgb(204, 204, 204)" stroke-width="1px"></line></g></g><g transform="translate(51, 0)" clip-path="url(#clip_0)"><clipPath id="clip_0"><rect width="796" height="377"></rect></clipPath><g><g><g><line x1="0" y1="0" x2="0" y2="377.98199939727783" fill="rgb(0, 0, 0)" stroke="rgb(60, 60, 60)" stroke-width="1px" opacity="0.25"></line><line x1="56.92535695975167" y1="0" x2="56.92535695975167" y2="377.98199939727783" fill="rgb(0, 0, 0)" stroke="rgb(60, 60, 60)" stroke-width="1px" opacity="0.25"></line><line x1="113.85071391950333" y1="0" x2="113.85071391950333" y2="377.98199939727783" fill="rgb(0, 0, 0)" stroke="rgb(60, 60, 60)" stroke-width="1px" opacity="0.25"></line><line x1="170.776070879255" y1="0" x2="170.776070879255" y2="377.98199939727783" fill="rgb(0, 0, 0)" stroke="rgb(60, 60, 60)" stroke-width="1px" opacity="0.25"></line><line x1="227.70142783900667" y1="0" x2="227.70142783900667" y2="377.98199939727783" fill="rgb(0, 0, 0)" stroke="rgb(60, 60, 60)" stroke-width="1px" opacity="0.25"></line><line x1="284.62678479875837" y1="0" x2="284.62678479875837" y2="377.98199939727783" fill="rgb(0, 0, 0)" stroke="rgb(60, 60, 60)" stroke-width="1px" opacity="0.25"></line><line x1="341.55214175851" y1="0" x2="341.55214175851" y2="377.98199939727783" fill="rgb(0, 0, 0)" stroke="rgb(60, 60, 60)" stroke-width="1px" opacity="0.25"></line><line x1="398.4774987182617" y1="0" x2="398.4774987182617" y2="377.98199939727783" fill="rgb(0, 0, 0)" stroke="rgb(60, 60, 60)" stroke-width="1px" opacity="0.25"></line><line x1="455.40285567801334" y1="0" x2="455.40285567801334" y2="377.98199939727783" fill="rgb(0, 0, 0)" stroke="rgb(60, 60, 60)" stroke-width="1px" opacity="0.25"></line><line x1="512.3282126377651" y1="0" x2="512.3282126377651" y2="377.98199939727783" fill="rgb(0, 0, 0)" stroke="rgb(60, 60, 60)" stroke-width="1px" opacity="0.25"></line><line x1="569.2535695975167" y1="0" x2="569.2535695975167" y2="377.98199939727783" fill="rgb(0, 0, 0)" stroke="rgb(60, 60, 60)" stroke-width="1px" opacity="0.25"></line><line x1="626.1789265572684" y1="0" x2="626.1789265572684" y2="377.98199939727783" fill="rgb(0, 0, 0)" stroke="rgb(60, 60, 60)" stroke-width="1px" opacity="0.25"></line><line x1="683.10428351702" y1="0" x2="683.10428351702" y2="377.98199939727783" fill="rgb(0, 0, 0)" stroke="rgb(60, 60, 60)" stroke-width="1px" opacity="0.25"></line><line x1="740.0296404767718" y1="0" x2="740.0296404767718" y2="377.98199939727783" fill="rgb(0, 0, 0)" stroke="rgb(60, 60, 60)" stroke-width="1px" opacity="0.25"></line><line x1="796.9549974365234" y1="0" x2="796.9549974365234" y2="377.98199939727783" fill="rgb(0, 0, 0)" stroke="rgb(60, 60, 60)" stroke-width="1px" opacity="0.25"></line></g><g><line x1="0" y1="377.98199939727783" x2="796.9549974365234" y2="377.98199939727783" fill="rgb(0, 0, 0)" stroke="rgb(60, 60, 60)" stroke-width="1px" opacity="0.25"></line><line x1="0" y1="330.7342494726181" x2="796.9549974365234" y2="330.7342494726181" fill="rgb(0, 0, 0)" stroke="rgb(60, 60, 60)" stroke-width="1px" opacity="0.25"></line><line x1="0" y1="283.4864995479584" x2="796.9549974365234" y2="283.4864995479584" fill="rgb(0, 0, 0)" stroke="rgb(60, 60, 60)" stroke-width="1px" opacity="0.25"></line><line x1="0" y1="236.23874962329862" x2="796.9549974365234" y2="236.23874962329862" fill="rgb(0, 0, 0)" stroke="rgb(60, 60, 60)" stroke-width="1px" opacity="0.25"></line><line x1="0" y1="188.9909996986389" x2="796.9549974365234" y2="188.9909996986389" fill="rgb(0, 0, 0)" stroke="rgb(60, 60, 60)" stroke-width="1px" opacity="0.25"></line><line x1="0" y1="141.7432497739792" x2="796.9549974365234" y2="141.7432497739792" fill="rgb(0, 0, 0)" stroke="rgb(60, 60, 60)" stroke-width="1px" opacity="0.25"></line><line x1="0" y1="94.49549984931946" x2="796.9549974365234" y2="94.49549984931946" fill="rgb(0, 0, 0)" stroke="rgb(60, 60, 60)" stroke-width="1px" opacity="0.25"></line><line x1="0" y1="47.24774992465973" x2="796.9549974365234" y2="47.24774992465973" fill="rgb(0, 0, 0)" stroke="rgb(60, 60, 60)" stroke-width="1px" opacity="0.25"></line><line x1="0" y1="0" x2="796.9549974365234" y2="0" fill="rgb(0, 0, 0)" stroke="rgb(60, 60, 60)" stroke-width="1px" opacity="0.25"></line></g></g></g><g><g><line x1="0" y1="330.7342494726181" x2="796.9549974365234" y2="330.7342494726181" fill="rgb(0, 0, 0)" stroke="rgb(153, 153, 153)" stroke-width="1.5px"></line></g></g><g><g><line x1="56.92535695975167" y1="0" x2="56.92535695975167" y2="377.98199939727783" fill="rgb(0, 0, 0)" stroke="rgb(153, 153, 153)" stroke-width="1.5px"></line></g></g><g><g><g><g><g><path style="fill: none;" stroke="rgb(0, 119, 187)" stroke-width="2px" d="M56.92535695975167,-2.010102985395463L68.310428351702,32.04937068067318L79.69549974365235,61.880995799985556L91.08057113560267,87.76875744992287L102.465642527553,109.97830559284927L113.85071391950333,128.76618506293704L125.23578531145367,144.51921182730266L136.620856703404,157.60936639744915L148.00592809535436,168.43468856847105L159.3909994873047,177.4262879460502L170.776070879255,184.89151925423474L182.16114227120534,191.21148549603035L193.54621366315567,196.70665320311252L204.931285055106,201.56646578198897L216.31635644705634,205.92010766634397L227.70142783900667,209.82785797860953L239.086499230957,213.37003591290676L250.47157062290734,216.60569354727764L261.8566420148577,219.5983590439495L273.241713406808,222.38816038043942L284.62678479875837,224.8982942815732L296.0118561907087,227.23794121620747L307.39692758265903,229.433354070632L318.7819989746094,231.44460624479706L330.1670703665597,233.3177782622723L341.55214175851,235.04592827258497L352.93721315046037,236.66682905931202L364.32228454241067,238.22503963190283L375.70735593436103,239.67017948339668L387.09242732631134,240.97147105542973L398.4774987182617,242.1793964166299L409.862570110212,243.33610933901548L421.24764150216237,244.4579296896546L432.6327128941127,245.51396394452783L444.01778428606303,246.5271696594771L455.40285567801334,247.4723143794113L466.7879270699637,248.3623050194418L478.172998461914,249.20124721558219L489.5580698538644,249.97646171996638L500.9431412458147,250.7268784464544L512.3282126377651,251.411235153911L523.7132840297154,252.08029050779146L535.0983554216657,252.71666961523397L546.483426813616,253.33075633405002L557.8684982055663,253.92041972459177L569.2535695975167,254.5084483430656L580.638640989467,255.0596939339439L592.0237123814175,255.60767337785913L603.4087837733676,256.07344311584546L614.7938551653181,256.52974450154625L626.1789265572684,256.9781231923377L637.5639979492188,257.4283860150557L648.9490693411691,257.83383325293335L660.3341407331194,258.2157649299572L671.7192121250697,258.5879608063185L683.10428351702,258.97759379039127L694.4893549089704,259.3481754166156L705.8744263009207,259.71060990024984L717.259497692871,260.06301656006497L728.6445690848213,260.377769499359" fill="none"></path></g><g><path style="fill: none;" stroke="rgb(255, 112, 67)" stroke-width="2px" d="M79.69549974365235,-8.978634091497838L91.08057113560267,28.220984018940896L102.465642527553,59.05512984076364L113.85071391950333,84.20837435678834L125.23578531145367,105.6482672838282L136.620856703404,122.91859497456483L148.00592809535436,137.15568360430723L159.3909994873047,148.73372786498936L170.776070879255,158.72707229034148L182.16114227120534,166.5565107996969L193.54621366315567,173.6843895548172L204.931285055106,179.58925323457538L216.31635644705634,184.71897738402552L227.70142783900667,189.67961337388815L239.086499230957,194.12656852499506L250.47157062290734,197.70357451286256L261.8566420148577,201.137386775388L273.241713406808,204.68548108523265L284.62678479875837,207.2189437261591L296.0118561907087,210.32926429759704L307.39692758265903,213.1475226371502L318.7819989746094,215.07279084137448L330.1670703665597,217.12710577287152L341.55214175851,219.73986917815665L352.93721315046037,222.01477061700285L364.32228454241067,223.54635222826298L375.70735593436103,225.11048607845802L387.09242732631134,226.93706434733724L398.4774987182617,228.28127471893382L409.862570110212,229.72171575211524L421.24764150216237,230.84888247843753L432.6327128941127,231.95624753520877L444.01778428606303,233.10264259909638L455.40285567801334,234.81713971829927L466.7879270699637,235.80269965103432L478.172998461914,236.7236250443289L489.5580698538644,237.94399357655692L500.9431412458147,238.7490637769028L512.3282126377651,239.19604464297703L523.7132840297154,240.05039116538265L535.0983554216657,240.87033501834378L546.483426813616,241.69740204109166L557.8684982055663,242.1992943386481L569.2535695975167,243.00913135800326L580.638640989467,243.7779250204427L592.0237123814175,244.37211390170236L603.4087837733676,245.19512270142798L614.7938551653181,245.3228886579259L626.1789265572684,245.84878330278383L637.5639979492188,246.4752945408631L648.9490693411691,247.02036108917002L660.3341407331194,248.03736361288944L671.7192121250697,248.16894879439866L683.10428351702,248.4094644568736L694.4893549089704,248.68426461876837L705.8744263009207,249.27773433205695L717.259497692871,249.6711925720045L728.6445690848213,250.20039861675622" fill="none"></path></g></g></g></g><g opacity="0.2"><g><g><g><path style="fill: none;" stroke="rgb(0, 119, 187)" stroke-width="2px" d="M56.92535695975167,-2.010102985395463L68.310428351702,52.48505488031435L79.69549974365235,90.51935591452553L91.08057113560267,118.21276515024908L102.465642527553,138.97509164825414L113.85071391950333,154.7565860066777L125.23578531145367,167.04629214877355L136.620856703404,176.69493742620656L148.00592809535436,184.39993606014986L159.3909994873047,190.77776510479745L170.776070879255,196.0216571179874L182.16114227120534,200.65704188152569L193.54621366315567,204.9314620877386L204.931285055106,208.84666377154346L216.31635644705634,212.44545295027092L227.70142783900667,215.68672739872753L239.086499230957,218.68180388336293L250.47157062290734,221.45835846571111L261.8566420148577,224.08690138649007L273.241713406808,226.57260738628176L284.62678479875837,228.6633574715651L296.0118561907087,230.74733463108L307.39692758265903,232.72643000767164L318.7819989746094,234.46146068084522L330.1670703665597,236.12752297478025L341.55214175851,237.6381459182836L352.93721315046037,239.09817609196173L364.32228454241067,240.56235309856876L375.70735593436103,241.8378879294594L387.09242732631134,242.92340769427526L398.4774987182617,243.991284057869L409.862570110212,245.07117849244682L421.24764150216237,246.14066008169044L432.6327128941127,247.0980152511961L444.01778428606303,248.04697818835672L455.40285567801334,248.89003143494102L466.7879270699637,249.69729096571797L478.172998461914,250.45966050200485L489.5580698538644,251.1392834722249L500.9431412458147,251.85250353367874L512.3282126377651,252.43777021372372L523.7132840297154,253.0838735378071L535.0983554216657,253.67123827593838L546.483426813616,254.25188641200822L557.8684982055663,254.8049148102511L569.2535695975167,255.39049127068466L580.638640989467,255.88656232020975L592.0237123814175,256.42964254370133L603.4087837733676,256.7720977228093L614.7938551653181,257.21419658008824L626.1789265572684,257.65069122851935L637.5639979492188,258.10378024912944L648.9490693411691,258.44200410974804L660.3341407331194,258.7886624454919L671.7192121250697,259.1462546208599L683.10428351702,259.56204326650004L694.4893549089704,259.9040478559519L705.8744263009207,260.254261625701L717.259497692871,260.59162654978763L728.6445690848213,260.84989890829996" fill="none"></path></g><g><path style="fill: none;" stroke="rgb(255, 112, 67)" stroke-width="2px" d="M68.310428351702,-15.081145672115099L79.69549974365235,32.60042070870725L91.08057113560267,71.96773491681671L102.465642527553,99.31219062573558L113.85071391950333,119.00436669047622L125.23578531145367,136.30765720778203L136.620856703404,148.0988985428047L148.00592809535436,158.1526239210818L159.3909994873047,165.92577424051194L170.776070879255,173.6264500299419L182.16114227120534,178.2580611051103L193.54621366315567,184.35293392664673L204.931285055106,188.4349805115536L216.31635644705634,192.40753381002537L227.70142783900667,197.11706873384753L239.086499230957,200.79511944927032L250.47157062290734,203.06817529323095L261.8566420148577,206.2875820624394L273.241713406808,210.00729824012575L284.62678479875837,211.01899874643647L296.0118561907087,214.99464280833067L307.39692758265903,217.37485450488526L318.7819989746094,217.96067034107364L330.1670703665597,220.2085635689258L341.55214175851,223.65900314384197L352.93721315046037,225.42711695442284L364.32228454241067,225.84372229381466L375.70735593436103,227.45668541296232L387.09242732631134,229.67693074113402L398.4774987182617,230.29758983057388L409.862570110212,231.88237701528783L421.24764150216237,232.53963243335997L432.6327128941127,233.61729504104738L444.01778428606303,234.82223514565948L455.40285567801334,237.3888853528935L466.7879270699637,237.28103953488863L478.172998461914,238.10501312572197L489.5580698538644,239.77454636810174L500.9431412458147,239.95666907473122L512.3282126377651,239.8665159411921L523.7132840297154,241.33191094796328L535.0983554216657,242.1002507971936L546.483426813616,242.93800257485523L557.8684982055663,242.95213278485235L569.2535695975167,244.22388688690972L580.638640989467,244.93111551402995L592.0237123814175,245.26339722355857L603.4087837733676,246.42963590098873L614.7938551653181,245.51453759267025L626.1789265572684,246.63762527006435L637.5639979492188,247.41506139797744L648.9490693411691,247.83796091162807L660.3341407331194,249.5628673984659L671.7192121250697,248.36632656666225L683.10428351702,248.7702379505858L694.4893549089704,249.0964648616104L705.8744263009207,250.16793890198966L717.259497692871,250.26137993192572L728.6445690848213,250.99420768388381" fill="none"></path></g></g></g></g></g></g><g transform="translate(51, 377)" clip-path="url(#clip_1)"><clipPath id="clip_1"><rect width="796" height="22"></rect></clipPath><g><g><line x1="0" y1="0" x2="0" y2="5" style="visibility: inherit;" fill="rgb(0, 0, 0)" stroke="rgb(204, 204, 204)" stroke-width="1px"></line><line x1="56.92535695975167" y1="0" x2="56.92535695975167" y2="5" style="visibility: inherit;" fill="rgb(0, 0, 0)" stroke="rgb(204, 204, 204)" stroke-width="1px"></line><line x1="113.85071391950333" y1="0" x2="113.85071391950333" y2="5" style="visibility: inherit;" fill="rgb(0, 0, 0)" stroke="rgb(204, 204, 204)" stroke-width="1px"></line><line x1="170.776070879255" y1="0" x2="170.776070879255" y2="5" style="visibility: inherit;" fill="rgb(0, 0, 0)" stroke="rgb(204, 204, 204)" stroke-width="1px"></line><line x1="227.70142783900667" y1="0" x2="227.70142783900667" y2="5" style="visibility: inherit;" fill="rgb(0, 0, 0)" stroke="rgb(204, 204, 204)" stroke-width="1px"></line><line x1="284.62678479875837" y1="0" x2="284.62678479875837" y2="5" style="visibility: inherit;" fill="rgb(0, 0, 0)" stroke="rgb(204, 204, 204)" stroke-width="1px"></line><line x1="341.55214175851" y1="0" x2="341.55214175851" y2="5" style="visibility: inherit;" fill="rgb(0, 0, 0)" stroke="rgb(204, 204, 204)" stroke-width="1px"></line><line x1="398.4774987182617" y1="0" x2="398.4774987182617" y2="5" style="visibility: inherit;" fill="rgb(0, 0, 0)" stroke="rgb(204, 204, 204)" stroke-width="1px"></line><line x1="455.40285567801334" y1="0" x2="455.40285567801334" y2="5" style="visibility: inherit;" fill="rgb(0, 0, 0)" stroke="rgb(204, 204, 204)" stroke-width="1px"></line><line x1="512.3282126377651" y1="0" x2="512.3282126377651" y2="5" style="visibility: inherit;" fill="rgb(0, 0, 0)" stroke="rgb(204, 204, 204)" stroke-width="1px"></line><line x1="569.2535695975167" y1="0" x2="569.2535695975167" y2="5" style="visibility: inherit;" fill="rgb(0, 0, 0)" stroke="rgb(204, 204, 204)" stroke-width="1px"></line><line x1="626.1789265572684" y1="0" x2="626.1789265572684" y2="5" style="visibility: inherit;" fill="rgb(0, 0, 0)" stroke="rgb(204, 204, 204)" stroke-width="1px"></line><line x1="683.10428351702" y1="0" x2="683.10428351702" y2="5" style="visibility: inherit;" fill="rgb(0, 0, 0)" stroke="rgb(204, 204, 204)" stroke-width="1px"></line><line x1="740.0296404767718" y1="0" x2="740.0296404767718" y2="5" style="visibility: inherit;" fill="rgb(0, 0, 0)" stroke="rgb(204, 204, 204)" stroke-width="1px"></line><line x1="796.9549974365234" y1="0" x2="796.9549974365234" y2="5" style="visibility: inherit;" fill="rgb(0, 0, 0)" stroke="rgb(204, 204, 204)" stroke-width="1px"></line></g><g transform="translate(0, 8)"><text style="text-anchor: middle; visibility: hidden; font-family: &quot;Helvetica Neue&quot;, sans-serif; font-size: 12px; font-weight: 200;" x="0" y="0" dx="0em" dy="0.95em" fill="rgb(50, 49, 63)" stroke="none" stroke-width="1px">-5</text><text style="text-anchor: middle; visibility: hidden; font-family: &quot;Helvetica Neue&quot;, sans-serif; font-size: 12px; font-weight: 200;" x="56.92535695975167" y="0" dx="0em" dy="0.95em" fill="rgb(50, 49, 63)" stroke="none" stroke-width="1px">0</text><text style="text-anchor: middle; visibility: hidden; font-family: &quot;Helvetica Neue&quot;, sans-serif; font-size: 12px; font-weight: 200;" x="113.85071391950333" y="0" dx="0em" dy="0.95em" fill="rgb(50, 49, 63)" stroke="none" stroke-width="1px">5</text><text style="text-anchor: middle; visibility: hidden; font-family: &quot;Helvetica Neue&quot;, sans-serif; font-size: 12px; font-weight: 200;" x="170.776070879255" y="0" dx="0em" dy="0.95em" fill="rgb(50, 49, 63)" stroke="none" stroke-width="1px">10</text><text style="text-anchor: middle; visibility: hidden; font-family: &quot;Helvetica Neue&quot;, sans-serif; font-size: 12px; font-weight: 200;" x="227.70142783900667" y="0" dx="0em" dy="0.95em" fill="rgb(50, 49, 63)" stroke="none" stroke-width="1px">15</text><text style="text-anchor: middle; visibility: hidden; font-family: &quot;Helvetica Neue&quot;, sans-serif; font-size: 12px; font-weight: 200;" x="284.62678479875837" y="0" dx="0em" dy="0.95em" fill="rgb(50, 49, 63)" stroke="none" stroke-width="1px">20</text><text style="text-anchor: middle; visibility: hidden; font-family: &quot;Helvetica Neue&quot;, sans-serif; font-size: 12px; font-weight: 200;" x="341.55214175851" y="0" dx="0em" dy="0.95em" fill="rgb(50, 49, 63)" stroke="none" stroke-width="1px">25</text><text style="text-anchor: middle; visibility: hidden; font-family: &quot;Helvetica Neue&quot;, sans-serif; font-size: 12px; font-weight: 200;" x="398.4774987182617" y="0" dx="0em" dy="0.95em" fill="rgb(50, 49, 63)" stroke="none" stroke-width="1px">30</text><text style="text-anchor: middle; visibility: hidden; font-family: &quot;Helvetica Neue&quot;, sans-serif; font-size: 12px; font-weight: 200;" x="455.40285567801334" y="0" dx="0em" dy="0.95em" fill="rgb(50, 49, 63)" stroke="none" stroke-width="1px">35</text><text style="text-anchor: middle; visibility: hidden; font-family: &quot;Helvetica Neue&quot;, sans-serif; font-size: 12px; font-weight: 200;" x="512.3282126377651" y="0" dx="0em" dy="0.95em" fill="rgb(50, 49, 63)" stroke="none" stroke-width="1px">40</text><text style="text-anchor: middle; visibility: hidden; font-family: &quot;Helvetica Neue&quot;, sans-serif; font-size: 12px; font-weight: 200;" x="569.2535695975167" y="0" dx="0em" dy="0.95em" fill="rgb(50, 49, 63)" stroke="none" stroke-width="1px">45</text><text style="text-anchor: middle; visibility: hidden; font-family: &quot;Helvetica Neue&quot;, sans-serif; font-size: 12px; font-weight: 200;" x="626.1789265572684" y="0" dx="0em" dy="0.95em" fill="rgb(50, 49, 63)" stroke="none" stroke-width="1px">50</text><text style="text-anchor: middle; visibility: hidden; font-family: &quot;Helvetica Neue&quot;, sans-serif; font-size: 12px; font-weight: 200;" x="683.10428351702" y="0" dx="0em" dy="0.95em" fill="rgb(50, 49, 63)" stroke="none" stroke-width="1px">55</text><text style="text-anchor: middle; visibility: hidden; font-family: &quot;Helvetica Neue&quot;, sans-serif; font-size: 12px; font-weight: 200;" x="740.0296404767718" y="0" dx="0em" dy="0.95em" fill="rgb(50, 49, 63)" stroke="none" stroke-width="1px">60</text><text style="text-anchor: middle; visibility: hidden; font-family: &quot;Helvetica Neue&quot;, sans-serif; font-size: 12px; font-weight: 200;" x="796.9549974365234" y="0" dx="0em" dy="0.95em" fill="rgb(50, 49, 63)" stroke="none" stroke-width="1px">65</text></g><line x1="0" y1="0" x2="796.9549974365234" y2="0" fill="rgb(0, 0, 0)" stroke="rgb(204, 204, 204)" stroke-width="1px"></line></g></g></g></g></svg>